<mxfile host="app.diagrams.net" modified="2024-01-18T15:06:30.674Z" agent="Mozilla/5.0 (Macintosh; Intel Mac OS X 10_15_7) AppleWebKit/537.36 (KHTML, like Gecko) Chrome/120.0.0.0 Safari/537.36" etag="Iu6QFbSPhF4WaBmb5le0" version="22.1.19" type="device">
  <diagram name="Pagina-1" id="kqHeVYWmmcp-JxsBXokr">
    <mxGraphModel dx="4393" dy="1109" grid="1" gridSize="10" guides="1" tooltips="1" connect="1" arrows="1" fold="1" page="1" pageScale="1" pageWidth="827" pageHeight="1169" math="0" shadow="0">
      <root>
        <mxCell id="0" />
        <mxCell id="1" parent="0" />
        <mxCell id="4QEEzw6aT8S7W2rMDNhq-130" style="edgeStyle=orthogonalEdgeStyle;rounded=0;orthogonalLoop=1;jettySize=auto;html=1;" edge="1" parent="1" source="4QEEzw6aT8S7W2rMDNhq-22" target="4QEEzw6aT8S7W2rMDNhq-128">
          <mxGeometry relative="1" as="geometry">
            <Array as="points">
              <mxPoint x="-1192" y="2690" />
            </Array>
          </mxGeometry>
        </mxCell>
        <mxCell id="4QEEzw6aT8S7W2rMDNhq-131" value="results" style="edgeLabel;html=1;align=center;verticalAlign=middle;resizable=0;points=[];" vertex="1" connectable="0" parent="4QEEzw6aT8S7W2rMDNhq-130">
          <mxGeometry x="-0.2533" y="4" relative="1" as="geometry">
            <mxPoint as="offset" />
          </mxGeometry>
        </mxCell>
        <mxCell id="4QEEzw6aT8S7W2rMDNhq-22" value="App folser" style="points=[[0,0,0],[0.25,0,0],[0.5,0,0],[0.75,0,0],[1,0,0],[1,0.25,0],[1,0.5,0],[1,0.75,0],[1,1,0],[0.75,1,0],[0.5,1,0],[0.25,1,0],[0,1,0],[0,0.75,0],[0,0.5,0],[0,0.25,0]];rounded=1;absoluteArcSize=1;arcSize=2;html=1;strokeColor=none;gradientColor=none;shadow=1;dashed=0;fontSize=12;fontColor=#9E9E9E;align=left;verticalAlign=top;spacing=10;spacingTop=-4;whiteSpace=wrap;fillColor=#E6E6E6;" vertex="1" parent="1">
          <mxGeometry x="-1330" y="2000" width="275.25" height="620" as="geometry" />
        </mxCell>
        <mxCell id="vZtjYWwceH9JSBGlt6C5-18" value="" style="rounded=0;whiteSpace=wrap;html=1;fillColor=#fff2cc;strokeColor=#d6b656;" parent="1" vertex="1">
          <mxGeometry x="-910" y="3459" width="660" height="101" as="geometry" />
        </mxCell>
        <mxCell id="vZtjYWwceH9JSBGlt6C5-6" style="edgeStyle=orthogonalEdgeStyle;rounded=0;orthogonalLoop=1;jettySize=auto;html=1;" parent="1" source="p9Uy8gffJhNtWBo6-khr-80" target="p9Uy8gffJhNtWBo6-khr-47" edge="1">
          <mxGeometry relative="1" as="geometry" />
        </mxCell>
        <mxCell id="p9Uy8gffJhNtWBo6-khr-80" value="" style="rounded=0;whiteSpace=wrap;html=1;fillColor=#dae8fc;strokeColor=#6c8ebf;" parent="1" vertex="1">
          <mxGeometry x="-910" y="2880" width="360" height="280" as="geometry" />
        </mxCell>
        <mxCell id="p9Uy8gffJhNtWBo6-khr-79" value="" style="rounded=0;whiteSpace=wrap;html=1;fillColor=#e1d5e7;strokeColor=#9673a6;" parent="1" vertex="1">
          <mxGeometry x="-910" y="3220" width="660" height="230" as="geometry" />
        </mxCell>
        <mxCell id="38mpf5MFzlCCdVwa-txg-379" value="" style="html=1;whiteSpace=wrap;" parent="1" vertex="1">
          <mxGeometry x="790" y="1997" width="460" height="700" as="geometry" />
        </mxCell>
        <mxCell id="38mpf5MFzlCCdVwa-txg-301" value="" style="html=1;whiteSpace=wrap;" parent="1" vertex="1">
          <mxGeometry x="1982.58" y="1920" width="260" height="240" as="geometry" />
        </mxCell>
        <mxCell id="38mpf5MFzlCCdVwa-txg-299" value="Object" style="html=1;whiteSpace=wrap;" parent="1" vertex="1">
          <mxGeometry x="1323.78" y="1925" width="380" height="805" as="geometry" />
        </mxCell>
        <mxCell id="CAZ8TpiNfJUaBrMp6-me-135" value="" style="rounded=0;whiteSpace=wrap;html=1;fillColor=#EAEDED;fontSize=22;fontColor=#FFFFFF;strokeColor=none;labelBackgroundColor=none;" parent="1" vertex="1">
          <mxGeometry x="1830.8400000000001" y="2250" width="539" height="510" as="geometry" />
        </mxCell>
        <mxCell id="CAZ8TpiNfJUaBrMp6-me-136" value="1" style="rounded=1;whiteSpace=wrap;html=1;fillColor=#007CBD;strokeColor=none;fontColor=#FFFFFF;fontStyle=1;fontSize=22;labelBackgroundColor=none;" parent="1" vertex="1">
          <mxGeometry x="1849.3400000000001" y="2262.5" width="40" height="38" as="geometry" />
        </mxCell>
        <mxCell id="CAZ8TpiNfJUaBrMp6-me-137" value="&lt;div&gt;The __qualify__ component defines the metadata and data requirements of an application. The framework evaluates these&amp;nbsp;&lt;span style=&quot;background-color: initial;&quot;&gt;requirements against the provided building metadata schema in order to determine if the application can run.&lt;/span&gt;&lt;/div&gt;" style="text;html=1;align=left;verticalAlign=top;spacingTop=-4;fontSize=14;labelBackgroundColor=none;whiteSpace=wrap;" parent="1" vertex="1">
          <mxGeometry x="1900.8400000000001" y="2262" width="449" height="78" as="geometry" />
        </mxCell>
        <mxCell id="CAZ8TpiNfJUaBrMp6-me-138" value="&lt;div&gt;The __fetch__ component performs the actual retrieval of data from the timeseries database corresponding to the set of&amp;nbsp;&lt;span style=&quot;background-color: initial;&quot;&gt;streams identified by the Brick queries. The output of the fetch component is an object providing access to the&amp;nbsp;&lt;/span&gt;&lt;span style=&quot;background-color: initial;&quot;&gt;results of the Brick queries, the resulting timeseries dataframes, and convenience methods for relating specific&amp;nbsp;&lt;/span&gt;&lt;span style=&quot;background-color: initial;&quot;&gt;dataframes based on the Brick context&lt;/span&gt;&lt;/div&gt;" style="text;html=1;align=left;verticalAlign=top;spacingTop=-4;fontSize=14;labelBackgroundColor=none;whiteSpace=wrap;" parent="1" vertex="1">
          <mxGeometry x="1900.8400000000001" y="2350" width="449" height="110" as="geometry" />
        </mxCell>
        <mxCell id="CAZ8TpiNfJUaBrMp6-me-139" value="2" style="rounded=1;whiteSpace=wrap;html=1;fillColor=#007CBD;strokeColor=none;fontColor=#FFFFFF;fontStyle=1;fontSize=22;labelBackgroundColor=none;" parent="1" vertex="1">
          <mxGeometry x="1849.3400000000001" y="2350" width="40" height="38" as="geometry" />
        </mxCell>
        <mxCell id="CAZ8TpiNfJUaBrMp6-me-140" value="&lt;div&gt;The __clean__ component is executed on the output of the fetch component. The purpose of this component is to&amp;nbsp;&lt;span style=&quot;background-color: initial;&quot;&gt;normalize the timeseries data for the &quot;analyze&quot; component, which is executed next. Common operations in the clean&amp;nbsp;&lt;/span&gt;&lt;span style=&quot;background-color: initial;&quot;&gt;component are&amp;nbsp;&lt;/span&gt;&lt;span style=&quot;background-color: initial;&quot;&gt;hole filling,specialized aggregation, and data filtering. It is kept modular to facilitate the re-use of standard&amp;nbsp;&lt;/span&gt;&lt;span style=&quot;background-color: initial;&quot;&gt;cleaning steps. Application developers can build their own cleaning components or leverage existing methods&lt;/span&gt;&lt;/div&gt;" style="text;html=1;align=left;verticalAlign=top;spacingTop=-4;fontSize=14;labelBackgroundColor=none;whiteSpace=wrap;" parent="1" vertex="1">
          <mxGeometry x="1900.8400000000001" y="2460" width="449" height="130" as="geometry" />
        </mxCell>
        <mxCell id="CAZ8TpiNfJUaBrMp6-me-141" value="3" style="rounded=1;whiteSpace=wrap;html=1;fillColor=#007CBD;strokeColor=none;fontColor=#FFFFFF;fontStyle=1;fontSize=22;labelBackgroundColor=none;" parent="1" vertex="1">
          <mxGeometry x="1849.3400000000001" y="2460" width="40" height="38" as="geometry" />
        </mxCell>
        <mxCell id="CAZ8TpiNfJUaBrMp6-me-142" value="&lt;div&gt;The __analyze__ component is executed on the output of the clean component. The purpose of this component is to&amp;nbsp;&lt;span style=&quot;background-color: initial;&quot;&gt;perform the actual analysis of the data. The output of the &quot;analyze&quot; component is a set of timeseries dataframes&amp;nbsp;&lt;/span&gt;&lt;span style=&quot;background-color: initial;&quot;&gt;containing the results of the analysis.&amp;nbsp;&lt;/span&gt;&lt;/div&gt;" style="text;html=1;align=left;verticalAlign=top;spacingTop=-4;fontSize=14;labelBackgroundColor=none;whiteSpace=wrap;" parent="1" vertex="1">
          <mxGeometry x="1900.8400000000001" y="2590" width="449" height="80" as="geometry" />
        </mxCell>
        <mxCell id="CAZ8TpiNfJUaBrMp6-me-143" value="4" style="rounded=1;whiteSpace=wrap;html=1;fillColor=#007CBD;strokeColor=none;fontColor=#FFFFFF;fontStyle=1;fontSize=22;labelBackgroundColor=none;" parent="1" vertex="1">
          <mxGeometry x="1849.3400000000001" y="2590" width="40" height="38" as="geometry" />
        </mxCell>
        <mxCell id="CAZ8TpiNfJUaBrMp6-me-144" value="&lt;div&gt;The post processing phase&amp;nbsp;he application developer can choose to save these results to the&amp;nbsp;&lt;span style=&quot;background-color: initial;&quot;&gt;timeseries database, or to perform additional analysis on the results in the aggregate component.&lt;/span&gt;&lt;span style=&quot;background-color: initial;&quot;&gt;he application developer can choose to save these results to the&lt;/span&gt;&lt;/div&gt;" style="text;html=1;align=left;verticalAlign=top;spacingTop=-4;fontSize=14;labelBackgroundColor=none;whiteSpace=wrap;" parent="1" vertex="1">
          <mxGeometry x="1900.8400000000001" y="2670" width="449" height="80" as="geometry" />
        </mxCell>
        <mxCell id="CAZ8TpiNfJUaBrMp6-me-145" value="5" style="rounded=1;whiteSpace=wrap;html=1;fillColor=#007CBD;strokeColor=none;fontColor=#FFFFFF;fontStyle=1;fontSize=22;labelBackgroundColor=none;" parent="1" vertex="1">
          <mxGeometry x="1849.3400000000001" y="2670" width="40" height="38" as="geometry" />
        </mxCell>
        <mxCell id="38mpf5MFzlCCdVwa-txg-373" style="edgeStyle=orthogonalEdgeStyle;rounded=0;orthogonalLoop=1;jettySize=auto;html=1;entryX=0.5;entryY=0;entryDx=0;entryDy=0;" parent="1" source="qwU3JjwP_E-wawoAio-z-1" target="qwU3JjwP_E-wawoAio-z-38" edge="1">
          <mxGeometry relative="1" as="geometry" />
        </mxCell>
        <mxCell id="qwU3JjwP_E-wawoAio-z-1" value="" style="sketch=0;outlineConnect=0;fontColor=#232F3E;gradientColor=none;fillColor=#232F3D;strokeColor=none;dashed=0;verticalLabelPosition=bottom;verticalAlign=top;align=center;html=1;fontSize=12;fontStyle=0;aspect=fixed;pointerEvents=1;shape=mxgraph.aws4.users;strokeWidth=1;" parent="1" vertex="1">
          <mxGeometry x="994.18" y="1920.0000000000002" width="59.79" height="59.79" as="geometry" />
        </mxCell>
        <mxCell id="TfzQ6guSoEpV8Mq62_4b-5" style="edgeStyle=orthogonalEdgeStyle;rounded=0;orthogonalLoop=1;jettySize=auto;html=1;" parent="1" source="qwU3JjwP_E-wawoAio-z-12" target="qwU3JjwP_E-wawoAio-z-51" edge="1">
          <mxGeometry relative="1" as="geometry" />
        </mxCell>
        <mxCell id="qwU3JjwP_E-wawoAio-z-12" value="APP 2" style="swimlane;fontSize=14;align=center;swimlaneFillColor=#f4f4f4;fillColor=#f5f5f5;startSize=33;container=1;pointerEvents=0;collapsible=0;recursiveResize=0;fontColor=#333333;strokeColor=#666666;" parent="1" vertex="1">
          <mxGeometry x="918.29" y="2289" width="90" height="71" as="geometry" />
        </mxCell>
        <mxCell id="qwU3JjwP_E-wawoAio-z-13" value="logic" style="text;html=1;align=center;verticalAlign=middle;resizable=0;points=[];autosize=1;strokeColor=none;fillColor=none;" parent="qwU3JjwP_E-wawoAio-z-12" vertex="1">
          <mxGeometry x="20" y="38" width="50" height="30" as="geometry" />
        </mxCell>
        <mxCell id="TfzQ6guSoEpV8Mq62_4b-7" style="edgeStyle=orthogonalEdgeStyle;rounded=0;orthogonalLoop=1;jettySize=auto;html=1;entryX=0.5;entryY=0;entryDx=0;entryDy=0;" parent="1" source="qwU3JjwP_E-wawoAio-z-14" target="qwU3JjwP_E-wawoAio-z-51" edge="1">
          <mxGeometry relative="1" as="geometry" />
        </mxCell>
        <mxCell id="qwU3JjwP_E-wawoAio-z-14" value="[...]" style="swimlane;fontSize=14;align=center;swimlaneFillColor=#f4f4f4;fillColor=#f5f5f5;startSize=33;container=1;pointerEvents=0;collapsible=0;recursiveResize=0;fontColor=#333333;strokeColor=#666666;" parent="1" vertex="1">
          <mxGeometry x="1028.29" y="2289" width="90" height="71" as="geometry" />
        </mxCell>
        <mxCell id="qwU3JjwP_E-wawoAio-z-15" value="logic" style="text;html=1;align=center;verticalAlign=middle;resizable=0;points=[];autosize=1;strokeColor=none;fillColor=none;" parent="qwU3JjwP_E-wawoAio-z-14" vertex="1">
          <mxGeometry x="20" y="38" width="50" height="30" as="geometry" />
        </mxCell>
        <mxCell id="TfzQ6guSoEpV8Mq62_4b-8" style="edgeStyle=orthogonalEdgeStyle;rounded=0;orthogonalLoop=1;jettySize=auto;html=1;entryX=0.5;entryY=0;entryDx=0;entryDy=0;" parent="1" source="qwU3JjwP_E-wawoAio-z-16" target="qwU3JjwP_E-wawoAio-z-51" edge="1">
          <mxGeometry relative="1" as="geometry" />
        </mxCell>
        <mxCell id="qwU3JjwP_E-wawoAio-z-16" value="APP n" style="swimlane;fontSize=14;align=center;swimlaneFillColor=#f4f4f4;fillColor=#f5f5f5;startSize=33;container=1;pointerEvents=0;collapsible=0;recursiveResize=0;fontColor=#333333;strokeColor=#666666;" parent="1" vertex="1">
          <mxGeometry x="1138.29" y="2289" width="90" height="71" as="geometry" />
        </mxCell>
        <mxCell id="qwU3JjwP_E-wawoAio-z-17" value="logic" style="text;html=1;align=center;verticalAlign=middle;resizable=0;points=[];autosize=1;strokeColor=none;fillColor=none;" parent="qwU3JjwP_E-wawoAio-z-16" vertex="1">
          <mxGeometry x="20" y="38" width="50" height="30" as="geometry" />
        </mxCell>
        <mxCell id="qwU3JjwP_E-wawoAio-z-47" style="edgeStyle=orthogonalEdgeStyle;rounded=0;orthogonalLoop=1;jettySize=auto;html=1;entryX=0.5;entryY=0;entryDx=0;entryDy=0;" parent="1" source="qwU3JjwP_E-wawoAio-z-34" edge="1">
          <mxGeometry relative="1" as="geometry">
            <mxPoint x="853.29" y="2289" as="targetPoint" />
          </mxGeometry>
        </mxCell>
        <mxCell id="qwU3JjwP_E-wawoAio-z-34" value="config1" style="shape=tape;whiteSpace=wrap;html=1;strokeWidth=1;size=0.19;fillColor=#fff2cc;strokeColor=#d6b656;" parent="1" vertex="1">
          <mxGeometry x="813.29" y="2219" width="80" height="45" as="geometry" />
        </mxCell>
        <mxCell id="qwU3JjwP_E-wawoAio-z-48" style="edgeStyle=orthogonalEdgeStyle;rounded=0;orthogonalLoop=1;jettySize=auto;html=1;entryX=0.5;entryY=0;entryDx=0;entryDy=0;" parent="1" source="qwU3JjwP_E-wawoAio-z-35" target="qwU3JjwP_E-wawoAio-z-12" edge="1">
          <mxGeometry relative="1" as="geometry" />
        </mxCell>
        <mxCell id="qwU3JjwP_E-wawoAio-z-35" value="config2" style="shape=tape;whiteSpace=wrap;html=1;strokeWidth=1;size=0.19;fillColor=#fff2cc;strokeColor=#d6b656;" parent="1" vertex="1">
          <mxGeometry x="923.29" y="2219" width="80" height="45" as="geometry" />
        </mxCell>
        <mxCell id="qwU3JjwP_E-wawoAio-z-49" style="edgeStyle=orthogonalEdgeStyle;rounded=0;orthogonalLoop=1;jettySize=auto;html=1;" parent="1" source="qwU3JjwP_E-wawoAio-z-36" target="qwU3JjwP_E-wawoAio-z-14" edge="1">
          <mxGeometry relative="1" as="geometry" />
        </mxCell>
        <mxCell id="qwU3JjwP_E-wawoAio-z-36" value="[...]" style="shape=tape;whiteSpace=wrap;html=1;strokeWidth=1;size=0.19;fillColor=#fff2cc;strokeColor=#d6b656;" parent="1" vertex="1">
          <mxGeometry x="1033.29" y="2219" width="80" height="45" as="geometry" />
        </mxCell>
        <mxCell id="qwU3JjwP_E-wawoAio-z-50" style="edgeStyle=orthogonalEdgeStyle;rounded=0;orthogonalLoop=1;jettySize=auto;html=1;entryX=0.5;entryY=0;entryDx=0;entryDy=0;" parent="1" source="qwU3JjwP_E-wawoAio-z-37" target="qwU3JjwP_E-wawoAio-z-16" edge="1">
          <mxGeometry relative="1" as="geometry" />
        </mxCell>
        <mxCell id="qwU3JjwP_E-wawoAio-z-37" value="config n" style="shape=tape;whiteSpace=wrap;html=1;strokeWidth=1;size=0.19;fillColor=#fff2cc;strokeColor=#d6b656;" parent="1" vertex="1">
          <mxGeometry x="1143.29" y="2219" width="80" height="45" as="geometry" />
        </mxCell>
        <mxCell id="TfzQ6guSoEpV8Mq62_4b-1" style="edgeStyle=orthogonalEdgeStyle;rounded=0;orthogonalLoop=1;jettySize=auto;html=1;" parent="1" source="qwU3JjwP_E-wawoAio-z-38" target="qwU3JjwP_E-wawoAio-z-34" edge="1">
          <mxGeometry relative="1" as="geometry" />
        </mxCell>
        <mxCell id="TfzQ6guSoEpV8Mq62_4b-2" style="edgeStyle=orthogonalEdgeStyle;rounded=0;orthogonalLoop=1;jettySize=auto;html=1;" parent="1" source="qwU3JjwP_E-wawoAio-z-38" target="qwU3JjwP_E-wawoAio-z-37" edge="1">
          <mxGeometry relative="1" as="geometry" />
        </mxCell>
        <mxCell id="TfzQ6guSoEpV8Mq62_4b-3" style="edgeStyle=orthogonalEdgeStyle;rounded=0;orthogonalLoop=1;jettySize=auto;html=1;" parent="1" source="qwU3JjwP_E-wawoAio-z-38" target="qwU3JjwP_E-wawoAio-z-35" edge="1">
          <mxGeometry relative="1" as="geometry" />
        </mxCell>
        <mxCell id="TfzQ6guSoEpV8Mq62_4b-4" style="edgeStyle=orthogonalEdgeStyle;rounded=0;orthogonalLoop=1;jettySize=auto;html=1;" parent="1" source="qwU3JjwP_E-wawoAio-z-38" target="qwU3JjwP_E-wawoAio-z-36" edge="1">
          <mxGeometry relative="1" as="geometry" />
        </mxCell>
        <mxCell id="qwU3JjwP_E-wawoAio-z-38" value="Software Platform Interface" style="swimlane;fontSize=14;align=center;swimlaneFillColor=#f4f4f4;fillColor=#f5f5f5;startSize=33;container=1;pointerEvents=0;collapsible=0;recursiveResize=0;fontColor=#333333;strokeColor=#666666;" parent="1" vertex="1">
          <mxGeometry x="868.86" y="2020" width="310.43" height="115.5" as="geometry" />
        </mxCell>
        <mxCell id="38mpf5MFzlCCdVwa-txg-374" value="" style="image;points=[];aspect=fixed;html=1;align=center;shadow=0;dashed=0;image=img/lib/allied_telesis/computer_and_terminals/Personal_Computer.svg;" parent="qwU3JjwP_E-wawoAio-z-38" vertex="1">
          <mxGeometry x="132.42000000000004" y="45.09999999999982" width="45.6" height="61.800000000000004" as="geometry" />
        </mxCell>
        <mxCell id="38mpf5MFzlCCdVwa-txg-375" value="" style="image;points=[];aspect=fixed;html=1;align=center;shadow=0;dashed=0;image=img/lib/allied_telesis/computer_and_terminals/Personal_Computer_with_Server.svg;" parent="qwU3JjwP_E-wawoAio-z-38" vertex="1">
          <mxGeometry x="201.14" y="45.09999999999991" width="62.400000000000006" height="62.400000000000006" as="geometry" />
        </mxCell>
        <mxCell id="38mpf5MFzlCCdVwa-txg-372" style="edgeStyle=orthogonalEdgeStyle;rounded=0;orthogonalLoop=1;jettySize=auto;html=1;" parent="1" source="qwU3JjwP_E-wawoAio-z-51" target="qwU3JjwP_E-wawoAio-z-1" edge="1">
          <mxGeometry relative="1" as="geometry">
            <Array as="points">
              <mxPoint x="760" y="2599" />
              <mxPoint x="760" y="1950" />
            </Array>
          </mxGeometry>
        </mxCell>
        <mxCell id="38mpf5MFzlCCdVwa-txg-376" value="feedback&lt;br&gt;loop" style="edgeLabel;html=1;align=center;verticalAlign=middle;resizable=0;points=[];" parent="38mpf5MFzlCCdVwa-txg-372" vertex="1" connectable="0">
          <mxGeometry x="-0.0833" y="-2" relative="1" as="geometry">
            <mxPoint x="-1" y="238" as="offset" />
          </mxGeometry>
        </mxCell>
        <mxCell id="qwU3JjwP_E-wawoAio-z-51" value="POST PROCESSING" style="swimlane;fontSize=14;align=center;swimlaneFillColor=#f4f4f4;fillColor=#f5f5f5;startSize=33;container=1;pointerEvents=0;collapsible=0;recursiveResize=0;fontColor=#333333;strokeColor=#666666;" parent="1" vertex="1">
          <mxGeometry x="868.86" y="2525.25" width="310.43" height="147.5" as="geometry" />
        </mxCell>
        <mxCell id="qwU3JjwP_E-wawoAio-z-30" value="reports" style="shape=mxgraph.bpmn.data;labelPosition=center;verticalLabelPosition=bottom;align=center;verticalAlign=top;size=15;html=1;bpmnTransferType=output;" parent="qwU3JjwP_E-wawoAio-z-51" vertex="1">
          <mxGeometry x="26.980000000000132" y="47.5" width="40" height="50" as="geometry" />
        </mxCell>
        <mxCell id="qwU3JjwP_E-wawoAio-z-31" value="visualizations" style="shape=mxgraph.bpmn.data;labelPosition=center;verticalLabelPosition=bottom;align=center;verticalAlign=top;size=15;html=1;bpmnTransferType=output;" parent="qwU3JjwP_E-wawoAio-z-51" vertex="1">
          <mxGeometry x="89.50000000000017" y="47.5" width="40" height="50" as="geometry" />
        </mxCell>
        <mxCell id="qwU3JjwP_E-wawoAio-z-32" value="raw data" style="shape=mxgraph.bpmn.data;labelPosition=center;verticalLabelPosition=bottom;align=center;verticalAlign=top;size=15;html=1;bpmnTransferType=output;" parent="qwU3JjwP_E-wawoAio-z-51" vertex="1">
          <mxGeometry x="166.9800000000002" y="47.5" width="40" height="50" as="geometry" />
        </mxCell>
        <mxCell id="qwU3JjwP_E-wawoAio-z-33" value="alarms&lt;br&gt;work orders" style="shape=mxgraph.bpmn.data;labelPosition=center;verticalLabelPosition=bottom;align=center;verticalAlign=top;size=15;html=1;bpmnTransferType=output;" parent="qwU3JjwP_E-wawoAio-z-51" vertex="1">
          <mxGeometry x="230.98" y="47.5" width="40" height="52.5" as="geometry" />
        </mxCell>
        <mxCell id="qwU3JjwP_E-wawoAio-z-55" value="5" style="rounded=1;whiteSpace=wrap;html=1;fillColor=#007CBD;strokeColor=none;fontColor=#FFFFFF;fontStyle=1;fontSize=22;labelBackgroundColor=none;" parent="1" vertex="1">
          <mxGeometry x="818.2900000000001" y="2525.25" width="40" height="38" as="geometry" />
        </mxCell>
        <mxCell id="38mpf5MFzlCCdVwa-txg-178" value="&lt;br&gt;triples DB" style="strokeWidth=1;html=1;shape=mxgraph.flowchart.database;whiteSpace=wrap;fillColor=#f8cecc;strokeColor=#b85450;" parent="1" vertex="1">
          <mxGeometry x="1830.84" y="1950.5" width="126.03" height="75" as="geometry" />
        </mxCell>
        <mxCell id="38mpf5MFzlCCdVwa-txg-180" value="&lt;br&gt;timeseries DB" style="strokeWidth=1;html=1;shape=mxgraph.flowchart.database;whiteSpace=wrap;fillColor=#f8cecc;strokeColor=#b85450;" parent="1" vertex="1">
          <mxGeometry x="1830.84" y="2060" width="126.03" height="75" as="geometry" />
        </mxCell>
        <mxCell id="38mpf5MFzlCCdVwa-txg-181" value="Yes" style="rounded=0;orthogonalLoop=1;jettySize=auto;html=1;entryX=0.437;entryY=0;entryDx=0;entryDy=0;entryPerimeter=0;" parent="1" source="38mpf5MFzlCCdVwa-txg-221" target="38mpf5MFzlCCdVwa-txg-192" edge="1">
          <mxGeometry x="-0.5998" y="-16" relative="1" as="geometry">
            <mxPoint as="offset" />
            <mxPoint x="1498.5" y="2150" as="targetPoint" />
          </mxGeometry>
        </mxCell>
        <mxCell id="38mpf5MFzlCCdVwa-txg-183" value="QUALIFY" style="swimlane;fontSize=14;align=center;swimlaneFillColor=#f4f4f4;fillColor=#f5f5f5;startSize=33;container=1;pointerEvents=0;collapsible=0;recursiveResize=0;fontColor=#333333;strokeColor=#666666;" parent="1" vertex="1">
          <mxGeometry x="1351.02" y="1938" width="328.98" height="122" as="geometry" />
        </mxCell>
        <mxCell id="TfzQ6guSoEpV8Mq62_4b-17" style="edgeStyle=orthogonalEdgeStyle;rounded=0;orthogonalLoop=1;jettySize=auto;html=1;entryX=1.085;entryY=0.513;entryDx=0;entryDy=0;entryPerimeter=0;" parent="38mpf5MFzlCCdVwa-txg-183" source="38mpf5MFzlCCdVwa-txg-184" target="38mpf5MFzlCCdVwa-txg-188" edge="1">
          <mxGeometry relative="1" as="geometry" />
        </mxCell>
        <mxCell id="38mpf5MFzlCCdVwa-txg-184" value="load the ttl" style="strokeWidth=1;html=1;shape=mxgraph.flowchart.direct_data;whiteSpace=wrap;fillColor=#fff2cc;strokeColor=#d6b656;" parent="38mpf5MFzlCCdVwa-txg-183" vertex="1">
          <mxGeometry x="198.98" y="63" width="100" height="30" as="geometry" />
        </mxCell>
        <mxCell id="38mpf5MFzlCCdVwa-txg-185" value="&lt;font style=&quot;font-size: 8px;&quot;&gt;&lt;br&gt;SHACL shapes from the configuration file&lt;/font&gt;" style="shape=note2;boundedLbl=1;whiteSpace=wrap;html=1;size=11;verticalAlign=top;align=left;spacingLeft=5;fillColor=#fff2cc;strokeColor=#d6b656;" parent="38mpf5MFzlCCdVwa-txg-183" vertex="1">
          <mxGeometry x="9.98" y="43" width="90.02" height="67" as="geometry" />
        </mxCell>
        <mxCell id="38mpf5MFzlCCdVwa-txg-186" value="&lt;i&gt;Manifest&lt;/i&gt;" style="resizeWidth=1;part=1;strokeColor=none;fillColor=none;align=left;spacingLeft=5;html=1;whiteSpace=wrap;" parent="38mpf5MFzlCCdVwa-txg-185" vertex="1">
          <mxGeometry width="90.02" height="25" relative="1" as="geometry" />
        </mxCell>
        <mxCell id="38mpf5MFzlCCdVwa-txg-188" value="" style="shape=note2;boundedLbl=1;whiteSpace=wrap;html=1;size=12;verticalAlign=top;align=left;spacingLeft=5;fillColor=#d5e8d4;strokeColor=#82b366;" parent="38mpf5MFzlCCdVwa-txg-183" vertex="1">
          <mxGeometry x="118.97999999999998" y="43" width="50" height="70" as="geometry" />
        </mxCell>
        <mxCell id="38mpf5MFzlCCdVwa-txg-189" value="&lt;i&gt;ttl&lt;/i&gt;" style="resizeWidth=1;part=1;strokeColor=none;fillColor=none;align=left;spacingLeft=5;html=1;whiteSpace=wrap;" parent="38mpf5MFzlCCdVwa-txg-188" vertex="1">
          <mxGeometry width="50.00000000000001" height="25" relative="1" as="geometry" />
        </mxCell>
        <mxCell id="38mpf5MFzlCCdVwa-txg-190" value="" style="shape=image;verticalLabelPosition=bottom;labelBackgroundColor=default;verticalAlign=top;aspect=fixed;imageAspect=0;image=data:image/svg+xml,PHN2ZyB4bWxucz0iaHR0cDovL3d3dy53My5vcmcvMjAwMC9zdmciIHZlcnNpb249IjEuMSIgdmlld0JveD0iMCAwIDMyIDMyIiBoZWlnaHQ9IjgwMHB4IiB3aWR0aD0iODAwcHgiIGZpbGw9IiMwMDAwMDAiPiYjeGE7PHRpdGxlPm5ldHdvcms8L3RpdGxlPiYjeGE7PHBhdGggZD0iTTI3IDIyLjI1Yy0wLjgzMSAwLjAwMi0xLjU5OCAwLjI3Ny0yLjIxNSAwLjczOWwwLjAxMC0wLjAwNy0zLjI5OS0yLjk5OGMwLjgyLTEuMDk3IDEuMzEzLTIuNDc5IDEuMzEzLTMuOTc3IDAtMS42MTQtMC41NzItMy4wOTQtMS41MjUtNC4yNDlsMC4wMDkgMC4wMTEgMy42NDQtMy42NDNjMC41ODQgMC4zOTEgMS4zMDIgMC42MjQgMi4wNzQgMC42MjQgMi4wNzcgMCAzLjc2LTEuNjgzIDMuNzYtMy43NnMtMS42ODMtMy43Ni0zLjc2LTMuNzZjLTIuMDc3IDAtMy43NiAxLjY4My0zLjc2IDMuNzYgMCAwLjc3MyAwLjIzMyAxLjQ5MSAwLjYzMyAyLjA4OGwtMC4wMDktMC4wMTQtMy42NDMgMy42NDNjLTEuMTQ1LTAuOTQ0LTIuNjI3LTEuNTE3LTQuMjQ0LTEuNTE3LTAuOTM3IDAtMS44MjggMC4xOTItMi42MzggMC41NGwwLjA0NC0wLjAxNy0xLjAzMi0xLjg3NGMwLjc5MS0wLjY4OCAxLjI4OC0xLjY5NSAxLjI4OC0yLjgxOSAwLTIuMDYwLTEuNjctMy43MjktMy43MjktMy43MjlzLTMuNzI5IDEuNjctMy43MjkgMy43MjljMCAyLjA2MCAxLjY3IDMuNzI5IDMuNzI5IDMuNzI5IDAuMDA3IDAgMC4wMTUtMCAwLjAyMi0waC0wLjAwMWMwLjM5OC0wLjAwNiAwLjc3OC0wLjA3MyAxLjEzMy0wLjE5NGwtMC4wMjYgMC4wMDggMS4wMzcgMS44ODNjLTEuNzU3IDEuMjQzLTIuODkgMy4yNjUtMi44OTQgNS41NTN2MC4wMDFjMC4wMTAgMC42OTcgMC4xMjUgMS4zNjQgMC4zMyAxLjk5bC0wLjAxMy0wLjA0Ny0xLjQyMyAwLjYwM2MtMC42ODEtMC45NzEtMS43OTUtMS41OTctMy4wNTYtMS41OTctMi4wNTYgMC0zLjcyMiAxLjY2Ni0zLjcyMiAzLjcyMnMxLjY2NiAzLjcyMiAzLjcyMiAzLjcyMmMyLjA1NiAwIDMuNzIyLTEuNjY2IDMuNzIyLTMuNzIyIDAtMC4yNjQtMC4wMjctMC41MjEtMC4wNzktMC43NjlsMC4wMDQgMC4wMjQgMS40MTktMC42MDJjMS4xNjcgMi4wOTMgMy4zNjcgMy40ODUgNS44OTIgMy40ODUgMS43MyAwIDMuMzA4LTAuNjU0IDQuNS0xLjcyOGwtMC4wMDYgMC4wMDUgMy4zMDkgMy4wMDdjLTAuMzM1IDAuNTQ0LTAuNTM1IDEuMjAxLTAuNTM5IDEuOTA2djAuMDAxYzAgMi4wNzEgMS42NzkgMy43NSAzLjc1IDMuNzVzMy43NS0xLjY3OSAzLjc1LTMuNzVjMC0yLjA3MS0xLjY3OS0zLjc1LTMuNzUtMy43NXYwek03LjY5IDVjMC0xLjI0MyAxLjAwNy0yLjI1IDIuMjUtMi4yNXMyLjI1IDEuMDA3IDIuMjUgMi4yNWMwIDEuMjQzLTEuMDA3IDIuMjUtMi4yNSAyLjI1djBjLTEuMjQyLTAuMDAyLTIuMjQ4LTEuMDA4LTIuMjUtMi4yNXYtMHpNNSAyMi45MmMtMS4yNDItMC4wMDEtMi4yNDgtMS4wMDctMi4yNDgtMi4yNDlzMS4wMDctMi4yNDkgMi4yNDktMi4yNDljMS4yNDIgMCAyLjI0OCAxLjAwNiAyLjI0OSAyLjI0OHYwYy0wLjAwMiAxLjI0Mi0xLjAwOCAyLjI0OC0yLjI1IDIuMjVoLTB6TTI3IDIuNzVjMS4yNDMgMCAyLjI1IDEuMDA3IDIuMjUgMi4yNXMtMS4wMDcgMi4yNS0yLjI1IDIuMjVjLTEuMjQzIDAtMi4yNS0xLjAwNy0yLjI1LTIuMjV2MGMwLjAwMi0xLjI0MiAxLjAwOC0yLjI0OCAyLjI1LTIuMjVoMHpNMTAuNjkgMTZjMC0wIDAtMCAwLTAuMDAxIDAtMi45MzIgMi4zNzctNS4zMDkgNS4zMDktNS4zMDlzNS4zMDkgMi4zNzcgNS4zMDkgNS4zMDljMCAyLjkzMi0yLjM3NyA1LjMwOS01LjMwOSA1LjMwOWgtMGMtMi45MzEtMC4wMDMtNS4zMDYtMi4zNzgtNS4zMS01LjMwOHYtMHpNMjcgMjguMjVjLTEuMjQzIDAtMi4yNS0xLjAwNy0yLjI1LTIuMjVzMS4wMDctMi4yNSAyLjI1LTIuMjVjMS4yNDMgMCAyLjI1IDEuMDA3IDIuMjUgMi4yNXYwYy0wLjAwMiAxLjI0Mi0xLjAwOCAyLjI0OC0yLjI1IDIuMjVoLTB6Ii8+JiN4YTs8L3N2Zz4=;fontColor=#4D9900;" parent="38mpf5MFzlCCdVwa-txg-188" vertex="1">
          <mxGeometry x="5" y="27" width="40" height="40" as="geometry" />
        </mxCell>
        <mxCell id="38mpf5MFzlCCdVwa-txg-192" value="FETCH" style="swimlane;fontSize=14;align=center;swimlaneFillColor=#f4f4f4;fillColor=#f5f5f5;startSize=33;container=1;pointerEvents=0;collapsible=0;recursiveResize=0;fontColor=#333333;strokeColor=#666666;" parent="1" vertex="1">
          <mxGeometry x="1351" y="2150" width="329" height="180" as="geometry" />
        </mxCell>
        <mxCell id="38mpf5MFzlCCdVwa-txg-195" value="raw time-series&lt;br&gt;&lt;font style=&quot;font-size: 8px;&quot;&gt;&quot;c632b4c5-8744-4540&amp;nbsp;&lt;span style=&quot;border-color: var(--border-color); text-align: left; background-color: initial;&quot;&gt;[...]&quot;&amp;nbsp;&lt;/span&gt;&lt;/font&gt;" style="strokeWidth=1;html=1;shape=mxgraph.flowchart.multi-document;whiteSpace=wrap;fillColor=#d5e8d4;strokeColor=#82b366;" parent="38mpf5MFzlCCdVwa-txg-192" vertex="1">
          <mxGeometry x="23" y="109" width="140" height="60" as="geometry" />
        </mxCell>
        <mxCell id="38mpf5MFzlCCdVwa-txg-377" style="rounded=0;orthogonalLoop=1;jettySize=auto;html=1;entryX=1;entryY=0.5;entryDx=0;entryDy=0;entryPerimeter=0;" parent="38mpf5MFzlCCdVwa-txg-192" source="38mpf5MFzlCCdVwa-txg-198" target="38mpf5MFzlCCdVwa-txg-195" edge="1">
          <mxGeometry relative="1" as="geometry">
            <mxPoint x="159" y="66" as="targetPoint" />
          </mxGeometry>
        </mxCell>
        <mxCell id="38mpf5MFzlCCdVwa-txg-198" value="test query" style="strokeWidth=1;html=1;shape=mxgraph.flowchart.direct_data;whiteSpace=wrap;fillColor=#fff2cc;strokeColor=#d6b656;" parent="38mpf5MFzlCCdVwa-txg-192" vertex="1">
          <mxGeometry x="203" y="124" width="100" height="30" as="geometry" />
        </mxCell>
        <mxCell id="TfzQ6guSoEpV8Mq62_4b-14" style="rounded=0;orthogonalLoop=1;jettySize=auto;html=1;" parent="38mpf5MFzlCCdVwa-txg-192" source="TfzQ6guSoEpV8Mq62_4b-9" target="TfzQ6guSoEpV8Mq62_4b-11" edge="1">
          <mxGeometry relative="1" as="geometry" />
        </mxCell>
        <mxCell id="TfzQ6guSoEpV8Mq62_4b-9" value="meta query" style="strokeWidth=1;html=1;shape=mxgraph.flowchart.direct_data;whiteSpace=wrap;fillColor=#fff2cc;strokeColor=#d6b656;" parent="38mpf5MFzlCCdVwa-txg-192" vertex="1">
          <mxGeometry x="203" y="60" width="100" height="30" as="geometry" />
        </mxCell>
        <mxCell id="TfzQ6guSoEpV8Mq62_4b-11" value="&lt;font style=&quot;font-size: 8px;&quot;&gt;uuid1=&quot;c632b4c5-8744-4540&amp;nbsp;&lt;span style=&quot;background-color: initial;&quot;&gt;[...]&quot;&amp;nbsp;&lt;/span&gt;&lt;br&gt;uuid2=&quot;7c54d613-bec5-4a5d&amp;nbsp;&lt;span style=&quot;background-color: initial;&quot;&gt;[...]&quot;&amp;nbsp;&lt;/span&gt;&lt;br&gt;&lt;/font&gt;" style="shape=note2;boundedLbl=1;whiteSpace=wrap;html=1;size=12;verticalAlign=top;align=left;spacingLeft=5;fillColor=#d5e8d4;strokeColor=#82b366;" parent="38mpf5MFzlCCdVwa-txg-192" vertex="1">
          <mxGeometry x="23" y="50" width="140" height="50" as="geometry" />
        </mxCell>
        <mxCell id="TfzQ6guSoEpV8Mq62_4b-12" value="&lt;i&gt;timeseries references&lt;/i&gt;" style="resizeWidth=1;part=1;strokeColor=none;fillColor=none;align=left;spacingLeft=5;html=1;whiteSpace=wrap;" parent="TfzQ6guSoEpV8Mq62_4b-11" vertex="1">
          <mxGeometry width="140.00000000000003" height="25" relative="1" as="geometry" />
        </mxCell>
        <mxCell id="38mpf5MFzlCCdVwa-txg-199" value="2" style="rounded=1;whiteSpace=wrap;html=1;fillColor=#007CBD;strokeColor=none;fontColor=#FFFFFF;fontStyle=1;fontSize=22;labelBackgroundColor=none;" parent="1" vertex="1">
          <mxGeometry x="1300" y="2150" width="40" height="38" as="geometry" />
        </mxCell>
        <mxCell id="38mpf5MFzlCCdVwa-txg-200" value="CLEAN" style="swimlane;fontSize=14;align=center;swimlaneFillColor=#f4f4f4;fillColor=#f5f5f5;startSize=33;container=1;pointerEvents=0;collapsible=0;recursiveResize=0;fontColor=#333333;strokeColor=#666666;" parent="1" vertex="1">
          <mxGeometry x="1351" y="2349" width="329" height="130" as="geometry" />
        </mxCell>
        <mxCell id="38mpf5MFzlCCdVwa-txg-202" value="clean time-series&lt;br style=&quot;border-color: var(--border-color);&quot;&gt;&lt;font style=&quot;border-color: var(--border-color); font-size: 8px;&quot;&gt;&quot;c632b4c5-8744-4540&amp;nbsp;[...]&quot;&amp;nbsp;&lt;/font&gt;" style="strokeWidth=1;html=1;shape=mxgraph.flowchart.multi-document;whiteSpace=wrap;fillColor=#d5e8d4;strokeColor=#82b366;" parent="38mpf5MFzlCCdVwa-txg-200" vertex="1">
          <mxGeometry x="29" y="47" width="128" height="60" as="geometry" />
        </mxCell>
        <mxCell id="38mpf5MFzlCCdVwa-txg-378" style="edgeStyle=orthogonalEdgeStyle;rounded=0;orthogonalLoop=1;jettySize=auto;html=1;entryX=1;entryY=0.5;entryDx=0;entryDy=0;entryPerimeter=0;" parent="38mpf5MFzlCCdVwa-txg-200" source="38mpf5MFzlCCdVwa-txg-203" target="38mpf5MFzlCCdVwa-txg-202" edge="1">
          <mxGeometry relative="1" as="geometry" />
        </mxCell>
        <mxCell id="38mpf5MFzlCCdVwa-txg-203" value="&lt;font style=&quot;font-size: 8px;&quot;&gt;Library of functions defining cleaning algorithms&lt;/font&gt;" style="shape=note2;boundedLbl=1;whiteSpace=wrap;html=1;size=25;verticalAlign=top;align=left;spacingLeft=5;fillColor=#fff2cc;strokeColor=#d6b656;" parent="38mpf5MFzlCCdVwa-txg-200" vertex="1">
          <mxGeometry x="198" y="42" width="112" height="70" as="geometry" />
        </mxCell>
        <mxCell id="38mpf5MFzlCCdVwa-txg-204" value="&lt;i&gt;Collection&lt;/i&gt;" style="resizeWidth=1;part=1;strokeColor=none;fillColor=none;align=left;spacingLeft=5;html=1;whiteSpace=wrap;" parent="38mpf5MFzlCCdVwa-txg-203" vertex="1">
          <mxGeometry width="112.00000000000001" height="25" relative="1" as="geometry" />
        </mxCell>
        <mxCell id="38mpf5MFzlCCdVwa-txg-205" value="3" style="rounded=1;whiteSpace=wrap;html=1;fillColor=#007CBD;strokeColor=none;fontColor=#FFFFFF;fontStyle=1;fontSize=22;labelBackgroundColor=none;" parent="1" vertex="1">
          <mxGeometry x="1300" y="2349" width="40" height="38" as="geometry" />
        </mxCell>
        <mxCell id="38mpf5MFzlCCdVwa-txg-207" value="ANALYZE" style="swimlane;fontSize=14;align=center;swimlaneFillColor=#f4f4f4;fillColor=#f5f5f5;startSize=33;container=1;pointerEvents=0;collapsible=0;recursiveResize=0;fontColor=#333333;strokeColor=#666666;" parent="1" vertex="1">
          <mxGeometry x="1347.57" y="2560" width="332.43" height="150" as="geometry" />
        </mxCell>
        <mxCell id="38mpf5MFzlCCdVwa-txg-209" value="test" style="html=1;dashed=0;whiteSpace=wrap;strokeWidth=1;" parent="38mpf5MFzlCCdVwa-txg-207" vertex="1">
          <mxGeometry x="32.430000000000014" y="110" width="100" height="30" as="geometry" />
        </mxCell>
        <mxCell id="TfzQ6guSoEpV8Mq62_4b-25" style="edgeStyle=orthogonalEdgeStyle;rounded=0;orthogonalLoop=1;jettySize=auto;html=1;entryX=0.835;entryY=0.988;entryDx=0;entryDy=0;entryPerimeter=0;endArrow=none;endFill=0;startArrow=classic;startFill=1;" parent="38mpf5MFzlCCdVwa-txg-207" source="38mpf5MFzlCCdVwa-txg-210" target="TfzQ6guSoEpV8Mq62_4b-19" edge="1">
          <mxGeometry relative="1" as="geometry" />
        </mxCell>
        <mxCell id="38mpf5MFzlCCdVwa-txg-210" value="train" style="html=1;dashed=0;whiteSpace=wrap;strokeWidth=1;" parent="38mpf5MFzlCCdVwa-txg-207" vertex="1">
          <mxGeometry x="200" y="110" width="100" height="30" as="geometry" />
        </mxCell>
        <mxCell id="TfzQ6guSoEpV8Mq62_4b-26" style="rounded=0;orthogonalLoop=1;jettySize=auto;html=1;entryX=0.5;entryY=0;entryDx=0;entryDy=0;exitX=0.185;exitY=1.025;exitDx=0;exitDy=0;exitPerimeter=0;" parent="38mpf5MFzlCCdVwa-txg-207" source="TfzQ6guSoEpV8Mq62_4b-19" target="38mpf5MFzlCCdVwa-txg-209" edge="1">
          <mxGeometry relative="1" as="geometry" />
        </mxCell>
        <mxCell id="TfzQ6guSoEpV8Mq62_4b-19" value="&lt;font style=&quot;font-size: 8px;&quot;&gt;Library of functions that can be applied to perform the app logic&lt;/font&gt;" style="shape=note2;boundedLbl=1;whiteSpace=wrap;html=1;size=25;verticalAlign=top;align=left;spacingLeft=5;fillColor=#fff2cc;strokeColor=#d6b656;" parent="38mpf5MFzlCCdVwa-txg-207" vertex="1">
          <mxGeometry x="32.43" y="40" width="267.57" height="50" as="geometry" />
        </mxCell>
        <mxCell id="TfzQ6guSoEpV8Mq62_4b-20" value="Collection of algorithms" style="resizeWidth=1;part=1;strokeColor=none;fillColor=none;align=left;spacingLeft=5;html=1;whiteSpace=wrap;" parent="TfzQ6guSoEpV8Mq62_4b-19" vertex="1">
          <mxGeometry width="267.57" height="25" relative="1" as="geometry" />
        </mxCell>
        <mxCell id="38mpf5MFzlCCdVwa-txg-214" value="4" style="rounded=1;whiteSpace=wrap;html=1;fillColor=#007CBD;strokeColor=none;fontColor=#FFFFFF;fontStyle=1;fontSize=22;labelBackgroundColor=none;" parent="1" vertex="1">
          <mxGeometry x="1299.7" y="2560" width="40" height="38" as="geometry" />
        </mxCell>
        <mxCell id="38mpf5MFzlCCdVwa-txg-220" style="rounded=0;orthogonalLoop=1;jettySize=auto;html=1;entryX=0;entryY=0.5;entryDx=0;entryDy=0;" parent="1" source="38mpf5MFzlCCdVwa-txg-221" target="38mpf5MFzlCCdVwa-txg-222" edge="1">
          <mxGeometry relative="1" as="geometry" />
        </mxCell>
        <mxCell id="38mpf5MFzlCCdVwa-txg-273" value="No" style="edgeLabel;html=1;align=center;verticalAlign=middle;resizable=0;points=[];" parent="38mpf5MFzlCCdVwa-txg-220" vertex="1" connectable="0">
          <mxGeometry x="-0.546" y="-2" relative="1" as="geometry">
            <mxPoint x="14" y="-12" as="offset" />
          </mxGeometry>
        </mxCell>
        <mxCell id="38mpf5MFzlCCdVwa-txg-221" value="Valid?" style="shape=rhombus;html=1;dashed=0;whiteSpace=wrap;perimeter=rhombusPerimeter;strokeWidth=1;fillColor=#e1d5e7;strokeColor=#9673a6;" parent="1" vertex="1">
          <mxGeometry x="1452" y="2090" width="85" height="30" as="geometry" />
        </mxCell>
        <mxCell id="mW661Wxb_hXh5_wubIA_-2" style="rounded=0;orthogonalLoop=1;jettySize=auto;html=1;dashed=1;entryX=0.031;entryY=0.29;entryDx=0;entryDy=0;entryPerimeter=0;" parent="1" source="38mpf5MFzlCCdVwa-txg-222" target="38mpf5MFzlCCdVwa-txg-237" edge="1">
          <mxGeometry relative="1" as="geometry">
            <mxPoint x="1720" y="2105" as="targetPoint" />
          </mxGeometry>
        </mxCell>
        <mxCell id="38mpf5MFzlCCdVwa-txg-222" value="fix ttl&lt;br&gt;or &lt;br&gt;stop execution" style="html=1;dashed=0;whiteSpace=wrap;strokeWidth=1;fillColor=#f5f5f5;fontColor=#333333;strokeColor=#666666;" parent="1" vertex="1">
          <mxGeometry x="1590" y="2077.5" width="90" height="55" as="geometry" />
        </mxCell>
        <mxCell id="38mpf5MFzlCCdVwa-txg-223" style="edgeStyle=orthogonalEdgeStyle;rounded=0;orthogonalLoop=1;jettySize=auto;html=1;entryX=0.5;entryY=0;entryDx=0;entryDy=0;" parent="1" source="38mpf5MFzlCCdVwa-txg-202" target="38mpf5MFzlCCdVwa-txg-259" edge="1">
          <mxGeometry relative="1" as="geometry">
            <mxPoint x="1435" y="2799" as="targetPoint" />
          </mxGeometry>
        </mxCell>
        <mxCell id="38mpf5MFzlCCdVwa-txg-225" style="edgeStyle=orthogonalEdgeStyle;rounded=0;orthogonalLoop=1;jettySize=auto;html=1;entryX=0.5;entryY=0;entryDx=0;entryDy=0;" parent="1" source="38mpf5MFzlCCdVwa-txg-226" target="38mpf5MFzlCCdVwa-txg-183" edge="1">
          <mxGeometry relative="1" as="geometry" />
        </mxCell>
        <mxCell id="38mpf5MFzlCCdVwa-txg-226" value="App config" style="shape=tape;whiteSpace=wrap;html=1;strokeWidth=1;size=0.19;fillColor=#fff2cc;strokeColor=#d6b656;" parent="1" vertex="1">
          <mxGeometry x="1465.51" y="1850" width="100" height="45" as="geometry" />
        </mxCell>
        <mxCell id="38mpf5MFzlCCdVwa-txg-228" style="edgeStyle=orthogonalEdgeStyle;rounded=0;orthogonalLoop=1;jettySize=auto;html=1;entryX=1;entryY=0.5;entryDx=0;entryDy=0;entryPerimeter=0;" parent="1" source="38mpf5MFzlCCdVwa-txg-229" target="38mpf5MFzlCCdVwa-txg-180" edge="1">
          <mxGeometry relative="1" as="geometry" />
        </mxCell>
        <mxCell id="38mpf5MFzlCCdVwa-txg-229" value="raw&lt;br&gt;timeseries" style="strokeWidth=1;html=1;shape=mxgraph.flowchart.multi-document;whiteSpace=wrap;fillColor=#d5e8d4;strokeColor=#82b366;" parent="1" vertex="1">
          <mxGeometry x="2000.84" y="2067.5" width="128" height="60" as="geometry" />
        </mxCell>
        <mxCell id="38mpf5MFzlCCdVwa-txg-230" value="" style="shape=note2;boundedLbl=1;whiteSpace=wrap;html=1;size=12;verticalAlign=top;align=left;spacingLeft=5;fillColor=#d5e8d4;strokeColor=#82b366;" parent="1" vertex="1">
          <mxGeometry x="2039.8400000000001" y="1940" width="50" height="70" as="geometry" />
        </mxCell>
        <mxCell id="38mpf5MFzlCCdVwa-txg-231" value="ttl" style="resizeWidth=1;part=1;strokeColor=none;fillColor=none;align=left;spacingLeft=5;html=1;whiteSpace=wrap;" parent="38mpf5MFzlCCdVwa-txg-230" vertex="1">
          <mxGeometry width="50.00000000000001" height="25" relative="1" as="geometry" />
        </mxCell>
        <mxCell id="38mpf5MFzlCCdVwa-txg-232" value="" style="shape=image;verticalLabelPosition=bottom;labelBackgroundColor=default;verticalAlign=top;aspect=fixed;imageAspect=0;image=data:image/svg+xml,PHN2ZyB4bWxucz0iaHR0cDovL3d3dy53My5vcmcvMjAwMC9zdmciIHZlcnNpb249IjEuMSIgdmlld0JveD0iMCAwIDMyIDMyIiBoZWlnaHQ9IjgwMHB4IiB3aWR0aD0iODAwcHgiIGZpbGw9IiMwMDAwMDAiPiYjeGE7PHRpdGxlPm5ldHdvcms8L3RpdGxlPiYjeGE7PHBhdGggZD0iTTI3IDIyLjI1Yy0wLjgzMSAwLjAwMi0xLjU5OCAwLjI3Ny0yLjIxNSAwLjczOWwwLjAxMC0wLjAwNy0zLjI5OS0yLjk5OGMwLjgyLTEuMDk3IDEuMzEzLTIuNDc5IDEuMzEzLTMuOTc3IDAtMS42MTQtMC41NzItMy4wOTQtMS41MjUtNC4yNDlsMC4wMDkgMC4wMTEgMy42NDQtMy42NDNjMC41ODQgMC4zOTEgMS4zMDIgMC42MjQgMi4wNzQgMC42MjQgMi4wNzcgMCAzLjc2LTEuNjgzIDMuNzYtMy43NnMtMS42ODMtMy43Ni0zLjc2LTMuNzZjLTIuMDc3IDAtMy43NiAxLjY4My0zLjc2IDMuNzYgMCAwLjc3MyAwLjIzMyAxLjQ5MSAwLjYzMyAyLjA4OGwtMC4wMDktMC4wMTQtMy42NDMgMy42NDNjLTEuMTQ1LTAuOTQ0LTIuNjI3LTEuNTE3LTQuMjQ0LTEuNTE3LTAuOTM3IDAtMS44MjggMC4xOTItMi42MzggMC41NGwwLjA0NC0wLjAxNy0xLjAzMi0xLjg3NGMwLjc5MS0wLjY4OCAxLjI4OC0xLjY5NSAxLjI4OC0yLjgxOSAwLTIuMDYwLTEuNjctMy43MjktMy43MjktMy43MjlzLTMuNzI5IDEuNjctMy43MjkgMy43MjljMCAyLjA2MCAxLjY3IDMuNzI5IDMuNzI5IDMuNzI5IDAuMDA3IDAgMC4wMTUtMCAwLjAyMi0waC0wLjAwMWMwLjM5OC0wLjAwNiAwLjc3OC0wLjA3MyAxLjEzMy0wLjE5NGwtMC4wMjYgMC4wMDggMS4wMzcgMS44ODNjLTEuNzU3IDEuMjQzLTIuODkgMy4yNjUtMi44OTQgNS41NTN2MC4wMDFjMC4wMTAgMC42OTcgMC4xMjUgMS4zNjQgMC4zMyAxLjk5bC0wLjAxMy0wLjA0Ny0xLjQyMyAwLjYwM2MtMC42ODEtMC45NzEtMS43OTUtMS41OTctMy4wNTYtMS41OTctMi4wNTYgMC0zLjcyMiAxLjY2Ni0zLjcyMiAzLjcyMnMxLjY2NiAzLjcyMiAzLjcyMiAzLjcyMmMyLjA1NiAwIDMuNzIyLTEuNjY2IDMuNzIyLTMuNzIyIDAtMC4yNjQtMC4wMjctMC41MjEtMC4wNzktMC43NjlsMC4wMDQgMC4wMjQgMS40MTktMC42MDJjMS4xNjcgMi4wOTMgMy4zNjcgMy40ODUgNS44OTIgMy40ODUgMS43MyAwIDMuMzA4LTAuNjU0IDQuNS0xLjcyOGwtMC4wMDYgMC4wMDUgMy4zMDkgMy4wMDdjLTAuMzM1IDAuNTQ0LTAuNTM1IDEuMjAxLTAuNTM5IDEuOTA2djAuMDAxYzAgMi4wNzEgMS42NzkgMy43NSAzLjc1IDMuNzVzMy43NS0xLjY3OSAzLjc1LTMuNzVjMC0yLjA3MS0xLjY3OS0zLjc1LTMuNzUtMy43NXYwek03LjY5IDVjMC0xLjI0MyAxLjAwNy0yLjI1IDIuMjUtMi4yNXMyLjI1IDEuMDA3IDIuMjUgMi4yNWMwIDEuMjQzLTEuMDA3IDIuMjUtMi4yNSAyLjI1djBjLTEuMjQyLTAuMDAyLTIuMjQ4LTEuMDA4LTIuMjUtMi4yNXYtMHpNNSAyMi45MmMtMS4yNDItMC4wMDEtMi4yNDgtMS4wMDctMi4yNDgtMi4yNDlzMS4wMDctMi4yNDkgMi4yNDktMi4yNDljMS4yNDIgMCAyLjI0OCAxLjAwNiAyLjI0OSAyLjI0OHYwYy0wLjAwMiAxLjI0Mi0xLjAwOCAyLjI0OC0yLjI1IDIuMjVoLTB6TTI3IDIuNzVjMS4yNDMgMCAyLjI1IDEuMDA3IDIuMjUgMi4yNXMtMS4wMDcgMi4yNS0yLjI1IDIuMjVjLTEuMjQzIDAtMi4yNS0xLjAwNy0yLjI1LTIuMjV2MGMwLjAwMi0xLjI0MiAxLjAwOC0yLjI0OCAyLjI1LTIuMjVoMHpNMTAuNjkgMTZjMC0wIDAtMCAwLTAuMDAxIDAtMi45MzIgMi4zNzctNS4zMDkgNS4zMDktNS4zMDlzNS4zMDkgMi4zNzcgNS4zMDkgNS4zMDljMCAyLjkzMi0yLjM3NyA1LjMwOS01LjMwOSA1LjMwOWgtMGMtMi45MzEtMC4wMDMtNS4zMDYtMi4zNzgtNS4zMS01LjMwOHYtMHpNMjcgMjguMjVjLTEuMjQzIDAtMi4yNS0xLjAwNy0yLjI1LTIuMjVzMS4wMDctMi4yNSAyLjI1LTIuMjVjMS4yNDMgMCAyLjI1IDEuMDA3IDIuMjUgMi4yNXYwYy0wLjAwMiAxLjI0Mi0xLjAwOCAyLjI0OC0yLjI1IDIuMjVoLTB6Ii8+JiN4YTs8L3N2Zz4=;" parent="38mpf5MFzlCCdVwa-txg-230" vertex="1">
          <mxGeometry x="5" y="27" width="40" height="40" as="geometry" />
        </mxCell>
        <mxCell id="38mpf5MFzlCCdVwa-txg-233" style="edgeStyle=orthogonalEdgeStyle;rounded=0;orthogonalLoop=1;jettySize=auto;html=1;entryX=1;entryY=0.5;entryDx=0;entryDy=0;entryPerimeter=0;exitX=0.532;exitY=1.007;exitDx=0;exitDy=0;exitPerimeter=0;" parent="1" source="38mpf5MFzlCCdVwa-txg-235" target="38mpf5MFzlCCdVwa-txg-229" edge="1">
          <mxGeometry relative="1" as="geometry" />
        </mxCell>
        <mxCell id="38mpf5MFzlCCdVwa-txg-234" style="edgeStyle=orthogonalEdgeStyle;rounded=0;orthogonalLoop=1;jettySize=auto;html=1;entryX=0;entryY=0;entryDx=50;entryDy=41;entryPerimeter=0;exitX=0.45;exitY=0.01;exitDx=0;exitDy=0;exitPerimeter=0;" parent="1" source="38mpf5MFzlCCdVwa-txg-235" target="38mpf5MFzlCCdVwa-txg-230" edge="1">
          <mxGeometry relative="1" as="geometry" />
        </mxCell>
        <mxCell id="38mpf5MFzlCCdVwa-txg-235" value="" style="image;points=[];aspect=fixed;html=1;align=center;shadow=0;dashed=0;image=img/lib/allied_telesis/buildings/Large_Building.svg;" parent="1" vertex="1">
          <mxGeometry x="2151.7599999999998" y="2001.5" width="75" height="75" as="geometry" />
        </mxCell>
        <mxCell id="38mpf5MFzlCCdVwa-txg-236" style="edgeStyle=orthogonalEdgeStyle;rounded=0;orthogonalLoop=1;jettySize=auto;html=1;entryX=1;entryY=0.5;entryDx=0;entryDy=0;entryPerimeter=0;" parent="1" source="38mpf5MFzlCCdVwa-txg-232" target="38mpf5MFzlCCdVwa-txg-178" edge="1">
          <mxGeometry relative="1" as="geometry" />
        </mxCell>
        <mxCell id="38mpf5MFzlCCdVwa-txg-237" value="DB&lt;br&gt;interface&lt;br&gt;API&lt;br&gt;drivers" style="html=1;dashed=0;whiteSpace=wrap;strokeWidth=1;fillColor=#f8cecc;strokeColor=#b85450;" parent="1" vertex="1">
          <mxGeometry x="1725" y="1920" width="65" height="640" as="geometry" />
        </mxCell>
        <mxCell id="38mpf5MFzlCCdVwa-txg-246" style="edgeStyle=orthogonalEdgeStyle;rounded=0;orthogonalLoop=1;jettySize=auto;html=1;entryX=0.5;entryY=0;entryDx=0;entryDy=0;entryPerimeter=0;" parent="1" source="38mpf5MFzlCCdVwa-txg-195" target="38mpf5MFzlCCdVwa-txg-202" edge="1">
          <mxGeometry relative="1" as="geometry" />
        </mxCell>
        <mxCell id="38mpf5MFzlCCdVwa-txg-261" style="edgeStyle=orthogonalEdgeStyle;rounded=0;orthogonalLoop=1;jettySize=auto;html=1;" parent="1" source="38mpf5MFzlCCdVwa-txg-259" edge="1">
          <mxGeometry relative="1" as="geometry">
            <mxPoint x="1444" y="2600" as="targetPoint" />
          </mxGeometry>
        </mxCell>
        <mxCell id="38mpf5MFzlCCdVwa-txg-267" value="No" style="edgeLabel;html=1;align=center;verticalAlign=middle;resizable=0;points=[];" parent="38mpf5MFzlCCdVwa-txg-261" vertex="1" connectable="0">
          <mxGeometry x="-0.4909" y="2" relative="1" as="geometry">
            <mxPoint x="-16" y="-31" as="offset" />
          </mxGeometry>
        </mxCell>
        <mxCell id="38mpf5MFzlCCdVwa-txg-262" style="edgeStyle=orthogonalEdgeStyle;rounded=0;orthogonalLoop=1;jettySize=auto;html=1;" parent="1" source="38mpf5MFzlCCdVwa-txg-259" target="38mpf5MFzlCCdVwa-txg-249" edge="1">
          <mxGeometry relative="1" as="geometry" />
        </mxCell>
        <mxCell id="38mpf5MFzlCCdVwa-txg-266" value="Yes" style="edgeLabel;html=1;align=center;verticalAlign=middle;resizable=0;points=[];" parent="38mpf5MFzlCCdVwa-txg-262" vertex="1" connectable="0">
          <mxGeometry x="-0.1059" y="-3" relative="1" as="geometry">
            <mxPoint y="-18" as="offset" />
          </mxGeometry>
        </mxCell>
        <mxCell id="38mpf5MFzlCCdVwa-txg-259" value="train mode?" style="shape=rhombus;html=1;dashed=0;whiteSpace=wrap;perimeter=rhombusPerimeter;strokeWidth=1;fillColor=#e1d5e7;strokeColor=#9673a6;" parent="1" vertex="1">
          <mxGeometry x="1385.75" y="2504" width="116.5" height="40" as="geometry" />
        </mxCell>
        <mxCell id="38mpf5MFzlCCdVwa-txg-369" style="rounded=0;orthogonalLoop=1;jettySize=auto;html=1;entryX=0.007;entryY=0.946;entryDx=0;entryDy=0;entryPerimeter=0;endArrow=none;endFill=0;startArrow=classic;startFill=1;" parent="1" source="38mpf5MFzlCCdVwa-txg-249" target="38mpf5MFzlCCdVwa-txg-237" edge="1">
          <mxGeometry relative="1" as="geometry" />
        </mxCell>
        <mxCell id="38mpf5MFzlCCdVwa-txg-249" value="train query" style="strokeWidth=1;html=1;shape=mxgraph.flowchart.direct_data;whiteSpace=wrap;fillColor=#fff2cc;strokeColor=#d6b656;" parent="1" vertex="1">
          <mxGeometry x="1554" y="2509" width="100" height="30" as="geometry" />
        </mxCell>
        <mxCell id="38mpf5MFzlCCdVwa-txg-251" style="rounded=0;orthogonalLoop=1;jettySize=auto;html=1;entryX=0.839;entryY=0.05;entryDx=0;entryDy=0;entryPerimeter=0;" parent="1" source="38mpf5MFzlCCdVwa-txg-249" target="TfzQ6guSoEpV8Mq62_4b-20" edge="1">
          <mxGeometry relative="1" as="geometry" />
        </mxCell>
        <mxCell id="38mpf5MFzlCCdVwa-txg-274" value="raw results" style="shape=tape;whiteSpace=wrap;html=1;strokeWidth=1;size=0.19;fillColor=#fff2cc;strokeColor=#d6b656;" parent="1" vertex="1">
          <mxGeometry x="1380" y="2750" width="100" height="45" as="geometry" />
        </mxCell>
        <mxCell id="38mpf5MFzlCCdVwa-txg-272" style="rounded=0;orthogonalLoop=1;jettySize=auto;html=1;entryX=0.506;entryY=0.077;entryDx=0;entryDy=0;entryPerimeter=0;" parent="1" source="38mpf5MFzlCCdVwa-txg-209" target="38mpf5MFzlCCdVwa-txg-274" edge="1">
          <mxGeometry relative="1" as="geometry">
            <mxPoint x="1444" y="2690" as="targetPoint" />
          </mxGeometry>
        </mxCell>
        <mxCell id="38mpf5MFzlCCdVwa-txg-320" value="result" style="shape=tape;whiteSpace=wrap;html=1;strokeWidth=1;size=0.19;fillColor=#fff2cc;strokeColor=#d6b656;" parent="1" vertex="1">
          <mxGeometry x="1143.29" y="2379" width="80" height="45" as="geometry" />
        </mxCell>
        <mxCell id="38mpf5MFzlCCdVwa-txg-321" value="result" style="shape=tape;whiteSpace=wrap;html=1;strokeWidth=1;size=0.19;fillColor=#fff2cc;strokeColor=#d6b656;" parent="1" vertex="1">
          <mxGeometry x="1033.29" y="2379" width="80" height="45" as="geometry" />
        </mxCell>
        <mxCell id="38mpf5MFzlCCdVwa-txg-322" value="result" style="shape=tape;whiteSpace=wrap;html=1;strokeWidth=1;size=0.19;fillColor=#fff2cc;strokeColor=#d6b656;" parent="1" vertex="1">
          <mxGeometry x="928.29" y="2379" width="80" height="45" as="geometry" />
        </mxCell>
        <mxCell id="TfzQ6guSoEpV8Mq62_4b-6" style="edgeStyle=orthogonalEdgeStyle;rounded=0;orthogonalLoop=1;jettySize=auto;html=1;entryX=0.5;entryY=0;entryDx=0;entryDy=0;" parent="1" source="38mpf5MFzlCCdVwa-txg-323" target="qwU3JjwP_E-wawoAio-z-51" edge="1">
          <mxGeometry relative="1" as="geometry" />
        </mxCell>
        <mxCell id="38mpf5MFzlCCdVwa-txg-323" value="APP 1" style="swimlane;fontSize=14;align=center;swimlaneFillColor=#f4f4f4;fillColor=#f5f5f5;startSize=33;container=1;pointerEvents=0;collapsible=0;recursiveResize=0;fontColor=#333333;strokeColor=#666666;" parent="1" vertex="1">
          <mxGeometry x="813.29" y="2289" width="90" height="71" as="geometry" />
        </mxCell>
        <mxCell id="38mpf5MFzlCCdVwa-txg-324" value="logic" style="text;html=1;align=center;verticalAlign=middle;resizable=0;points=[];autosize=1;strokeColor=none;fillColor=none;" parent="38mpf5MFzlCCdVwa-txg-323" vertex="1">
          <mxGeometry x="20" y="38" width="50" height="30" as="geometry" />
        </mxCell>
        <mxCell id="38mpf5MFzlCCdVwa-txg-330" value="" style="endArrow=none;dashed=1;html=1;dashPattern=1 3;strokeWidth=2;rounded=0;exitX=1;exitY=0;exitDx=0;exitDy=0;entryX=0;entryY=0;entryDx=0;entryDy=0;" parent="1" source="qwU3JjwP_E-wawoAio-z-16" target="38mpf5MFzlCCdVwa-txg-299" edge="1">
          <mxGeometry width="50" height="50" relative="1" as="geometry">
            <mxPoint x="1670" y="2370" as="sourcePoint" />
            <mxPoint x="1720" y="2320" as="targetPoint" />
          </mxGeometry>
        </mxCell>
        <mxCell id="38mpf5MFzlCCdVwa-txg-327" value="result" style="shape=tape;whiteSpace=wrap;html=1;strokeWidth=1;size=0.19;fillColor=#fff2cc;strokeColor=#d6b656;" parent="1" vertex="1">
          <mxGeometry x="818.29" y="2379" width="80" height="45" as="geometry" />
        </mxCell>
        <mxCell id="38mpf5MFzlCCdVwa-txg-332" value="" style="endArrow=none;dashed=1;html=1;dashPattern=1 3;strokeWidth=2;rounded=0;exitX=1;exitY=1;exitDx=0;exitDy=0;entryX=0;entryY=1;entryDx=0;entryDy=0;" parent="1" source="qwU3JjwP_E-wawoAio-z-16" target="38mpf5MFzlCCdVwa-txg-299" edge="1">
          <mxGeometry width="50" height="50" relative="1" as="geometry">
            <mxPoint x="1165" y="2164" as="sourcePoint" />
            <mxPoint x="1330" y="1930" as="targetPoint" />
          </mxGeometry>
        </mxCell>
        <mxCell id="38mpf5MFzlCCdVwa-txg-333" value="" style="html=1;whiteSpace=wrap;" parent="1" vertex="1">
          <mxGeometry x="1992.58" y="1930" width="260" height="240" as="geometry" />
        </mxCell>
        <mxCell id="38mpf5MFzlCCdVwa-txg-334" value="&lt;br&gt;triples DB" style="strokeWidth=1;html=1;shape=mxgraph.flowchart.database;whiteSpace=wrap;fillColor=#f8cecc;strokeColor=#b85450;" parent="1" vertex="1">
          <mxGeometry x="1840.84" y="1960.5" width="126.03" height="75" as="geometry" />
        </mxCell>
        <mxCell id="38mpf5MFzlCCdVwa-txg-335" value="&lt;br&gt;timeseries DB" style="strokeWidth=1;html=1;shape=mxgraph.flowchart.database;whiteSpace=wrap;fillColor=#f8cecc;strokeColor=#b85450;" parent="1" vertex="1">
          <mxGeometry x="1840.84" y="2070" width="126.03" height="75" as="geometry" />
        </mxCell>
        <mxCell id="38mpf5MFzlCCdVwa-txg-336" style="edgeStyle=orthogonalEdgeStyle;rounded=0;orthogonalLoop=1;jettySize=auto;html=1;entryX=1;entryY=0.5;entryDx=0;entryDy=0;entryPerimeter=0;" parent="1" source="38mpf5MFzlCCdVwa-txg-337" target="38mpf5MFzlCCdVwa-txg-335" edge="1">
          <mxGeometry relative="1" as="geometry" />
        </mxCell>
        <mxCell id="38mpf5MFzlCCdVwa-txg-337" value="raw&lt;br&gt;timeseries" style="strokeWidth=1;html=1;shape=mxgraph.flowchart.multi-document;whiteSpace=wrap;fillColor=#d5e8d4;strokeColor=#82b366;" parent="1" vertex="1">
          <mxGeometry x="2010.84" y="2077.5" width="128" height="60" as="geometry" />
        </mxCell>
        <mxCell id="38mpf5MFzlCCdVwa-txg-338" value="" style="shape=note2;boundedLbl=1;whiteSpace=wrap;html=1;size=12;verticalAlign=top;align=left;spacingLeft=5;fillColor=#d5e8d4;strokeColor=#82b366;" parent="1" vertex="1">
          <mxGeometry x="2049.84" y="1950" width="50" height="70" as="geometry" />
        </mxCell>
        <mxCell id="38mpf5MFzlCCdVwa-txg-339" value="ttl" style="resizeWidth=1;part=1;strokeColor=none;fillColor=none;align=left;spacingLeft=5;html=1;whiteSpace=wrap;" parent="38mpf5MFzlCCdVwa-txg-338" vertex="1">
          <mxGeometry width="50.00000000000001" height="25" relative="1" as="geometry" />
        </mxCell>
        <mxCell id="38mpf5MFzlCCdVwa-txg-340" value="" style="shape=image;verticalLabelPosition=bottom;labelBackgroundColor=default;verticalAlign=top;aspect=fixed;imageAspect=0;image=data:image/svg+xml,PHN2ZyB4bWxucz0iaHR0cDovL3d3dy53My5vcmcvMjAwMC9zdmciIHZlcnNpb249IjEuMSIgdmlld0JveD0iMCAwIDMyIDMyIiBoZWlnaHQ9IjgwMHB4IiB3aWR0aD0iODAwcHgiIGZpbGw9IiMwMDAwMDAiPiYjeGE7PHRpdGxlPm5ldHdvcms8L3RpdGxlPiYjeGE7PHBhdGggZD0iTTI3IDIyLjI1Yy0wLjgzMSAwLjAwMi0xLjU5OCAwLjI3Ny0yLjIxNSAwLjczOWwwLjAxMC0wLjAwNy0zLjI5OS0yLjk5OGMwLjgyLTEuMDk3IDEuMzEzLTIuNDc5IDEuMzEzLTMuOTc3IDAtMS42MTQtMC41NzItMy4wOTQtMS41MjUtNC4yNDlsMC4wMDkgMC4wMTEgMy42NDQtMy42NDNjMC41ODQgMC4zOTEgMS4zMDIgMC42MjQgMi4wNzQgMC42MjQgMi4wNzcgMCAzLjc2LTEuNjgzIDMuNzYtMy43NnMtMS42ODMtMy43Ni0zLjc2LTMuNzZjLTIuMDc3IDAtMy43NiAxLjY4My0zLjc2IDMuNzYgMCAwLjc3MyAwLjIzMyAxLjQ5MSAwLjYzMyAyLjA4OGwtMC4wMDktMC4wMTQtMy42NDMgMy42NDNjLTEuMTQ1LTAuOTQ0LTIuNjI3LTEuNTE3LTQuMjQ0LTEuNTE3LTAuOTM3IDAtMS44MjggMC4xOTItMi42MzggMC41NGwwLjA0NC0wLjAxNy0xLjAzMi0xLjg3NGMwLjc5MS0wLjY4OCAxLjI4OC0xLjY5NSAxLjI4OC0yLjgxOSAwLTIuMDYwLTEuNjctMy43MjktMy43MjktMy43MjlzLTMuNzI5IDEuNjctMy43MjkgMy43MjljMCAyLjA2MCAxLjY3IDMuNzI5IDMuNzI5IDMuNzI5IDAuMDA3IDAgMC4wMTUtMCAwLjAyMi0waC0wLjAwMWMwLjM5OC0wLjAwNiAwLjc3OC0wLjA3MyAxLjEzMy0wLjE5NGwtMC4wMjYgMC4wMDggMS4wMzcgMS44ODNjLTEuNzU3IDEuMjQzLTIuODkgMy4yNjUtMi44OTQgNS41NTN2MC4wMDFjMC4wMTAgMC42OTcgMC4xMjUgMS4zNjQgMC4zMyAxLjk5bC0wLjAxMy0wLjA0Ny0xLjQyMyAwLjYwM2MtMC42ODEtMC45NzEtMS43OTUtMS41OTctMy4wNTYtMS41OTctMi4wNTYgMC0zLjcyMiAxLjY2Ni0zLjcyMiAzLjcyMnMxLjY2NiAzLjcyMiAzLjcyMiAzLjcyMmMyLjA1NiAwIDMuNzIyLTEuNjY2IDMuNzIyLTMuNzIyIDAtMC4yNjQtMC4wMjctMC41MjEtMC4wNzktMC43NjlsMC4wMDQgMC4wMjQgMS40MTktMC42MDJjMS4xNjcgMi4wOTMgMy4zNjcgMy40ODUgNS44OTIgMy40ODUgMS43MyAwIDMuMzA4LTAuNjU0IDQuNS0xLjcyOGwtMC4wMDYgMC4wMDUgMy4zMDkgMy4wMDdjLTAuMzM1IDAuNTQ0LTAuNTM1IDEuMjAxLTAuNTM5IDEuOTA2djAuMDAxYzAgMi4wNzEgMS42NzkgMy43NSAzLjc1IDMuNzVzMy43NS0xLjY3OSAzLjc1LTMuNzVjMC0yLjA3MS0xLjY3OS0zLjc1LTMuNzUtMy43NXYwek03LjY5IDVjMC0xLjI0MyAxLjAwNy0yLjI1IDIuMjUtMi4yNXMyLjI1IDEuMDA3IDIuMjUgMi4yNWMwIDEuMjQzLTEuMDA3IDIuMjUtMi4yNSAyLjI1djBjLTEuMjQyLTAuMDAyLTIuMjQ4LTEuMDA4LTIuMjUtMi4yNXYtMHpNNSAyMi45MmMtMS4yNDItMC4wMDEtMi4yNDgtMS4wMDctMi4yNDgtMi4yNDlzMS4wMDctMi4yNDkgMi4yNDktMi4yNDljMS4yNDIgMCAyLjI0OCAxLjAwNiAyLjI0OSAyLjI0OHYwYy0wLjAwMiAxLjI0Mi0xLjAwOCAyLjI0OC0yLjI1IDIuMjVoLTB6TTI3IDIuNzVjMS4yNDMgMCAyLjI1IDEuMDA3IDIuMjUgMi4yNXMtMS4wMDcgMi4yNS0yLjI1IDIuMjVjLTEuMjQzIDAtMi4yNS0xLjAwNy0yLjI1LTIuMjV2MGMwLjAwMi0xLjI0MiAxLjAwOC0yLjI0OCAyLjI1LTIuMjVoMHpNMTAuNjkgMTZjMC0wIDAtMCAwLTAuMDAxIDAtMi45MzIgMi4zNzctNS4zMDkgNS4zMDktNS4zMDlzNS4zMDkgMi4zNzcgNS4zMDkgNS4zMDljMCAyLjkzMi0yLjM3NyA1LjMwOS01LjMwOSA1LjMwOWgtMGMtMi45MzEtMC4wMDMtNS4zMDYtMi4zNzgtNS4zMS01LjMwOHYtMHpNMjcgMjguMjVjLTEuMjQzIDAtMi4yNS0xLjAwNy0yLjI1LTIuMjVzMS4wMDctMi4yNSAyLjI1LTIuMjVjMS4yNDMgMCAyLjI1IDEuMDA3IDIuMjUgMi4yNXYwYy0wLjAwMiAxLjI0Mi0xLjAwOCAyLjI0OC0yLjI1IDIuMjVoLTB6Ii8+JiN4YTs8L3N2Zz4=;" parent="38mpf5MFzlCCdVwa-txg-338" vertex="1">
          <mxGeometry x="5" y="27" width="40" height="40" as="geometry" />
        </mxCell>
        <mxCell id="38mpf5MFzlCCdVwa-txg-341" style="edgeStyle=orthogonalEdgeStyle;rounded=0;orthogonalLoop=1;jettySize=auto;html=1;entryX=1;entryY=0.5;entryDx=0;entryDy=0;entryPerimeter=0;exitX=0.532;exitY=1.007;exitDx=0;exitDy=0;exitPerimeter=0;" parent="1" source="38mpf5MFzlCCdVwa-txg-343" target="38mpf5MFzlCCdVwa-txg-337" edge="1">
          <mxGeometry relative="1" as="geometry" />
        </mxCell>
        <mxCell id="38mpf5MFzlCCdVwa-txg-342" style="edgeStyle=orthogonalEdgeStyle;rounded=0;orthogonalLoop=1;jettySize=auto;html=1;entryX=0;entryY=0;entryDx=50;entryDy=41;entryPerimeter=0;exitX=0.45;exitY=0.01;exitDx=0;exitDy=0;exitPerimeter=0;" parent="1" source="38mpf5MFzlCCdVwa-txg-343" target="38mpf5MFzlCCdVwa-txg-338" edge="1">
          <mxGeometry relative="1" as="geometry" />
        </mxCell>
        <mxCell id="38mpf5MFzlCCdVwa-txg-343" value="" style="image;points=[];aspect=fixed;html=1;align=center;shadow=0;dashed=0;image=img/lib/allied_telesis/buildings/Large_Building.svg;" parent="1" vertex="1">
          <mxGeometry x="2161.7599999999998" y="2011.5" width="75" height="75" as="geometry" />
        </mxCell>
        <mxCell id="38mpf5MFzlCCdVwa-txg-344" style="edgeStyle=orthogonalEdgeStyle;rounded=0;orthogonalLoop=1;jettySize=auto;html=1;entryX=1;entryY=0.5;entryDx=0;entryDy=0;entryPerimeter=0;" parent="1" source="38mpf5MFzlCCdVwa-txg-340" target="38mpf5MFzlCCdVwa-txg-334" edge="1">
          <mxGeometry relative="1" as="geometry" />
        </mxCell>
        <mxCell id="38mpf5MFzlCCdVwa-txg-345" value="" style="html=1;whiteSpace=wrap;" parent="1" vertex="1">
          <mxGeometry x="2002.58" y="1940" width="260" height="240" as="geometry" />
        </mxCell>
        <mxCell id="38mpf5MFzlCCdVwa-txg-346" value="&lt;br&gt;triples DB" style="strokeWidth=1;html=1;shape=mxgraph.flowchart.database;whiteSpace=wrap;fillColor=#f8cecc;strokeColor=#b85450;" parent="1" vertex="1">
          <mxGeometry x="1850.84" y="1970.5" width="126.03" height="75" as="geometry" />
        </mxCell>
        <mxCell id="38mpf5MFzlCCdVwa-txg-347" value="&lt;br&gt;timeseries DB" style="strokeWidth=1;html=1;shape=mxgraph.flowchart.database;whiteSpace=wrap;fillColor=#f8cecc;strokeColor=#b85450;" parent="1" vertex="1">
          <mxGeometry x="1850.84" y="2080" width="126.03" height="75" as="geometry" />
        </mxCell>
        <mxCell id="38mpf5MFzlCCdVwa-txg-348" style="edgeStyle=orthogonalEdgeStyle;rounded=0;orthogonalLoop=1;jettySize=auto;html=1;entryX=1;entryY=0.5;entryDx=0;entryDy=0;entryPerimeter=0;" parent="1" source="38mpf5MFzlCCdVwa-txg-349" target="38mpf5MFzlCCdVwa-txg-347" edge="1">
          <mxGeometry relative="1" as="geometry" />
        </mxCell>
        <mxCell id="38mpf5MFzlCCdVwa-txg-349" value="raw&lt;br&gt;timeseries" style="strokeWidth=1;html=1;shape=mxgraph.flowchart.multi-document;whiteSpace=wrap;fillColor=#d5e8d4;strokeColor=#82b366;" parent="1" vertex="1">
          <mxGeometry x="2020.84" y="2087.5" width="128" height="60" as="geometry" />
        </mxCell>
        <mxCell id="38mpf5MFzlCCdVwa-txg-350" value="" style="shape=note2;boundedLbl=1;whiteSpace=wrap;html=1;size=12;verticalAlign=top;align=left;spacingLeft=5;fillColor=#d5e8d4;strokeColor=#82b366;" parent="1" vertex="1">
          <mxGeometry x="2059.84" y="1960" width="50" height="70" as="geometry" />
        </mxCell>
        <mxCell id="38mpf5MFzlCCdVwa-txg-351" value="ttl" style="resizeWidth=1;part=1;strokeColor=none;fillColor=none;align=left;spacingLeft=5;html=1;whiteSpace=wrap;" parent="38mpf5MFzlCCdVwa-txg-350" vertex="1">
          <mxGeometry width="50.00000000000001" height="25" relative="1" as="geometry" />
        </mxCell>
        <mxCell id="38mpf5MFzlCCdVwa-txg-352" value="" style="shape=image;verticalLabelPosition=bottom;labelBackgroundColor=default;verticalAlign=top;aspect=fixed;imageAspect=0;image=data:image/svg+xml,PHN2ZyB4bWxucz0iaHR0cDovL3d3dy53My5vcmcvMjAwMC9zdmciIHZlcnNpb249IjEuMSIgdmlld0JveD0iMCAwIDMyIDMyIiBoZWlnaHQ9IjgwMHB4IiB3aWR0aD0iODAwcHgiIGZpbGw9IiMwMDAwMDAiPiYjeGE7PHRpdGxlPm5ldHdvcms8L3RpdGxlPiYjeGE7PHBhdGggZD0iTTI3IDIyLjI1Yy0wLjgzMSAwLjAwMi0xLjU5OCAwLjI3Ny0yLjIxNSAwLjczOWwwLjAxMC0wLjAwNy0zLjI5OS0yLjk5OGMwLjgyLTEuMDk3IDEuMzEzLTIuNDc5IDEuMzEzLTMuOTc3IDAtMS42MTQtMC41NzItMy4wOTQtMS41MjUtNC4yNDlsMC4wMDkgMC4wMTEgMy42NDQtMy42NDNjMC41ODQgMC4zOTEgMS4zMDIgMC42MjQgMi4wNzQgMC42MjQgMi4wNzcgMCAzLjc2LTEuNjgzIDMuNzYtMy43NnMtMS42ODMtMy43Ni0zLjc2LTMuNzZjLTIuMDc3IDAtMy43NiAxLjY4My0zLjc2IDMuNzYgMCAwLjc3MyAwLjIzMyAxLjQ5MSAwLjYzMyAyLjA4OGwtMC4wMDktMC4wMTQtMy42NDMgMy42NDNjLTEuMTQ1LTAuOTQ0LTIuNjI3LTEuNTE3LTQuMjQ0LTEuNTE3LTAuOTM3IDAtMS44MjggMC4xOTItMi42MzggMC41NGwwLjA0NC0wLjAxNy0xLjAzMi0xLjg3NGMwLjc5MS0wLjY4OCAxLjI4OC0xLjY5NSAxLjI4OC0yLjgxOSAwLTIuMDYwLTEuNjctMy43MjktMy43MjktMy43MjlzLTMuNzI5IDEuNjctMy43MjkgMy43MjljMCAyLjA2MCAxLjY3IDMuNzI5IDMuNzI5IDMuNzI5IDAuMDA3IDAgMC4wMTUtMCAwLjAyMi0waC0wLjAwMWMwLjM5OC0wLjAwNiAwLjc3OC0wLjA3MyAxLjEzMy0wLjE5NGwtMC4wMjYgMC4wMDggMS4wMzcgMS44ODNjLTEuNzU3IDEuMjQzLTIuODkgMy4yNjUtMi44OTQgNS41NTN2MC4wMDFjMC4wMTAgMC42OTcgMC4xMjUgMS4zNjQgMC4zMyAxLjk5bC0wLjAxMy0wLjA0Ny0xLjQyMyAwLjYwM2MtMC42ODEtMC45NzEtMS43OTUtMS41OTctMy4wNTYtMS41OTctMi4wNTYgMC0zLjcyMiAxLjY2Ni0zLjcyMiAzLjcyMnMxLjY2NiAzLjcyMiAzLjcyMiAzLjcyMmMyLjA1NiAwIDMuNzIyLTEuNjY2IDMuNzIyLTMuNzIyIDAtMC4yNjQtMC4wMjctMC41MjEtMC4wNzktMC43NjlsMC4wMDQgMC4wMjQgMS40MTktMC42MDJjMS4xNjcgMi4wOTMgMy4zNjcgMy40ODUgNS44OTIgMy40ODUgMS43MyAwIDMuMzA4LTAuNjU0IDQuNS0xLjcyOGwtMC4wMDYgMC4wMDUgMy4zMDkgMy4wMDdjLTAuMzM1IDAuNTQ0LTAuNTM1IDEuMjAxLTAuNTM5IDEuOTA2djAuMDAxYzAgMi4wNzEgMS42NzkgMy43NSAzLjc1IDMuNzVzMy43NS0xLjY3OSAzLjc1LTMuNzVjMC0yLjA3MS0xLjY3OS0zLjc1LTMuNzUtMy43NXYwek03LjY5IDVjMC0xLjI0MyAxLjAwNy0yLjI1IDIuMjUtMi4yNXMyLjI1IDEuMDA3IDIuMjUgMi4yNWMwIDEuMjQzLTEuMDA3IDIuMjUtMi4yNSAyLjI1djBjLTEuMjQyLTAuMDAyLTIuMjQ4LTEuMDA4LTIuMjUtMi4yNXYtMHpNNSAyMi45MmMtMS4yNDItMC4wMDEtMi4yNDgtMS4wMDctMi4yNDgtMi4yNDlzMS4wMDctMi4yNDkgMi4yNDktMi4yNDljMS4yNDIgMCAyLjI0OCAxLjAwNiAyLjI0OSAyLjI0OHYwYy0wLjAwMiAxLjI0Mi0xLjAwOCAyLjI0OC0yLjI1IDIuMjVoLTB6TTI3IDIuNzVjMS4yNDMgMCAyLjI1IDEuMDA3IDIuMjUgMi4yNXMtMS4wMDcgMi4yNS0yLjI1IDIuMjVjLTEuMjQzIDAtMi4yNS0xLjAwNy0yLjI1LTIuMjV2MGMwLjAwMi0xLjI0MiAxLjAwOC0yLjI0OCAyLjI1LTIuMjVoMHpNMTAuNjkgMTZjMC0wIDAtMCAwLTAuMDAxIDAtMi45MzIgMi4zNzctNS4zMDkgNS4zMDktNS4zMDlzNS4zMDkgMi4zNzcgNS4zMDkgNS4zMDljMCAyLjkzMi0yLjM3NyA1LjMwOS01LjMwOSA1LjMwOWgtMGMtMi45MzEtMC4wMDMtNS4zMDYtMi4zNzgtNS4zMS01LjMwOHYtMHpNMjcgMjguMjVjLTEuMjQzIDAtMi4yNS0xLjAwNy0yLjI1LTIuMjVzMS4wMDctMi4yNSAyLjI1LTIuMjVjMS4yNDMgMCAyLjI1IDEuMDA3IDIuMjUgMi4yNXYwYy0wLjAwMiAxLjI0Mi0xLjAwOCAyLjI0OC0yLjI1IDIuMjVoLTB6Ii8+JiN4YTs8L3N2Zz4=;" parent="38mpf5MFzlCCdVwa-txg-350" vertex="1">
          <mxGeometry x="5" y="27" width="40" height="40" as="geometry" />
        </mxCell>
        <mxCell id="38mpf5MFzlCCdVwa-txg-353" style="edgeStyle=orthogonalEdgeStyle;rounded=0;orthogonalLoop=1;jettySize=auto;html=1;entryX=1;entryY=0.5;entryDx=0;entryDy=0;entryPerimeter=0;exitX=0.532;exitY=1.007;exitDx=0;exitDy=0;exitPerimeter=0;" parent="1" source="38mpf5MFzlCCdVwa-txg-355" target="38mpf5MFzlCCdVwa-txg-349" edge="1">
          <mxGeometry relative="1" as="geometry" />
        </mxCell>
        <mxCell id="38mpf5MFzlCCdVwa-txg-354" style="edgeStyle=orthogonalEdgeStyle;rounded=0;orthogonalLoop=1;jettySize=auto;html=1;entryX=0;entryY=0;entryDx=50;entryDy=41;entryPerimeter=0;exitX=0.45;exitY=0.01;exitDx=0;exitDy=0;exitPerimeter=0;" parent="1" source="38mpf5MFzlCCdVwa-txg-355" target="38mpf5MFzlCCdVwa-txg-350" edge="1">
          <mxGeometry relative="1" as="geometry" />
        </mxCell>
        <mxCell id="38mpf5MFzlCCdVwa-txg-355" value="" style="image;points=[];aspect=fixed;html=1;align=center;shadow=0;dashed=0;image=img/lib/allied_telesis/buildings/Large_Building.svg;" parent="1" vertex="1">
          <mxGeometry x="2171.7599999999998" y="2021.5" width="75" height="75" as="geometry" />
        </mxCell>
        <mxCell id="38mpf5MFzlCCdVwa-txg-356" style="edgeStyle=orthogonalEdgeStyle;rounded=0;orthogonalLoop=1;jettySize=auto;html=1;entryX=1;entryY=0.5;entryDx=0;entryDy=0;entryPerimeter=0;" parent="1" source="38mpf5MFzlCCdVwa-txg-352" target="38mpf5MFzlCCdVwa-txg-346" edge="1">
          <mxGeometry relative="1" as="geometry" />
        </mxCell>
        <mxCell id="38mpf5MFzlCCdVwa-txg-357" value="" style="html=1;whiteSpace=wrap;" parent="1" vertex="1">
          <mxGeometry x="2012.58" y="1950" width="260" height="240" as="geometry" />
        </mxCell>
        <mxCell id="38mpf5MFzlCCdVwa-txg-358" value="&lt;br&gt;triples DB" style="strokeWidth=1;html=1;shape=mxgraph.flowchart.database;whiteSpace=wrap;fillColor=#f8cecc;strokeColor=#b85450;" parent="1" vertex="1">
          <mxGeometry x="1860.84" y="1980.5" width="126.03" height="75" as="geometry" />
        </mxCell>
        <mxCell id="38mpf5MFzlCCdVwa-txg-359" value="&lt;br&gt;timeseries DB" style="strokeWidth=1;html=1;shape=mxgraph.flowchart.database;whiteSpace=wrap;fillColor=#f8cecc;strokeColor=#b85450;" parent="1" vertex="1">
          <mxGeometry x="1860.84" y="2090" width="126.03" height="75" as="geometry" />
        </mxCell>
        <mxCell id="38mpf5MFzlCCdVwa-txg-360" style="edgeStyle=orthogonalEdgeStyle;rounded=0;orthogonalLoop=1;jettySize=auto;html=1;entryX=1;entryY=0.5;entryDx=0;entryDy=0;entryPerimeter=0;" parent="1" source="38mpf5MFzlCCdVwa-txg-361" target="38mpf5MFzlCCdVwa-txg-359" edge="1">
          <mxGeometry relative="1" as="geometry" />
        </mxCell>
        <mxCell id="38mpf5MFzlCCdVwa-txg-361" value="raw&lt;br&gt;timeseries" style="strokeWidth=1;html=1;shape=mxgraph.flowchart.multi-document;whiteSpace=wrap;fillColor=#d5e8d4;strokeColor=#82b366;" parent="1" vertex="1">
          <mxGeometry x="2030.84" y="2097.5" width="128" height="60" as="geometry" />
        </mxCell>
        <mxCell id="38mpf5MFzlCCdVwa-txg-362" value="" style="shape=note2;boundedLbl=1;whiteSpace=wrap;html=1;size=12;verticalAlign=top;align=left;spacingLeft=5;fillColor=#d5e8d4;strokeColor=#82b366;" parent="1" vertex="1">
          <mxGeometry x="2069.84" y="1970" width="50" height="70" as="geometry" />
        </mxCell>
        <mxCell id="38mpf5MFzlCCdVwa-txg-363" value="ttl" style="resizeWidth=1;part=1;strokeColor=none;fillColor=none;align=left;spacingLeft=5;html=1;whiteSpace=wrap;" parent="38mpf5MFzlCCdVwa-txg-362" vertex="1">
          <mxGeometry width="50.00000000000001" height="25" relative="1" as="geometry" />
        </mxCell>
        <mxCell id="38mpf5MFzlCCdVwa-txg-364" value="" style="shape=image;verticalLabelPosition=bottom;labelBackgroundColor=default;verticalAlign=top;aspect=fixed;imageAspect=0;image=data:image/svg+xml,PHN2ZyB4bWxucz0iaHR0cDovL3d3dy53My5vcmcvMjAwMC9zdmciIHZlcnNpb249IjEuMSIgdmlld0JveD0iMCAwIDMyIDMyIiBoZWlnaHQ9IjgwMHB4IiB3aWR0aD0iODAwcHgiIGZpbGw9IiMwMDAwMDAiPiYjeGE7PHRpdGxlPm5ldHdvcms8L3RpdGxlPiYjeGE7PHBhdGggZD0iTTI3IDIyLjI1Yy0wLjgzMSAwLjAwMi0xLjU5OCAwLjI3Ny0yLjIxNSAwLjczOWwwLjAxMC0wLjAwNy0zLjI5OS0yLjk5OGMwLjgyLTEuMDk3IDEuMzEzLTIuNDc5IDEuMzEzLTMuOTc3IDAtMS42MTQtMC41NzItMy4wOTQtMS41MjUtNC4yNDlsMC4wMDkgMC4wMTEgMy42NDQtMy42NDNjMC41ODQgMC4zOTEgMS4zMDIgMC42MjQgMi4wNzQgMC42MjQgMi4wNzcgMCAzLjc2LTEuNjgzIDMuNzYtMy43NnMtMS42ODMtMy43Ni0zLjc2LTMuNzZjLTIuMDc3IDAtMy43NiAxLjY4My0zLjc2IDMuNzYgMCAwLjc3MyAwLjIzMyAxLjQ5MSAwLjYzMyAyLjA4OGwtMC4wMDktMC4wMTQtMy42NDMgMy42NDNjLTEuMTQ1LTAuOTQ0LTIuNjI3LTEuNTE3LTQuMjQ0LTEuNTE3LTAuOTM3IDAtMS44MjggMC4xOTItMi42MzggMC41NGwwLjA0NC0wLjAxNy0xLjAzMi0xLjg3NGMwLjc5MS0wLjY4OCAxLjI4OC0xLjY5NSAxLjI4OC0yLjgxOSAwLTIuMDYwLTEuNjctMy43MjktMy43MjktMy43MjlzLTMuNzI5IDEuNjctMy43MjkgMy43MjljMCAyLjA2MCAxLjY3IDMuNzI5IDMuNzI5IDMuNzI5IDAuMDA3IDAgMC4wMTUtMCAwLjAyMi0waC0wLjAwMWMwLjM5OC0wLjAwNiAwLjc3OC0wLjA3MyAxLjEzMy0wLjE5NGwtMC4wMjYgMC4wMDggMS4wMzcgMS44ODNjLTEuNzU3IDEuMjQzLTIuODkgMy4yNjUtMi44OTQgNS41NTN2MC4wMDFjMC4wMTAgMC42OTcgMC4xMjUgMS4zNjQgMC4zMyAxLjk5bC0wLjAxMy0wLjA0Ny0xLjQyMyAwLjYwM2MtMC42ODEtMC45NzEtMS43OTUtMS41OTctMy4wNTYtMS41OTctMi4wNTYgMC0zLjcyMiAxLjY2Ni0zLjcyMiAzLjcyMnMxLjY2NiAzLjcyMiAzLjcyMiAzLjcyMmMyLjA1NiAwIDMuNzIyLTEuNjY2IDMuNzIyLTMuNzIyIDAtMC4yNjQtMC4wMjctMC41MjEtMC4wNzktMC43NjlsMC4wMDQgMC4wMjQgMS40MTktMC42MDJjMS4xNjcgMi4wOTMgMy4zNjcgMy40ODUgNS44OTIgMy40ODUgMS43MyAwIDMuMzA4LTAuNjU0IDQuNS0xLjcyOGwtMC4wMDYgMC4wMDUgMy4zMDkgMy4wMDdjLTAuMzM1IDAuNTQ0LTAuNTM1IDEuMjAxLTAuNTM5IDEuOTA2djAuMDAxYzAgMi4wNzEgMS42NzkgMy43NSAzLjc1IDMuNzVzMy43NS0xLjY3OSAzLjc1LTMuNzVjMC0yLjA3MS0xLjY3OS0zLjc1LTMuNzUtMy43NXYwek03LjY5IDVjMC0xLjI0MyAxLjAwNy0yLjI1IDIuMjUtMi4yNXMyLjI1IDEuMDA3IDIuMjUgMi4yNWMwIDEuMjQzLTEuMDA3IDIuMjUtMi4yNSAyLjI1djBjLTEuMjQyLTAuMDAyLTIuMjQ4LTEuMDA4LTIuMjUtMi4yNXYtMHpNNSAyMi45MmMtMS4yNDItMC4wMDEtMi4yNDgtMS4wMDctMi4yNDgtMi4yNDlzMS4wMDctMi4yNDkgMi4yNDktMi4yNDljMS4yNDIgMCAyLjI0OCAxLjAwNiAyLjI0OSAyLjI0OHYwYy0wLjAwMiAxLjI0Mi0xLjAwOCAyLjI0OC0yLjI1IDIuMjVoLTB6TTI3IDIuNzVjMS4yNDMgMCAyLjI1IDEuMDA3IDIuMjUgMi4yNXMtMS4wMDcgMi4yNS0yLjI1IDIuMjVjLTEuMjQzIDAtMi4yNS0xLjAwNy0yLjI1LTIuMjV2MGMwLjAwMi0xLjI0MiAxLjAwOC0yLjI0OCAyLjI1LTIuMjVoMHpNMTAuNjkgMTZjMC0wIDAtMCAwLTAuMDAxIDAtMi45MzIgMi4zNzctNS4zMDkgNS4zMDktNS4zMDlzNS4zMDkgMi4zNzcgNS4zMDkgNS4zMDljMCAyLjkzMi0yLjM3NyA1LjMwOS01LjMwOSA1LjMwOWgtMGMtMi45MzEtMC4wMDMtNS4zMDYtMi4zNzgtNS4zMS01LjMwOHYtMHpNMjcgMjguMjVjLTEuMjQzIDAtMi4yNS0xLjAwNy0yLjI1LTIuMjVzMS4wMDctMi4yNSAyLjI1LTIuMjVjMS4yNDMgMCAyLjI1IDEuMDA3IDIuMjUgMi4yNXYwYy0wLjAwMiAxLjI0Mi0xLjAwOCAyLjI0OC0yLjI1IDIuMjVoLTB6Ii8+JiN4YTs8L3N2Zz4=;" parent="38mpf5MFzlCCdVwa-txg-362" vertex="1">
          <mxGeometry x="5" y="27" width="40" height="40" as="geometry" />
        </mxCell>
        <mxCell id="38mpf5MFzlCCdVwa-txg-365" style="edgeStyle=orthogonalEdgeStyle;rounded=0;orthogonalLoop=1;jettySize=auto;html=1;entryX=1;entryY=0.5;entryDx=0;entryDy=0;entryPerimeter=0;exitX=0.532;exitY=1.007;exitDx=0;exitDy=0;exitPerimeter=0;" parent="1" source="38mpf5MFzlCCdVwa-txg-367" target="38mpf5MFzlCCdVwa-txg-361" edge="1">
          <mxGeometry relative="1" as="geometry" />
        </mxCell>
        <mxCell id="38mpf5MFzlCCdVwa-txg-366" style="edgeStyle=orthogonalEdgeStyle;rounded=0;orthogonalLoop=1;jettySize=auto;html=1;entryX=0;entryY=0;entryDx=50;entryDy=41;entryPerimeter=0;exitX=0.45;exitY=0.01;exitDx=0;exitDy=0;exitPerimeter=0;" parent="1" source="38mpf5MFzlCCdVwa-txg-367" target="38mpf5MFzlCCdVwa-txg-362" edge="1">
          <mxGeometry relative="1" as="geometry" />
        </mxCell>
        <mxCell id="38mpf5MFzlCCdVwa-txg-367" value="" style="image;points=[];aspect=fixed;html=1;align=center;shadow=0;dashed=0;image=img/lib/allied_telesis/buildings/Large_Building.svg;" parent="1" vertex="1">
          <mxGeometry x="2181.7599999999998" y="2031.5" width="75" height="75" as="geometry" />
        </mxCell>
        <mxCell id="38mpf5MFzlCCdVwa-txg-368" style="edgeStyle=orthogonalEdgeStyle;rounded=0;orthogonalLoop=1;jettySize=auto;html=1;entryX=1;entryY=0.5;entryDx=0;entryDy=0;entryPerimeter=0;" parent="1" source="38mpf5MFzlCCdVwa-txg-364" target="38mpf5MFzlCCdVwa-txg-358" edge="1">
          <mxGeometry relative="1" as="geometry" />
        </mxCell>
        <mxCell id="38mpf5MFzlCCdVwa-txg-370" style="rounded=0;orthogonalLoop=1;jettySize=auto;html=1;entryX=0.007;entryY=0.579;entryDx=0;entryDy=0;entryPerimeter=0;startArrow=classic;startFill=1;endArrow=none;endFill=0;" parent="1" source="38mpf5MFzlCCdVwa-txg-198" target="38mpf5MFzlCCdVwa-txg-237" edge="1">
          <mxGeometry relative="1" as="geometry" />
        </mxCell>
        <mxCell id="38mpf5MFzlCCdVwa-txg-371" style="rounded=0;orthogonalLoop=1;jettySize=auto;html=1;entryX=0.007;entryY=0.15;entryDx=0;entryDy=0;entryPerimeter=0;startArrow=classic;startFill=1;endArrow=none;endFill=0;" parent="1" source="38mpf5MFzlCCdVwa-txg-184" target="38mpf5MFzlCCdVwa-txg-237" edge="1">
          <mxGeometry relative="1" as="geometry" />
        </mxCell>
        <mxCell id="_8oUVCLtbDPWLpwGxFnx-1" value="" style="html=1;whiteSpace=wrap;" parent="1" vertex="1">
          <mxGeometry x="809.02" y="3037" width="460" height="700" as="geometry" />
        </mxCell>
        <mxCell id="_8oUVCLtbDPWLpwGxFnx-2" style="edgeStyle=orthogonalEdgeStyle;rounded=0;orthogonalLoop=1;jettySize=auto;html=1;entryX=0.5;entryY=0;entryDx=0;entryDy=0;" parent="1" source="_8oUVCLtbDPWLpwGxFnx-3" target="_8oUVCLtbDPWLpwGxFnx-25" edge="1">
          <mxGeometry relative="1" as="geometry" />
        </mxCell>
        <mxCell id="_8oUVCLtbDPWLpwGxFnx-3" value="" style="sketch=0;outlineConnect=0;fontColor=#232F3E;gradientColor=none;fillColor=#232F3D;strokeColor=none;dashed=0;verticalLabelPosition=bottom;verticalAlign=top;align=center;html=1;fontSize=12;fontStyle=0;aspect=fixed;pointerEvents=1;shape=mxgraph.aws4.users;strokeWidth=1;" parent="1" vertex="1">
          <mxGeometry x="1013.1999999999999" y="2960" width="59.79" height="59.79" as="geometry" />
        </mxCell>
        <mxCell id="_8oUVCLtbDPWLpwGxFnx-4" style="edgeStyle=orthogonalEdgeStyle;rounded=0;orthogonalLoop=1;jettySize=auto;html=1;entryX=0.5;entryY=0;entryDx=0;entryDy=0;" parent="1" source="_8oUVCLtbDPWLpwGxFnx-5" target="_8oUVCLtbDPWLpwGxFnx-30" edge="1">
          <mxGeometry relative="1" as="geometry" />
        </mxCell>
        <mxCell id="_8oUVCLtbDPWLpwGxFnx-5" value="APP2" style="swimlane;fontSize=14;align=center;swimlaneFillColor=#f4f4f4;fillColor=#f5f5f5;startSize=33;container=1;pointerEvents=0;collapsible=0;recursiveResize=0;fontColor=#333333;strokeColor=#666666;" parent="1" vertex="1">
          <mxGeometry x="937.31" y="3329" width="90" height="80" as="geometry" />
        </mxCell>
        <mxCell id="_8oUVCLtbDPWLpwGxFnx-6" value="logic" style="text;html=1;align=center;verticalAlign=middle;resizable=0;points=[];autosize=1;strokeColor=none;fillColor=none;" parent="_8oUVCLtbDPWLpwGxFnx-5" vertex="1">
          <mxGeometry x="20" y="38" width="50" height="30" as="geometry" />
        </mxCell>
        <mxCell id="_8oUVCLtbDPWLpwGxFnx-7" style="edgeStyle=orthogonalEdgeStyle;rounded=0;orthogonalLoop=1;jettySize=auto;html=1;entryX=0.5;entryY=0;entryDx=0;entryDy=0;" parent="1" source="_8oUVCLtbDPWLpwGxFnx-8" target="_8oUVCLtbDPWLpwGxFnx-30" edge="1">
          <mxGeometry relative="1" as="geometry" />
        </mxCell>
        <mxCell id="_8oUVCLtbDPWLpwGxFnx-8" value="APP3" style="swimlane;fontSize=14;align=center;swimlaneFillColor=#f4f4f4;fillColor=#f5f5f5;startSize=33;container=1;pointerEvents=0;collapsible=0;recursiveResize=0;fontColor=#333333;strokeColor=#666666;" parent="1" vertex="1">
          <mxGeometry x="1047.31" y="3329" width="90" height="80" as="geometry" />
        </mxCell>
        <mxCell id="_8oUVCLtbDPWLpwGxFnx-9" value="logic" style="text;html=1;align=center;verticalAlign=middle;resizable=0;points=[];autosize=1;strokeColor=none;fillColor=none;" parent="_8oUVCLtbDPWLpwGxFnx-8" vertex="1">
          <mxGeometry x="20" y="38" width="50" height="30" as="geometry" />
        </mxCell>
        <mxCell id="_8oUVCLtbDPWLpwGxFnx-10" style="edgeStyle=orthogonalEdgeStyle;rounded=0;orthogonalLoop=1;jettySize=auto;html=1;entryX=0.5;entryY=0;entryDx=0;entryDy=0;" parent="1" source="_8oUVCLtbDPWLpwGxFnx-11" target="_8oUVCLtbDPWLpwGxFnx-30" edge="1">
          <mxGeometry relative="1" as="geometry" />
        </mxCell>
        <mxCell id="_8oUVCLtbDPWLpwGxFnx-11" value="[...]" style="swimlane;fontSize=14;align=center;swimlaneFillColor=#f4f4f4;fillColor=#f5f5f5;startSize=33;container=1;pointerEvents=0;collapsible=0;recursiveResize=0;fontColor=#333333;strokeColor=#666666;" parent="1" vertex="1">
          <mxGeometry x="1157.31" y="3329" width="90" height="80" as="geometry" />
        </mxCell>
        <mxCell id="_8oUVCLtbDPWLpwGxFnx-12" value="logic" style="text;html=1;align=center;verticalAlign=middle;resizable=0;points=[];autosize=1;strokeColor=none;fillColor=none;" parent="_8oUVCLtbDPWLpwGxFnx-11" vertex="1">
          <mxGeometry x="20" y="38" width="50" height="30" as="geometry" />
        </mxCell>
        <mxCell id="_8oUVCLtbDPWLpwGxFnx-13" style="edgeStyle=orthogonalEdgeStyle;rounded=0;orthogonalLoop=1;jettySize=auto;html=1;entryX=0.5;entryY=0;entryDx=0;entryDy=0;" parent="1" source="_8oUVCLtbDPWLpwGxFnx-14" edge="1">
          <mxGeometry relative="1" as="geometry">
            <mxPoint x="872.31" y="3329" as="targetPoint" />
          </mxGeometry>
        </mxCell>
        <mxCell id="_8oUVCLtbDPWLpwGxFnx-14" value="config1" style="shape=tape;whiteSpace=wrap;html=1;strokeWidth=1;size=0.19;fillColor=#fff2cc;strokeColor=#d6b656;" parent="1" vertex="1">
          <mxGeometry x="832.31" y="3259" width="80" height="45" as="geometry" />
        </mxCell>
        <mxCell id="_8oUVCLtbDPWLpwGxFnx-15" style="edgeStyle=orthogonalEdgeStyle;rounded=0;orthogonalLoop=1;jettySize=auto;html=1;entryX=0.5;entryY=1;entryDx=0;entryDy=0;" parent="1" source="_8oUVCLtbDPWLpwGxFnx-17" target="_8oUVCLtbDPWLpwGxFnx-25" edge="1">
          <mxGeometry relative="1" as="geometry" />
        </mxCell>
        <mxCell id="_8oUVCLtbDPWLpwGxFnx-16" style="edgeStyle=orthogonalEdgeStyle;rounded=0;orthogonalLoop=1;jettySize=auto;html=1;entryX=0.5;entryY=0;entryDx=0;entryDy=0;" parent="1" source="_8oUVCLtbDPWLpwGxFnx-17" target="_8oUVCLtbDPWLpwGxFnx-5" edge="1">
          <mxGeometry relative="1" as="geometry" />
        </mxCell>
        <mxCell id="_8oUVCLtbDPWLpwGxFnx-17" value="config2" style="shape=tape;whiteSpace=wrap;html=1;strokeWidth=1;size=0.19;fillColor=#fff2cc;strokeColor=#d6b656;" parent="1" vertex="1">
          <mxGeometry x="942.31" y="3259" width="80" height="45" as="geometry" />
        </mxCell>
        <mxCell id="_8oUVCLtbDPWLpwGxFnx-18" style="edgeStyle=orthogonalEdgeStyle;rounded=0;orthogonalLoop=1;jettySize=auto;html=1;entryX=0.5;entryY=1;entryDx=0;entryDy=0;" parent="1" source="_8oUVCLtbDPWLpwGxFnx-20" target="_8oUVCLtbDPWLpwGxFnx-25" edge="1">
          <mxGeometry relative="1" as="geometry" />
        </mxCell>
        <mxCell id="_8oUVCLtbDPWLpwGxFnx-19" style="edgeStyle=orthogonalEdgeStyle;rounded=0;orthogonalLoop=1;jettySize=auto;html=1;" parent="1" source="_8oUVCLtbDPWLpwGxFnx-20" target="_8oUVCLtbDPWLpwGxFnx-1" edge="1">
          <mxGeometry relative="1" as="geometry" />
        </mxCell>
        <mxCell id="_8oUVCLtbDPWLpwGxFnx-20" value="config3" style="shape=tape;whiteSpace=wrap;html=1;strokeWidth=1;size=0.19;fillColor=#fff2cc;strokeColor=#d6b656;" parent="1" vertex="1">
          <mxGeometry x="1052.31" y="3259" width="80" height="45" as="geometry" />
        </mxCell>
        <mxCell id="_8oUVCLtbDPWLpwGxFnx-21" style="edgeStyle=orthogonalEdgeStyle;rounded=0;orthogonalLoop=1;jettySize=auto;html=1;entryX=0.5;entryY=1;entryDx=0;entryDy=0;" parent="1" source="_8oUVCLtbDPWLpwGxFnx-23" target="_8oUVCLtbDPWLpwGxFnx-25" edge="1">
          <mxGeometry relative="1" as="geometry" />
        </mxCell>
        <mxCell id="_8oUVCLtbDPWLpwGxFnx-22" style="edgeStyle=orthogonalEdgeStyle;rounded=0;orthogonalLoop=1;jettySize=auto;html=1;entryX=0.5;entryY=0;entryDx=0;entryDy=0;" parent="1" source="_8oUVCLtbDPWLpwGxFnx-23" target="_8oUVCLtbDPWLpwGxFnx-11" edge="1">
          <mxGeometry relative="1" as="geometry" />
        </mxCell>
        <mxCell id="_8oUVCLtbDPWLpwGxFnx-23" value="config..." style="shape=tape;whiteSpace=wrap;html=1;strokeWidth=1;size=0.19;fillColor=#fff2cc;strokeColor=#d6b656;" parent="1" vertex="1">
          <mxGeometry x="1162.31" y="3259" width="80" height="45" as="geometry" />
        </mxCell>
        <mxCell id="_8oUVCLtbDPWLpwGxFnx-24" style="edgeStyle=orthogonalEdgeStyle;rounded=0;orthogonalLoop=1;jettySize=auto;html=1;entryX=0.498;entryY=0.06;entryDx=0;entryDy=0;entryPerimeter=0;" parent="1" source="_8oUVCLtbDPWLpwGxFnx-25" target="_8oUVCLtbDPWLpwGxFnx-14" edge="1">
          <mxGeometry relative="1" as="geometry" />
        </mxCell>
        <mxCell id="_8oUVCLtbDPWLpwGxFnx-25" value="CONFIG SETUP  INTERFACE" style="swimlane;fontSize=14;align=center;swimlaneFillColor=#f4f4f4;fillColor=#f5f5f5;startSize=33;container=1;pointerEvents=0;collapsible=0;recursiveResize=0;fontColor=#333333;strokeColor=#666666;" parent="1" vertex="1">
          <mxGeometry x="887.88" y="3060" width="310.43" height="115.5" as="geometry" />
        </mxCell>
        <mxCell id="_8oUVCLtbDPWLpwGxFnx-26" value="" style="image;points=[];aspect=fixed;html=1;align=center;shadow=0;dashed=0;image=img/lib/allied_telesis/computer_and_terminals/Personal_Computer.svg;" parent="_8oUVCLtbDPWLpwGxFnx-25" vertex="1">
          <mxGeometry x="132.42000000000004" y="45.09999999999982" width="45.6" height="61.800000000000004" as="geometry" />
        </mxCell>
        <mxCell id="_8oUVCLtbDPWLpwGxFnx-27" value="" style="image;points=[];aspect=fixed;html=1;align=center;shadow=0;dashed=0;image=img/lib/allied_telesis/computer_and_terminals/Personal_Computer_with_Server.svg;" parent="_8oUVCLtbDPWLpwGxFnx-25" vertex="1">
          <mxGeometry x="201.14" y="45.09999999999991" width="62.400000000000006" height="62.400000000000006" as="geometry" />
        </mxCell>
        <mxCell id="_8oUVCLtbDPWLpwGxFnx-28" style="edgeStyle=orthogonalEdgeStyle;rounded=0;orthogonalLoop=1;jettySize=auto;html=1;" parent="1" source="_8oUVCLtbDPWLpwGxFnx-30" target="_8oUVCLtbDPWLpwGxFnx-3" edge="1">
          <mxGeometry relative="1" as="geometry">
            <Array as="points">
              <mxPoint x="779.02" y="3639" />
              <mxPoint x="779.02" y="2990" />
            </Array>
          </mxGeometry>
        </mxCell>
        <mxCell id="_8oUVCLtbDPWLpwGxFnx-29" value="feedback&lt;br&gt;loop" style="edgeLabel;html=1;align=center;verticalAlign=middle;resizable=0;points=[];" parent="_8oUVCLtbDPWLpwGxFnx-28" vertex="1" connectable="0">
          <mxGeometry x="-0.0833" y="-2" relative="1" as="geometry">
            <mxPoint x="-1" y="238" as="offset" />
          </mxGeometry>
        </mxCell>
        <mxCell id="_8oUVCLtbDPWLpwGxFnx-30" value="POST PROCESSING" style="swimlane;fontSize=14;align=center;swimlaneFillColor=#f4f4f4;fillColor=#f5f5f5;startSize=33;container=1;pointerEvents=0;collapsible=0;recursiveResize=0;fontColor=#333333;strokeColor=#666666;" parent="1" vertex="1">
          <mxGeometry x="887.88" y="3565.25" width="310.43" height="147.5" as="geometry" />
        </mxCell>
        <mxCell id="_8oUVCLtbDPWLpwGxFnx-31" value="reports" style="shape=mxgraph.bpmn.data;labelPosition=center;verticalLabelPosition=bottom;align=center;verticalAlign=top;size=15;html=1;bpmnTransferType=output;" parent="_8oUVCLtbDPWLpwGxFnx-30" vertex="1">
          <mxGeometry x="26.980000000000132" y="47.5" width="40" height="50" as="geometry" />
        </mxCell>
        <mxCell id="_8oUVCLtbDPWLpwGxFnx-32" value="visualizations" style="shape=mxgraph.bpmn.data;labelPosition=center;verticalLabelPosition=bottom;align=center;verticalAlign=top;size=15;html=1;bpmnTransferType=output;" parent="_8oUVCLtbDPWLpwGxFnx-30" vertex="1">
          <mxGeometry x="89.50000000000017" y="47.5" width="40" height="50" as="geometry" />
        </mxCell>
        <mxCell id="_8oUVCLtbDPWLpwGxFnx-33" value="raw data" style="shape=mxgraph.bpmn.data;labelPosition=center;verticalLabelPosition=bottom;align=center;verticalAlign=top;size=15;html=1;bpmnTransferType=output;" parent="_8oUVCLtbDPWLpwGxFnx-30" vertex="1">
          <mxGeometry x="166.9800000000002" y="47.5" width="40" height="50" as="geometry" />
        </mxCell>
        <mxCell id="_8oUVCLtbDPWLpwGxFnx-34" value="alarms&lt;br&gt;work orders" style="shape=mxgraph.bpmn.data;labelPosition=center;verticalLabelPosition=bottom;align=center;verticalAlign=top;size=15;html=1;bpmnTransferType=output;" parent="_8oUVCLtbDPWLpwGxFnx-30" vertex="1">
          <mxGeometry x="230.98" y="47.5" width="40" height="52.5" as="geometry" />
        </mxCell>
        <mxCell id="_8oUVCLtbDPWLpwGxFnx-35" value="5" style="rounded=1;whiteSpace=wrap;html=1;fillColor=#007CBD;strokeColor=none;fontColor=#FFFFFF;fontStyle=1;fontSize=22;labelBackgroundColor=none;" parent="1" vertex="1">
          <mxGeometry x="837.3100000000001" y="3565.25" width="40" height="38" as="geometry" />
        </mxCell>
        <mxCell id="_8oUVCLtbDPWLpwGxFnx-36" value="result" style="shape=tape;whiteSpace=wrap;html=1;strokeWidth=1;size=0.19;fillColor=#fff2cc;strokeColor=#d6b656;" parent="1" vertex="1">
          <mxGeometry x="1162.31" y="3419" width="80" height="45" as="geometry" />
        </mxCell>
        <mxCell id="_8oUVCLtbDPWLpwGxFnx-37" value="result" style="shape=tape;whiteSpace=wrap;html=1;strokeWidth=1;size=0.19;fillColor=#fff2cc;strokeColor=#d6b656;" parent="1" vertex="1">
          <mxGeometry x="1052.31" y="3419" width="80" height="45" as="geometry" />
        </mxCell>
        <mxCell id="_8oUVCLtbDPWLpwGxFnx-38" value="result" style="shape=tape;whiteSpace=wrap;html=1;strokeWidth=1;size=0.19;fillColor=#fff2cc;strokeColor=#d6b656;" parent="1" vertex="1">
          <mxGeometry x="947.31" y="3419" width="80" height="45" as="geometry" />
        </mxCell>
        <mxCell id="_8oUVCLtbDPWLpwGxFnx-39" style="edgeStyle=orthogonalEdgeStyle;rounded=0;orthogonalLoop=1;jettySize=auto;html=1;entryX=0.5;entryY=0;entryDx=0;entryDy=0;" parent="1" source="_8oUVCLtbDPWLpwGxFnx-40" target="_8oUVCLtbDPWLpwGxFnx-30" edge="1">
          <mxGeometry relative="1" as="geometry" />
        </mxCell>
        <mxCell id="_8oUVCLtbDPWLpwGxFnx-40" value="APP1" style="swimlane;fontSize=14;align=center;swimlaneFillColor=#f4f4f4;fillColor=#f5f5f5;startSize=33;container=1;pointerEvents=0;collapsible=0;recursiveResize=0;fontColor=#333333;strokeColor=#666666;" parent="1" vertex="1">
          <mxGeometry x="832.31" y="3329" width="90" height="80" as="geometry" />
        </mxCell>
        <mxCell id="_8oUVCLtbDPWLpwGxFnx-41" value="logic" style="text;html=1;align=center;verticalAlign=middle;resizable=0;points=[];autosize=1;strokeColor=none;fillColor=none;" parent="_8oUVCLtbDPWLpwGxFnx-40" vertex="1">
          <mxGeometry x="20" y="38" width="50" height="30" as="geometry" />
        </mxCell>
        <mxCell id="_8oUVCLtbDPWLpwGxFnx-42" value="result" style="shape=tape;whiteSpace=wrap;html=1;strokeWidth=1;size=0.19;fillColor=#fff2cc;strokeColor=#d6b656;" parent="1" vertex="1">
          <mxGeometry x="837.31" y="3419" width="80" height="45" as="geometry" />
        </mxCell>
        <mxCell id="_8oUVCLtbDPWLpwGxFnx-43" value="Op_Modes" style="swimlane;fontSize=14;align=center;swimlaneFillColor=#f4f4f4;fillColor=#f5f5f5;startSize=33;container=1;pointerEvents=0;collapsible=0;recursiveResize=0;fontColor=#333333;strokeColor=#666666;" parent="1" vertex="1">
          <mxGeometry x="1540" y="3160" width="90" height="80" as="geometry" />
        </mxCell>
        <mxCell id="_8oUVCLtbDPWLpwGxFnx-44" value="logic" style="text;html=1;align=center;verticalAlign=middle;resizable=0;points=[];autosize=1;strokeColor=none;fillColor=none;" parent="_8oUVCLtbDPWLpwGxFnx-43" vertex="1">
          <mxGeometry x="20" y="38" width="50" height="30" as="geometry" />
        </mxCell>
        <mxCell id="_8oUVCLtbDPWLpwGxFnx-45" value="config..." style="shape=tape;whiteSpace=wrap;html=1;strokeWidth=1;size=0.19;fillColor=#fff2cc;strokeColor=#d6b656;" parent="1" vertex="1">
          <mxGeometry x="1545" y="3090" width="80" height="45" as="geometry" />
        </mxCell>
        <mxCell id="_8oUVCLtbDPWLpwGxFnx-59" style="edgeStyle=orthogonalEdgeStyle;rounded=0;orthogonalLoop=1;jettySize=auto;html=1;" parent="1" source="_8oUVCLtbDPWLpwGxFnx-46" target="_8oUVCLtbDPWLpwGxFnx-49" edge="1">
          <mxGeometry relative="1" as="geometry" />
        </mxCell>
        <mxCell id="_8oUVCLtbDPWLpwGxFnx-60" style="edgeStyle=orthogonalEdgeStyle;rounded=0;orthogonalLoop=1;jettySize=auto;html=1;" parent="1" source="_8oUVCLtbDPWLpwGxFnx-46" target="_8oUVCLtbDPWLpwGxFnx-57" edge="1">
          <mxGeometry relative="1" as="geometry" />
        </mxCell>
        <mxCell id="_8oUVCLtbDPWLpwGxFnx-46" value="result" style="shape=tape;whiteSpace=wrap;html=1;strokeWidth=1;size=0.19;fillColor=#fff2cc;strokeColor=#d6b656;" parent="1" vertex="1">
          <mxGeometry x="1545" y="3250" width="80" height="45" as="geometry" />
        </mxCell>
        <mxCell id="_8oUVCLtbDPWLpwGxFnx-47" value="APAR_27" style="swimlane;fontSize=14;align=center;swimlaneFillColor=#f4f4f4;fillColor=#f5f5f5;startSize=33;container=1;pointerEvents=0;collapsible=0;recursiveResize=0;fontColor=#333333;strokeColor=#666666;" parent="1" vertex="1">
          <mxGeometry x="1404" y="3420" width="90" height="80" as="geometry" />
        </mxCell>
        <mxCell id="_8oUVCLtbDPWLpwGxFnx-48" value="logic" style="text;html=1;align=center;verticalAlign=middle;resizable=0;points=[];autosize=1;strokeColor=none;fillColor=none;" parent="_8oUVCLtbDPWLpwGxFnx-47" vertex="1">
          <mxGeometry x="20" y="38" width="50" height="30" as="geometry" />
        </mxCell>
        <mxCell id="_8oUVCLtbDPWLpwGxFnx-49" value="config..." style="shape=tape;whiteSpace=wrap;html=1;strokeWidth=1;size=0.19;fillColor=#fff2cc;strokeColor=#d6b656;" parent="1" vertex="1">
          <mxGeometry x="1409" y="3350" width="80" height="45" as="geometry" />
        </mxCell>
        <mxCell id="_8oUVCLtbDPWLpwGxFnx-50" value="result" style="shape=tape;whiteSpace=wrap;html=1;strokeWidth=1;size=0.19;fillColor=#fff2cc;strokeColor=#d6b656;" parent="1" vertex="1">
          <mxGeometry x="1409" y="3510" width="80" height="45" as="geometry" />
        </mxCell>
        <mxCell id="_8oUVCLtbDPWLpwGxFnx-55" value="APAR_26" style="swimlane;fontSize=14;align=center;swimlaneFillColor=#f4f4f4;fillColor=#f5f5f5;startSize=33;container=1;pointerEvents=0;collapsible=0;recursiveResize=0;fontColor=#333333;strokeColor=#666666;" parent="1" vertex="1">
          <mxGeometry x="1540" y="3420" width="90" height="80" as="geometry" />
        </mxCell>
        <mxCell id="_8oUVCLtbDPWLpwGxFnx-56" value="logic" style="text;html=1;align=center;verticalAlign=middle;resizable=0;points=[];autosize=1;strokeColor=none;fillColor=none;" parent="_8oUVCLtbDPWLpwGxFnx-55" vertex="1">
          <mxGeometry x="20" y="38" width="50" height="30" as="geometry" />
        </mxCell>
        <mxCell id="_8oUVCLtbDPWLpwGxFnx-57" value="config..." style="shape=tape;whiteSpace=wrap;html=1;strokeWidth=1;size=0.19;fillColor=#fff2cc;strokeColor=#d6b656;" parent="1" vertex="1">
          <mxGeometry x="1545" y="3350" width="80" height="45" as="geometry" />
        </mxCell>
        <mxCell id="_8oUVCLtbDPWLpwGxFnx-58" value="result" style="shape=tape;whiteSpace=wrap;html=1;strokeWidth=1;size=0.19;fillColor=#fff2cc;strokeColor=#d6b656;" parent="1" vertex="1">
          <mxGeometry x="1545" y="3510" width="80" height="45" as="geometry" />
        </mxCell>
        <mxCell id="mW661Wxb_hXh5_wubIA_-3" style="rounded=0;orthogonalLoop=1;jettySize=auto;html=1;entryX=0;entryY=0.5;entryDx=0;entryDy=0;edgeStyle=orthogonalEdgeStyle;exitX=0.5;exitY=1;exitDx=0;exitDy=0;exitPerimeter=0;" parent="1" source="38mpf5MFzlCCdVwa-txg-185" target="38mpf5MFzlCCdVwa-txg-221" edge="1">
          <mxGeometry relative="1" as="geometry">
            <mxPoint x="1390" y="2070" as="sourcePoint" />
          </mxGeometry>
        </mxCell>
        <mxCell id="TfzQ6guSoEpV8Mq62_4b-18" value="Brick +&lt;br style=&quot;border-color: var(--border-color); font-size: 12px; text-align: left; background-color: rgb(251, 251, 251);&quot;&gt;&lt;span style=&quot;font-size: 12px; text-align: left; background-color: rgb(251, 251, 251);&quot;&gt;BuildingMOTIF&lt;/span&gt;" style="edgeLabel;html=1;align=center;verticalAlign=middle;resizable=0;points=[];" parent="mW661Wxb_hXh5_wubIA_-3" vertex="1" connectable="0">
          <mxGeometry x="-0.0223" y="-1" relative="1" as="geometry">
            <mxPoint x="-5" y="-18" as="offset" />
          </mxGeometry>
        </mxCell>
        <mxCell id="38mpf5MFzlCCdVwa-txg-191" value="1" style="rounded=1;whiteSpace=wrap;html=1;fillColor=#007CBD;strokeColor=none;fontColor=#FFFFFF;fontStyle=1;fontSize=22;labelBackgroundColor=none;" parent="1" vertex="1">
          <mxGeometry x="1300" y="1938" width="40" height="38" as="geometry" />
        </mxCell>
        <mxCell id="mW661Wxb_hXh5_wubIA_-4" value="" style="image;points=[];aspect=fixed;html=1;align=center;shadow=0;dashed=0;image=img/lib/allied_telesis/computer_and_terminals/Personal_Computer_with_Server.svg;" parent="1" vertex="1">
          <mxGeometry x="903.29" y="2060" width="62.400000000000006" height="62.400000000000006" as="geometry" />
        </mxCell>
        <mxCell id="mW661Wxb_hXh5_wubIA_-14" value="APAR OM" style="swimlane;fontSize=14;align=center;swimlaneFillColor=#f4f4f4;fillColor=#f5f5f5;startSize=33;container=1;pointerEvents=0;collapsible=0;recursiveResize=0;fontColor=#333333;strokeColor=#666666;" parent="1" vertex="1">
          <mxGeometry x="757.6700000000001" y="1092" width="290" height="60" as="geometry" />
        </mxCell>
        <mxCell id="mW661Wxb_hXh5_wubIA_-15" value="definition operational modes" style="text;html=1;align=center;verticalAlign=middle;resizable=0;points=[];autosize=1;strokeColor=none;fillColor=none;" parent="mW661Wxb_hXh5_wubIA_-14" vertex="1">
          <mxGeometry x="60" y="31" width="170" height="30" as="geometry" />
        </mxCell>
        <mxCell id="mW661Wxb_hXh5_wubIA_-18" value="APAR 1" style="swimlane;fontSize=14;align=center;swimlaneFillColor=#f4f4f4;fillColor=#f5f5f5;startSize=33;container=1;pointerEvents=0;collapsible=0;recursiveResize=0;fontColor=#333333;strokeColor=#666666;" parent="1" vertex="1">
          <mxGeometry x="757.6700000000001" y="1162" width="90" height="61" as="geometry" />
        </mxCell>
        <mxCell id="mW661Wxb_hXh5_wubIA_-19" value="logic" style="text;html=1;align=center;verticalAlign=middle;resizable=0;points=[];autosize=1;strokeColor=none;fillColor=none;" parent="mW661Wxb_hXh5_wubIA_-18" vertex="1">
          <mxGeometry x="20" y="31" width="50" height="30" as="geometry" />
        </mxCell>
        <mxCell id="mW661Wxb_hXh5_wubIA_-21" value="[...]" style="swimlane;fontSize=14;align=center;swimlaneFillColor=#f4f4f4;fillColor=#f5f5f5;startSize=33;container=1;pointerEvents=0;collapsible=0;recursiveResize=0;fontColor=#333333;strokeColor=#666666;" parent="1" vertex="1">
          <mxGeometry x="857.6700000000001" y="1162" width="90" height="61" as="geometry" />
        </mxCell>
        <mxCell id="mW661Wxb_hXh5_wubIA_-22" value="logic" style="text;html=1;align=center;verticalAlign=middle;resizable=0;points=[];autosize=1;strokeColor=none;fillColor=none;" parent="mW661Wxb_hXh5_wubIA_-21" vertex="1">
          <mxGeometry x="20" y="31" width="50" height="30" as="geometry" />
        </mxCell>
        <mxCell id="mW661Wxb_hXh5_wubIA_-23" value="APAR n" style="swimlane;fontSize=14;align=center;swimlaneFillColor=#f4f4f4;fillColor=#f5f5f5;startSize=33;container=1;pointerEvents=0;collapsible=0;recursiveResize=0;fontColor=#333333;strokeColor=#666666;" parent="1" vertex="1">
          <mxGeometry x="957.6700000000001" y="1162" width="90" height="61" as="geometry" />
        </mxCell>
        <mxCell id="mW661Wxb_hXh5_wubIA_-24" value="logic" style="text;html=1;align=center;verticalAlign=middle;resizable=0;points=[];autosize=1;strokeColor=none;fillColor=none;" parent="mW661Wxb_hXh5_wubIA_-23" vertex="1">
          <mxGeometry x="20" y="31" width="50" height="30" as="geometry" />
        </mxCell>
        <mxCell id="mW661Wxb_hXh5_wubIA_-38" style="edgeStyle=orthogonalEdgeStyle;rounded=0;orthogonalLoop=1;jettySize=auto;html=1;entryX=0;entryY=0.5;entryDx=0;entryDy=0;entryPerimeter=0;" parent="1" source="mW661Wxb_hXh5_wubIA_-29" target="mW661Wxb_hXh5_wubIA_-37" edge="1">
          <mxGeometry relative="1" as="geometry">
            <Array as="points">
              <mxPoint x="902.76" y="1333" />
              <mxPoint x="697.76" y="1333" />
              <mxPoint x="697.76" y="1008" />
              <mxPoint x="834.76" y="1008" />
            </Array>
          </mxGeometry>
        </mxCell>
        <mxCell id="mW661Wxb_hXh5_wubIA_-39" value="validation of the &lt;br&gt;FDD results on &lt;br&gt;the ground truth" style="edgeLabel;html=1;align=center;verticalAlign=middle;resizable=0;points=[];" parent="mW661Wxb_hXh5_wubIA_-38" vertex="1" connectable="0">
          <mxGeometry x="-0.1105" y="1" relative="1" as="geometry">
            <mxPoint y="-80" as="offset" />
          </mxGeometry>
        </mxCell>
        <mxCell id="mW661Wxb_hXh5_wubIA_-29" value="POST PROCESSING" style="swimlane;fontSize=14;align=center;swimlaneFillColor=#f4f4f4;fillColor=#f5f5f5;startSize=33;container=1;pointerEvents=0;collapsible=0;recursiveResize=0;fontColor=#333333;strokeColor=#666666;" parent="1" vertex="1">
          <mxGeometry x="757.6700000000001" y="1233.25" width="290" height="70" as="geometry" />
        </mxCell>
        <mxCell id="mW661Wxb_hXh5_wubIA_-34" value="Insulation tree to define diagnosis" style="text;html=1;align=center;verticalAlign=middle;resizable=0;points=[];autosize=1;strokeColor=none;fillColor=none;" parent="mW661Wxb_hXh5_wubIA_-29" vertex="1">
          <mxGeometry x="45" y="39.75" width="200" height="30" as="geometry" />
        </mxCell>
        <mxCell id="mW661Wxb_hXh5_wubIA_-40" style="edgeStyle=orthogonalEdgeStyle;rounded=0;orthogonalLoop=1;jettySize=auto;html=1;entryX=0.483;entryY=0.017;entryDx=0;entryDy=0;entryPerimeter=0;" parent="1" source="mW661Wxb_hXh5_wubIA_-37" target="mW661Wxb_hXh5_wubIA_-14" edge="1">
          <mxGeometry relative="1" as="geometry" />
        </mxCell>
        <mxCell id="mW661Wxb_hXh5_wubIA_-37" value="&lt;br&gt;LBNL dataset&lt;br&gt;labelled" style="strokeWidth=1;html=1;shape=mxgraph.flowchart.database;whiteSpace=wrap;fillColor=#f8cecc;strokeColor=#b85450;" parent="1" vertex="1">
          <mxGeometry x="834.6400000000001" y="970" width="126.03" height="75" as="geometry" />
        </mxCell>
        <mxCell id="mW661Wxb_hXh5_wubIA_-41" value="APAR OM" style="swimlane;fontSize=14;align=center;swimlaneFillColor=#f4f4f4;fillColor=#f5f5f5;startSize=33;container=1;pointerEvents=0;collapsible=0;recursiveResize=0;fontColor=#333333;strokeColor=#666666;" parent="1" vertex="1">
          <mxGeometry x="1199.7" y="1082" width="290" height="60" as="geometry" />
        </mxCell>
        <mxCell id="mW661Wxb_hXh5_wubIA_-42" value="definition operational modes" style="text;html=1;align=center;verticalAlign=middle;resizable=0;points=[];autosize=1;strokeColor=none;fillColor=none;" parent="mW661Wxb_hXh5_wubIA_-41" vertex="1">
          <mxGeometry x="60" y="31" width="170" height="30" as="geometry" />
        </mxCell>
        <mxCell id="mW661Wxb_hXh5_wubIA_-43" value="APAR 1" style="swimlane;fontSize=14;align=center;swimlaneFillColor=#f4f4f4;fillColor=#f5f5f5;startSize=33;container=1;pointerEvents=0;collapsible=0;recursiveResize=0;fontColor=#333333;strokeColor=#666666;" parent="1" vertex="1">
          <mxGeometry x="1199.7" y="1152" width="90" height="61" as="geometry" />
        </mxCell>
        <mxCell id="mW661Wxb_hXh5_wubIA_-44" value="logic" style="text;html=1;align=center;verticalAlign=middle;resizable=0;points=[];autosize=1;strokeColor=none;fillColor=none;" parent="mW661Wxb_hXh5_wubIA_-43" vertex="1">
          <mxGeometry x="20" y="31" width="50" height="30" as="geometry" />
        </mxCell>
        <mxCell id="mW661Wxb_hXh5_wubIA_-45" value="[...]" style="swimlane;fontSize=14;align=center;swimlaneFillColor=#f4f4f4;fillColor=#f5f5f5;startSize=33;container=1;pointerEvents=0;collapsible=0;recursiveResize=0;fontColor=#333333;strokeColor=#666666;" parent="1" vertex="1">
          <mxGeometry x="1299.7" y="1152" width="90" height="61" as="geometry" />
        </mxCell>
        <mxCell id="mW661Wxb_hXh5_wubIA_-46" value="logic" style="text;html=1;align=center;verticalAlign=middle;resizable=0;points=[];autosize=1;strokeColor=none;fillColor=none;" parent="mW661Wxb_hXh5_wubIA_-45" vertex="1">
          <mxGeometry x="20" y="31" width="50" height="30" as="geometry" />
        </mxCell>
        <mxCell id="mW661Wxb_hXh5_wubIA_-47" value="APAR n" style="swimlane;fontSize=14;align=center;swimlaneFillColor=#f4f4f4;fillColor=#f5f5f5;startSize=33;container=1;pointerEvents=0;collapsible=0;recursiveResize=0;fontColor=#333333;strokeColor=#666666;" parent="1" vertex="1">
          <mxGeometry x="1399.7" y="1152" width="90" height="61" as="geometry" />
        </mxCell>
        <mxCell id="mW661Wxb_hXh5_wubIA_-48" value="logic" style="text;html=1;align=center;verticalAlign=middle;resizable=0;points=[];autosize=1;strokeColor=none;fillColor=none;" parent="mW661Wxb_hXh5_wubIA_-47" vertex="1">
          <mxGeometry x="20" y="31" width="50" height="30" as="geometry" />
        </mxCell>
        <mxCell id="mW661Wxb_hXh5_wubIA_-51" value="POST PROCESSING" style="swimlane;fontSize=14;align=center;swimlaneFillColor=#f4f4f4;fillColor=#f5f5f5;startSize=33;container=1;pointerEvents=0;collapsible=0;recursiveResize=0;fontColor=#333333;strokeColor=#666666;" parent="1" vertex="1">
          <mxGeometry x="1199.7" y="1223.25" width="290" height="74.75" as="geometry" />
        </mxCell>
        <mxCell id="mW661Wxb_hXh5_wubIA_-52" value="development of data driven processes &lt;br&gt;given labeled data" style="text;html=1;align=center;verticalAlign=middle;resizable=0;points=[];autosize=1;strokeColor=none;fillColor=none;" parent="mW661Wxb_hXh5_wubIA_-51" vertex="1">
          <mxGeometry x="30" y="34.75" width="230" height="40" as="geometry" />
        </mxCell>
        <mxCell id="mW661Wxb_hXh5_wubIA_-53" style="edgeStyle=orthogonalEdgeStyle;rounded=0;orthogonalLoop=1;jettySize=auto;html=1;entryX=0.483;entryY=0.017;entryDx=0;entryDy=0;entryPerimeter=0;" parent="1" source="mW661Wxb_hXh5_wubIA_-54" target="mW661Wxb_hXh5_wubIA_-41" edge="1">
          <mxGeometry relative="1" as="geometry" />
        </mxCell>
        <mxCell id="mW661Wxb_hXh5_wubIA_-54" value="&lt;br&gt;LBNL dataset&lt;br&gt;labelled" style="strokeWidth=1;html=1;shape=mxgraph.flowchart.database;whiteSpace=wrap;fillColor=#f8cecc;strokeColor=#b85450;" parent="1" vertex="1">
          <mxGeometry x="1276.67" y="960" width="126.03" height="75" as="geometry" />
        </mxCell>
        <mxCell id="mW661Wxb_hXh5_wubIA_-55" value="" style="curved=1;endArrow=classic;html=1;rounded=0;entryX=1;entryY=0.25;entryDx=0;entryDy=0;exitX=1;exitY=0.75;exitDx=0;exitDy=0;" parent="1" source="mW661Wxb_hXh5_wubIA_-47" target="mW661Wxb_hXh5_wubIA_-47" edge="1">
          <mxGeometry width="50" height="50" relative="1" as="geometry">
            <mxPoint x="1256.76" y="1250" as="sourcePoint" />
            <mxPoint x="1306.76" y="1200" as="targetPoint" />
            <Array as="points">
              <mxPoint x="1516.76" y="1210" />
              <mxPoint x="1536.76" y="1180" />
              <mxPoint x="1516.76" y="1160" />
            </Array>
          </mxGeometry>
        </mxCell>
        <mxCell id="mW661Wxb_hXh5_wubIA_-56" value="tuning of the &lt;br&gt;site-specific&lt;br&gt;parameters" style="text;html=1;align=center;verticalAlign=middle;resizable=0;points=[];autosize=1;strokeColor=none;fillColor=none;" parent="1" vertex="1">
          <mxGeometry x="1531.76" y="1152.5" width="90" height="60" as="geometry" />
        </mxCell>
        <mxCell id="mW661Wxb_hXh5_wubIA_-57" style="edgeStyle=orthogonalEdgeStyle;rounded=0;orthogonalLoop=1;jettySize=auto;html=1;exitX=0.514;exitY=1.044;exitDx=0;exitDy=0;exitPerimeter=0;" parent="1" source="mW661Wxb_hXh5_wubIA_-52" target="mW661Wxb_hXh5_wubIA_-54" edge="1">
          <mxGeometry relative="1" as="geometry">
            <mxPoint x="912.76" y="1313" as="sourcePoint" />
            <mxPoint x="844.76" y="1018" as="targetPoint" />
            <Array as="points">
              <mxPoint x="1347.76" y="1330" />
              <mxPoint x="1146.76" y="1330" />
              <mxPoint x="1146.76" y="998" />
            </Array>
          </mxGeometry>
        </mxCell>
        <mxCell id="mW661Wxb_hXh5_wubIA_-58" value="validation of the &lt;br&gt;FDD results on &lt;br&gt;the ground truth" style="edgeLabel;html=1;align=center;verticalAlign=middle;resizable=0;points=[];" parent="mW661Wxb_hXh5_wubIA_-57" vertex="1" connectable="0">
          <mxGeometry x="-0.1105" y="1" relative="1" as="geometry">
            <mxPoint y="-80" as="offset" />
          </mxGeometry>
        </mxCell>
        <mxCell id="mW661Wxb_hXh5_wubIA_-75" value="APAR OM" style="swimlane;fontSize=14;align=center;swimlaneFillColor=#f4f4f4;fillColor=#f5f5f5;startSize=33;container=1;pointerEvents=0;collapsible=0;recursiveResize=0;fontColor=#333333;strokeColor=#666666;" parent="1" vertex="1">
          <mxGeometry x="1749.7" y="1082" width="290" height="60" as="geometry" />
        </mxCell>
        <mxCell id="mW661Wxb_hXh5_wubIA_-76" value="definition operational modes" style="text;html=1;align=center;verticalAlign=middle;resizable=0;points=[];autosize=1;strokeColor=none;fillColor=none;" parent="mW661Wxb_hXh5_wubIA_-75" vertex="1">
          <mxGeometry x="60" y="31" width="170" height="30" as="geometry" />
        </mxCell>
        <mxCell id="mW661Wxb_hXh5_wubIA_-77" value="APAR 1" style="swimlane;fontSize=14;align=center;swimlaneFillColor=#f4f4f4;fillColor=#f5f5f5;startSize=33;container=1;pointerEvents=0;collapsible=0;recursiveResize=0;fontColor=#333333;strokeColor=#666666;" parent="1" vertex="1">
          <mxGeometry x="1749.7" y="1152" width="90" height="61" as="geometry" />
        </mxCell>
        <mxCell id="mW661Wxb_hXh5_wubIA_-78" value="logic" style="text;html=1;align=center;verticalAlign=middle;resizable=0;points=[];autosize=1;strokeColor=none;fillColor=none;" parent="mW661Wxb_hXh5_wubIA_-77" vertex="1">
          <mxGeometry x="20" y="31" width="50" height="30" as="geometry" />
        </mxCell>
        <mxCell id="mW661Wxb_hXh5_wubIA_-79" value="[...]" style="swimlane;fontSize=14;align=center;swimlaneFillColor=#f4f4f4;fillColor=#f5f5f5;startSize=33;container=1;pointerEvents=0;collapsible=0;recursiveResize=0;fontColor=#333333;strokeColor=#666666;" parent="1" vertex="1">
          <mxGeometry x="1849.7" y="1152" width="90" height="61" as="geometry" />
        </mxCell>
        <mxCell id="mW661Wxb_hXh5_wubIA_-80" value="logic" style="text;html=1;align=center;verticalAlign=middle;resizable=0;points=[];autosize=1;strokeColor=none;fillColor=none;" parent="mW661Wxb_hXh5_wubIA_-79" vertex="1">
          <mxGeometry x="20" y="31" width="50" height="30" as="geometry" />
        </mxCell>
        <mxCell id="mW661Wxb_hXh5_wubIA_-81" value="APAR n" style="swimlane;fontSize=14;align=center;swimlaneFillColor=#f4f4f4;fillColor=#f5f5f5;startSize=33;container=1;pointerEvents=0;collapsible=0;recursiveResize=0;fontColor=#333333;strokeColor=#666666;" parent="1" vertex="1">
          <mxGeometry x="1949.7" y="1152" width="90" height="61" as="geometry" />
        </mxCell>
        <mxCell id="mW661Wxb_hXh5_wubIA_-82" value="logic" style="text;html=1;align=center;verticalAlign=middle;resizable=0;points=[];autosize=1;strokeColor=none;fillColor=none;" parent="mW661Wxb_hXh5_wubIA_-81" vertex="1">
          <mxGeometry x="20" y="31" width="50" height="30" as="geometry" />
        </mxCell>
        <mxCell id="mW661Wxb_hXh5_wubIA_-83" value="POST PROCESSING" style="swimlane;fontSize=14;align=center;swimlaneFillColor=#f4f4f4;fillColor=#f5f5f5;startSize=33;container=1;pointerEvents=0;collapsible=0;recursiveResize=0;fontColor=#333333;strokeColor=#666666;" parent="1" vertex="1">
          <mxGeometry x="1749.7" y="1223.25" width="290" height="74.75" as="geometry" />
        </mxCell>
        <mxCell id="mW661Wxb_hXh5_wubIA_-84" value="hybrid insulation tree + data driven" style="text;html=1;align=center;verticalAlign=middle;resizable=0;points=[];autosize=1;strokeColor=none;fillColor=none;" parent="mW661Wxb_hXh5_wubIA_-83" vertex="1">
          <mxGeometry x="40" y="39.75" width="210" height="30" as="geometry" />
        </mxCell>
        <mxCell id="mW661Wxb_hXh5_wubIA_-85" style="edgeStyle=orthogonalEdgeStyle;rounded=0;orthogonalLoop=1;jettySize=auto;html=1;entryX=0.483;entryY=0.017;entryDx=0;entryDy=0;entryPerimeter=0;" parent="1" source="mW661Wxb_hXh5_wubIA_-86" target="mW661Wxb_hXh5_wubIA_-75" edge="1">
          <mxGeometry relative="1" as="geometry" />
        </mxCell>
        <mxCell id="mW661Wxb_hXh5_wubIA_-86" value="Mortar dataset&lt;br&gt;unlabelled" style="strokeWidth=1;html=1;shape=mxgraph.flowchart.database;whiteSpace=wrap;fillColor=#f8cecc;strokeColor=#b85450;" parent="1" vertex="1">
          <mxGeometry x="1826.67" y="960" width="126.03" height="75" as="geometry" />
        </mxCell>
        <mxCell id="mW661Wxb_hXh5_wubIA_-87" value="" style="curved=1;endArrow=classic;html=1;rounded=0;entryX=1;entryY=0.25;entryDx=0;entryDy=0;exitX=1;exitY=0.75;exitDx=0;exitDy=0;" parent="1" source="mW661Wxb_hXh5_wubIA_-81" target="mW661Wxb_hXh5_wubIA_-81" edge="1">
          <mxGeometry width="50" height="50" relative="1" as="geometry">
            <mxPoint x="1806.76" y="1250" as="sourcePoint" />
            <mxPoint x="1856.76" y="1200" as="targetPoint" />
            <Array as="points">
              <mxPoint x="2066.76" y="1210" />
              <mxPoint x="2086.76" y="1180" />
              <mxPoint x="2066.76" y="1160" />
            </Array>
          </mxGeometry>
        </mxCell>
        <mxCell id="mW661Wxb_hXh5_wubIA_-88" value="tuning of the &lt;br&gt;site-specific&lt;br&gt;parameters" style="text;html=1;align=center;verticalAlign=middle;resizable=0;points=[];autosize=1;strokeColor=none;fillColor=none;" parent="1" vertex="1">
          <mxGeometry x="2081.76" y="1152.5" width="90" height="60" as="geometry" />
        </mxCell>
        <mxCell id="mW661Wxb_hXh5_wubIA_-89" style="edgeStyle=orthogonalEdgeStyle;rounded=0;orthogonalLoop=1;jettySize=auto;html=1;exitX=0.514;exitY=1.044;exitDx=0;exitDy=0;exitPerimeter=0;" parent="1" source="mW661Wxb_hXh5_wubIA_-84" target="mW661Wxb_hXh5_wubIA_-86" edge="1">
          <mxGeometry relative="1" as="geometry">
            <mxPoint x="1462.76" y="1313" as="sourcePoint" />
            <mxPoint x="1394.76" y="1018" as="targetPoint" />
            <Array as="points">
              <mxPoint x="1897.76" y="1330" />
              <mxPoint x="1696.76" y="1330" />
              <mxPoint x="1696.76" y="998" />
            </Array>
          </mxGeometry>
        </mxCell>
        <mxCell id="mW661Wxb_hXh5_wubIA_-90" value="tag of possible&lt;br&gt;faults and&lt;br&gt;verification" style="edgeLabel;html=1;align=center;verticalAlign=middle;resizable=0;points=[];" parent="mW661Wxb_hXh5_wubIA_-89" vertex="1" connectable="0">
          <mxGeometry x="-0.1105" y="1" relative="1" as="geometry">
            <mxPoint y="-80" as="offset" />
          </mxGeometry>
        </mxCell>
        <mxCell id="TfzQ6guSoEpV8Mq62_4b-10" style="rounded=0;orthogonalLoop=1;jettySize=auto;html=1;entryX=-0.005;entryY=0.478;entryDx=0;entryDy=0;entryPerimeter=0;startArrow=classic;startFill=1;endArrow=none;endFill=0;exitX=1;exitY=0.5;exitDx=0;exitDy=0;exitPerimeter=0;" parent="1" source="TfzQ6guSoEpV8Mq62_4b-9" target="38mpf5MFzlCCdVwa-txg-237" edge="1">
          <mxGeometry relative="1" as="geometry">
            <mxPoint x="1664" y="2299" as="sourcePoint" />
            <mxPoint x="1735" y="2299" as="targetPoint" />
          </mxGeometry>
        </mxCell>
        <mxCell id="38mpf5MFzlCCdVwa-txg-263" style="rounded=0;orthogonalLoop=1;jettySize=auto;html=1;entryX=0.54;entryY=0.111;entryDx=0;entryDy=0;entryPerimeter=0;" parent="1" source="38mpf5MFzlCCdVwa-txg-210" target="TfzQ6guSoEpV8Mq62_4b-23" edge="1">
          <mxGeometry relative="1" as="geometry" />
        </mxCell>
        <mxCell id="TfzQ6guSoEpV8Mq62_4b-28" style="edgeStyle=orthogonalEdgeStyle;rounded=0;orthogonalLoop=1;jettySize=auto;html=1;entryX=0;entryY=0;entryDx=267.57;entryDy=25;entryPerimeter=0;" parent="1" source="TfzQ6guSoEpV8Mq62_4b-23" target="TfzQ6guSoEpV8Mq62_4b-19" edge="1">
          <mxGeometry relative="1" as="geometry">
            <Array as="points">
              <mxPoint x="1730" y="2772" />
              <mxPoint x="1730" y="2625" />
            </Array>
          </mxGeometry>
        </mxCell>
        <mxCell id="TfzQ6guSoEpV8Mq62_4b-29" value="tune&lt;br style=&quot;border-color: var(--border-color);&quot;&gt;algorithms&lt;br style=&quot;border-color: var(--border-color);&quot;&gt;parameters" style="edgeLabel;html=1;align=center;verticalAlign=middle;resizable=0;points=[];" parent="TfzQ6guSoEpV8Mq62_4b-28" vertex="1" connectable="0">
          <mxGeometry x="-0.0959" y="2" relative="1" as="geometry">
            <mxPoint x="-3" y="53" as="offset" />
          </mxGeometry>
        </mxCell>
        <mxCell id="TfzQ6guSoEpV8Mq62_4b-23" value="parameters" style="shape=tape;whiteSpace=wrap;html=1;strokeWidth=1;size=0.19;fillColor=#fff2cc;strokeColor=#d6b656;" parent="1" vertex="1">
          <mxGeometry x="1547.57" y="2750" width="94" height="45" as="geometry" />
        </mxCell>
        <mxCell id="p9Uy8gffJhNtWBo6-khr-4" style="edgeStyle=orthogonalEdgeStyle;rounded=0;orthogonalLoop=1;jettySize=auto;html=1;" parent="1" source="5t6KQfLwHckLR9xOiEwa-7" target="yFQkwnReDN67ldA8QRQD-58" edge="1">
          <mxGeometry relative="1" as="geometry" />
        </mxCell>
        <mxCell id="5t6KQfLwHckLR9xOiEwa-7" value="fetch timeseries" style="rounded=1;whiteSpace=wrap;html=1;" parent="1" vertex="1">
          <mxGeometry x="-895" y="2997" width="120" height="35.5" as="geometry" />
        </mxCell>
        <mxCell id="5t6KQfLwHckLR9xOiEwa-20" style="edgeStyle=orthogonalEdgeStyle;rounded=0;orthogonalLoop=1;jettySize=auto;html=1;entryX=0.5;entryY=0;entryDx=0;entryDy=0;fillColor=#dae8fc;strokeColor=#6c8ebf;" parent="1" source="5t6KQfLwHckLR9xOiEwa-8" target="yFQkwnReDN67ldA8QRQD-69" edge="1">
          <mxGeometry relative="1" as="geometry">
            <mxPoint x="-580" y="2629.5" as="targetPoint" />
          </mxGeometry>
        </mxCell>
        <mxCell id="5t6KQfLwHckLR9xOiEwa-8" value="metadata inspection" style="rounded=1;whiteSpace=wrap;html=1;" parent="1" vertex="1">
          <mxGeometry x="-895" y="2890" width="120" height="26.5" as="geometry" />
        </mxCell>
        <mxCell id="vZtjYWwceH9JSBGlt6C5-2" style="edgeStyle=orthogonalEdgeStyle;rounded=0;orthogonalLoop=1;jettySize=auto;html=1;entryX=0;entryY=0.5;entryDx=0;entryDy=0;" parent="1" source="5t6KQfLwHckLR9xOiEwa-11" target="yFQkwnReDN67ldA8QRQD-39" edge="1">
          <mxGeometry relative="1" as="geometry" />
        </mxCell>
        <mxCell id="vZtjYWwceH9JSBGlt6C5-3" style="edgeStyle=orthogonalEdgeStyle;rounded=0;orthogonalLoop=1;jettySize=auto;html=1;entryX=0;entryY=0.5;entryDx=0;entryDy=0;" parent="1" source="5t6KQfLwHckLR9xOiEwa-11" target="p9Uy8gffJhNtWBo6-khr-6" edge="1">
          <mxGeometry relative="1" as="geometry" />
        </mxCell>
        <mxCell id="vZtjYWwceH9JSBGlt6C5-4" style="edgeStyle=orthogonalEdgeStyle;rounded=0;orthogonalLoop=1;jettySize=auto;html=1;entryX=0;entryY=0.5;entryDx=0;entryDy=0;" parent="1" source="5t6KQfLwHckLR9xOiEwa-11" target="yFQkwnReDN67ldA8QRQD-15" edge="1">
          <mxGeometry relative="1" as="geometry" />
        </mxCell>
        <mxCell id="vZtjYWwceH9JSBGlt6C5-5" style="edgeStyle=orthogonalEdgeStyle;rounded=0;orthogonalLoop=1;jettySize=auto;html=1;entryX=0;entryY=0.5;entryDx=0;entryDy=0;" parent="1" source="5t6KQfLwHckLR9xOiEwa-11" target="yFQkwnReDN67ldA8QRQD-30" edge="1">
          <mxGeometry relative="1" as="geometry" />
        </mxCell>
        <mxCell id="5t6KQfLwHckLR9xOiEwa-11" value="preprocessing" style="rounded=1;whiteSpace=wrap;html=1;" parent="1" vertex="1">
          <mxGeometry x="-895" y="3107.5" width="120" height="35.5" as="geometry" />
        </mxCell>
        <mxCell id="5t6KQfLwHckLR9xOiEwa-39" value="" style="shape=umlActor;verticalLabelPosition=bottom;verticalAlign=top;html=1;outlineConnect=0;" parent="1" vertex="1">
          <mxGeometry x="-890" y="3228.38" width="30" height="60" as="geometry" />
        </mxCell>
        <mxCell id="5t6KQfLwHckLR9xOiEwa-49" value="It is not possible to define OM and apply APAR proceed with unsupervised data driven (residual analysis from the historical data)" style="rounded=0;whiteSpace=wrap;html=1;" parent="1" vertex="1">
          <mxGeometry x="-542" y="3476" width="271.5" height="70" as="geometry" />
        </mxCell>
        <mxCell id="vZtjYWwceH9JSBGlt6C5-1" style="edgeStyle=orthogonalEdgeStyle;rounded=0;orthogonalLoop=1;jettySize=auto;html=1;" parent="1" source="yFQkwnReDN67ldA8QRQD-58" target="5t6KQfLwHckLR9xOiEwa-11" edge="1">
          <mxGeometry relative="1" as="geometry" />
        </mxCell>
        <mxCell id="yFQkwnReDN67ldA8QRQD-58" value="Sensors check" style="swimlane;fontStyle=0;childLayout=stackLayout;horizontal=1;startSize=30;horizontalStack=0;resizeParent=1;resizeParentMax=0;resizeLast=0;collapsible=1;marginBottom=0;whiteSpace=wrap;html=1;fillColor=#d5e8d4;strokeColor=#82b366;" parent="1" vertex="1" collapsed="1">
          <mxGeometry x="-895" y="3055" width="120" height="30" as="geometry">
            <mxRectangle x="-710" y="2279" width="193" height="270" as="alternateBounds" />
          </mxGeometry>
        </mxCell>
        <mxCell id="yFQkwnReDN67ldA8QRQD-59" value="Cooling valve command" style="text;strokeColor=none;fillColor=none;align=left;verticalAlign=middle;spacingLeft=4;spacingRight=4;overflow=hidden;points=[[0,0.5],[1,0.5]];portConstraint=eastwest;rotatable=0;whiteSpace=wrap;html=1;" parent="yFQkwnReDN67ldA8QRQD-58" vertex="1">
          <mxGeometry y="30" width="193" height="30" as="geometry" />
        </mxCell>
        <mxCell id="yFQkwnReDN67ldA8QRQD-60" value="Heating Valve command" style="text;strokeColor=none;fillColor=none;align=left;verticalAlign=middle;spacingLeft=4;spacingRight=4;overflow=hidden;points=[[0,0.5],[1,0.5]];portConstraint=eastwest;rotatable=0;whiteSpace=wrap;html=1;" parent="yFQkwnReDN67ldA8QRQD-58" vertex="1">
          <mxGeometry y="60" width="193" height="30" as="geometry" />
        </mxCell>
        <mxCell id="yFQkwnReDN67ldA8QRQD-61" value="Damper position command&lt;span id=&quot;docs-internal-guid-c9d95567-7fff-65c0-3d32-e3342411f6ec&quot;&gt;&lt;/span&gt;" style="text;strokeColor=none;fillColor=none;align=left;verticalAlign=middle;spacingLeft=4;spacingRight=4;overflow=hidden;points=[[0,0.5],[1,0.5]];portConstraint=eastwest;rotatable=0;whiteSpace=wrap;html=1;" parent="yFQkwnReDN67ldA8QRQD-58" vertex="1">
          <mxGeometry y="90" width="193" height="30" as="geometry" />
        </mxCell>
        <mxCell id="yFQkwnReDN67ldA8QRQD-62" value="Supply air temperature setpoint" style="text;strokeColor=none;fillColor=none;align=left;verticalAlign=middle;spacingLeft=4;spacingRight=4;overflow=hidden;points=[[0,0.5],[1,0.5]];portConstraint=eastwest;rotatable=0;whiteSpace=wrap;html=1;" parent="yFQkwnReDN67ldA8QRQD-58" vertex="1">
          <mxGeometry y="120" width="193" height="30" as="geometry" />
        </mxCell>
        <mxCell id="yFQkwnReDN67ldA8QRQD-63" value="Supply air temperature" style="text;strokeColor=none;fillColor=none;align=left;verticalAlign=middle;spacingLeft=4;spacingRight=4;overflow=hidden;points=[[0,0.5],[1,0.5]];portConstraint=eastwest;rotatable=0;whiteSpace=wrap;html=1;fontColor=#3333FF;fontStyle=1" parent="yFQkwnReDN67ldA8QRQD-58" vertex="1">
          <mxGeometry y="150" width="193" height="30" as="geometry" />
        </mxCell>
        <mxCell id="yFQkwnReDN67ldA8QRQD-64" value="Return air temperature" style="text;strokeColor=none;fillColor=none;align=left;verticalAlign=middle;spacingLeft=4;spacingRight=4;overflow=hidden;points=[[0,0.5],[1,0.5]];portConstraint=eastwest;rotatable=0;whiteSpace=wrap;html=1;fontColor=#3333FF;fontStyle=1" parent="yFQkwnReDN67ldA8QRQD-58" vertex="1">
          <mxGeometry y="180" width="193" height="30" as="geometry" />
        </mxCell>
        <mxCell id="yFQkwnReDN67ldA8QRQD-65" value="Outdoor air temperature" style="text;strokeColor=none;fillColor=none;align=left;verticalAlign=middle;spacingLeft=4;spacingRight=4;overflow=hidden;points=[[0,0.5],[1,0.5]];portConstraint=eastwest;rotatable=0;whiteSpace=wrap;html=1;fontColor=#3333FF;fontStyle=1" parent="yFQkwnReDN67ldA8QRQD-58" vertex="1">
          <mxGeometry y="210" width="193" height="30" as="geometry" />
        </mxCell>
        <mxCell id="yFQkwnReDN67ldA8QRQD-66" value="Mixed air temperature" style="text;strokeColor=none;fillColor=none;align=left;verticalAlign=middle;spacingLeft=4;spacingRight=4;overflow=hidden;points=[[0,0.5],[1,0.5]];portConstraint=eastwest;rotatable=0;whiteSpace=wrap;html=1;fontColor=#3333FF;fontStyle=1" parent="yFQkwnReDN67ldA8QRQD-58" vertex="1">
          <mxGeometry y="240" width="193" height="30" as="geometry" />
        </mxCell>
        <mxCell id="p9Uy8gffJhNtWBo6-khr-3" style="edgeStyle=orthogonalEdgeStyle;rounded=0;orthogonalLoop=1;jettySize=auto;html=1;" parent="1" source="yFQkwnReDN67ldA8QRQD-69" target="5t6KQfLwHckLR9xOiEwa-7" edge="1">
          <mxGeometry relative="1" as="geometry" />
        </mxCell>
        <mxCell id="yFQkwnReDN67ldA8QRQD-69" value="Variables check" style="swimlane;fontStyle=0;childLayout=stackLayout;horizontal=1;startSize=30;horizontalStack=0;resizeParent=1;resizeParentMax=0;resizeLast=0;collapsible=1;marginBottom=0;whiteSpace=wrap;html=1;fillColor=#d5e8d4;strokeColor=#82b366;" parent="1" vertex="1" collapsed="1">
          <mxGeometry x="-895" y="2944" width="120" height="30" as="geometry">
            <mxRectangle x="-710" y="1856.5" width="193" height="270" as="alternateBounds" />
          </mxGeometry>
        </mxCell>
        <mxCell id="yFQkwnReDN67ldA8QRQD-70" value="Cooling valve command" style="text;strokeColor=none;fillColor=none;align=left;verticalAlign=middle;spacingLeft=4;spacingRight=4;overflow=hidden;points=[[0,0.5],[1,0.5]];portConstraint=eastwest;rotatable=0;whiteSpace=wrap;html=1;" parent="yFQkwnReDN67ldA8QRQD-69" vertex="1">
          <mxGeometry y="30" width="193" height="30" as="geometry" />
        </mxCell>
        <mxCell id="yFQkwnReDN67ldA8QRQD-71" value="Heating Valve command" style="text;strokeColor=none;fillColor=none;align=left;verticalAlign=middle;spacingLeft=4;spacingRight=4;overflow=hidden;points=[[0,0.5],[1,0.5]];portConstraint=eastwest;rotatable=0;whiteSpace=wrap;html=1;" parent="yFQkwnReDN67ldA8QRQD-69" vertex="1">
          <mxGeometry y="60" width="193" height="30" as="geometry" />
        </mxCell>
        <mxCell id="yFQkwnReDN67ldA8QRQD-72" value="Damper position command&lt;span id=&quot;docs-internal-guid-c9d95567-7fff-65c0-3d32-e3342411f6ec&quot;&gt;&lt;/span&gt;" style="text;strokeColor=none;fillColor=none;align=left;verticalAlign=middle;spacingLeft=4;spacingRight=4;overflow=hidden;points=[[0,0.5],[1,0.5]];portConstraint=eastwest;rotatable=0;whiteSpace=wrap;html=1;" parent="yFQkwnReDN67ldA8QRQD-69" vertex="1">
          <mxGeometry y="90" width="193" height="30" as="geometry" />
        </mxCell>
        <mxCell id="yFQkwnReDN67ldA8QRQD-73" value="Supply air temperature setpoint" style="text;strokeColor=none;fillColor=none;align=left;verticalAlign=middle;spacingLeft=4;spacingRight=4;overflow=hidden;points=[[0,0.5],[1,0.5]];portConstraint=eastwest;rotatable=0;whiteSpace=wrap;html=1;" parent="yFQkwnReDN67ldA8QRQD-69" vertex="1">
          <mxGeometry y="120" width="193" height="30" as="geometry" />
        </mxCell>
        <mxCell id="yFQkwnReDN67ldA8QRQD-74" value="Supply air temperature" style="text;strokeColor=none;fillColor=none;align=left;verticalAlign=middle;spacingLeft=4;spacingRight=4;overflow=hidden;points=[[0,0.5],[1,0.5]];portConstraint=eastwest;rotatable=0;whiteSpace=wrap;html=1;fontColor=#000000;fontStyle=0" parent="yFQkwnReDN67ldA8QRQD-69" vertex="1">
          <mxGeometry y="150" width="193" height="30" as="geometry" />
        </mxCell>
        <mxCell id="yFQkwnReDN67ldA8QRQD-75" value="Return air temperature" style="text;strokeColor=none;fillColor=none;align=left;verticalAlign=middle;spacingLeft=4;spacingRight=4;overflow=hidden;points=[[0,0.5],[1,0.5]];portConstraint=eastwest;rotatable=0;whiteSpace=wrap;html=1;fontColor=#000000;fontStyle=0" parent="yFQkwnReDN67ldA8QRQD-69" vertex="1">
          <mxGeometry y="180" width="193" height="30" as="geometry" />
        </mxCell>
        <mxCell id="yFQkwnReDN67ldA8QRQD-76" value="Outdoor air temperature" style="text;strokeColor=none;fillColor=none;align=left;verticalAlign=middle;spacingLeft=4;spacingRight=4;overflow=hidden;points=[[0,0.5],[1,0.5]];portConstraint=eastwest;rotatable=0;whiteSpace=wrap;html=1;fontColor=#000000;fontStyle=0" parent="yFQkwnReDN67ldA8QRQD-69" vertex="1">
          <mxGeometry y="210" width="193" height="30" as="geometry" />
        </mxCell>
        <mxCell id="yFQkwnReDN67ldA8QRQD-77" value="Mixed air temperature" style="text;strokeColor=none;fillColor=none;align=left;verticalAlign=middle;spacingLeft=4;spacingRight=4;overflow=hidden;points=[[0,0.5],[1,0.5]];portConstraint=eastwest;rotatable=0;whiteSpace=wrap;html=1;fontColor=#000000;fontStyle=0" parent="yFQkwnReDN67ldA8QRQD-69" vertex="1">
          <mxGeometry y="240" width="193" height="30" as="geometry" />
        </mxCell>
        <mxCell id="p9Uy8gffJhNtWBo6-khr-32" style="edgeStyle=orthogonalEdgeStyle;rounded=0;orthogonalLoop=1;jettySize=auto;html=1;entryX=0.5;entryY=0;entryDx=0;entryDy=0;exitX=1;exitY=0.5;exitDx=0;exitDy=0;" parent="1" source="p9Uy8gffJhNtWBo6-khr-72" target="p9Uy8gffJhNtWBo6-khr-80" edge="1">
          <mxGeometry relative="1" as="geometry">
            <mxPoint x="-323" y="3169.9999999999995" as="sourcePoint" />
            <Array as="points">
              <mxPoint x="-290" y="3258" />
              <mxPoint x="-290" y="2840" />
              <mxPoint x="-730" y="2840" />
            </Array>
          </mxGeometry>
        </mxCell>
        <mxCell id="p9Uy8gffJhNtWBo6-khr-73" value="YES&lt;br&gt;proceed to &lt;br&gt;correction" style="edgeLabel;html=1;align=center;verticalAlign=middle;resizable=0;points=[];" parent="p9Uy8gffJhNtWBo6-khr-32" vertex="1" connectable="0">
          <mxGeometry x="-0.9341" relative="1" as="geometry">
            <mxPoint x="6" y="-168" as="offset" />
          </mxGeometry>
        </mxCell>
        <mxCell id="vZtjYWwceH9JSBGlt6C5-17" style="edgeStyle=orthogonalEdgeStyle;rounded=0;orthogonalLoop=1;jettySize=auto;html=1;entryX=0.5;entryY=0;entryDx=0;entryDy=0;" parent="1" source="p9Uy8gffJhNtWBo6-khr-33" target="vZtjYWwceH9JSBGlt6C5-8" edge="1">
          <mxGeometry relative="1" as="geometry" />
        </mxCell>
        <mxCell id="p9Uy8gffJhNtWBo6-khr-33" value="define operational modes" style="rounded=0;whiteSpace=wrap;html=1;" parent="1" vertex="1">
          <mxGeometry x="-810" y="3398" width="180" height="40" as="geometry" />
        </mxCell>
        <mxCell id="p9Uy8gffJhNtWBo6-khr-60" style="edgeStyle=orthogonalEdgeStyle;rounded=0;orthogonalLoop=1;jettySize=auto;html=1;entryX=0.5;entryY=0;entryDx=0;entryDy=0;" parent="1" source="p9Uy8gffJhNtWBo6-khr-37" target="5t6KQfLwHckLR9xOiEwa-49" edge="1">
          <mxGeometry relative="1" as="geometry" />
        </mxCell>
        <mxCell id="p9Uy8gffJhNtWBo6-khr-37" value="&lt;div style=&quot;text-align: center;&quot;&gt;&lt;span style=&quot;background-color: initial;&quot;&gt;&amp;nbsp;No knowledge about AHU operation, the user cannot act on control strategy, is unable to correct or simply the AHU is controlled in a custom way&lt;br&gt;&lt;/span&gt;&lt;/div&gt;" style="rounded=0;whiteSpace=wrap;html=1;align=left;" parent="1" vertex="1">
          <mxGeometry x="-531.5" y="3329" width="250.5" height="78" as="geometry" />
        </mxCell>
        <mxCell id="p9Uy8gffJhNtWBo6-khr-6" value="Minimum OA check" style="swimlane;fontStyle=0;childLayout=stackLayout;horizontal=1;startSize=30;horizontalStack=0;resizeParent=1;resizeParentMax=0;resizeLast=0;collapsible=1;marginBottom=0;whiteSpace=wrap;html=1;fillColor=#d5e8d4;strokeColor=#82b366;" parent="1" vertex="1" collapsed="1">
          <mxGeometry x="-710" y="3110" width="140" height="30" as="geometry">
            <mxRectangle x="45" y="51.289999999999964" width="193" height="270" as="alternateBounds" />
          </mxGeometry>
        </mxCell>
        <mxCell id="p9Uy8gffJhNtWBo6-khr-7" value="Cooling valve command" style="text;strokeColor=none;fillColor=none;align=left;verticalAlign=middle;spacingLeft=4;spacingRight=4;overflow=hidden;points=[[0,0.5],[1,0.5]];portConstraint=eastwest;rotatable=0;whiteSpace=wrap;html=1;" parent="p9Uy8gffJhNtWBo6-khr-6" vertex="1">
          <mxGeometry y="30" width="193" height="30" as="geometry" />
        </mxCell>
        <mxCell id="p9Uy8gffJhNtWBo6-khr-8" value="Heating Valve command" style="text;strokeColor=none;fillColor=none;align=left;verticalAlign=middle;spacingLeft=4;spacingRight=4;overflow=hidden;points=[[0,0.5],[1,0.5]];portConstraint=eastwest;rotatable=0;whiteSpace=wrap;html=1;" parent="p9Uy8gffJhNtWBo6-khr-6" vertex="1">
          <mxGeometry y="60" width="193" height="30" as="geometry" />
        </mxCell>
        <mxCell id="p9Uy8gffJhNtWBo6-khr-9" value="Damper position command&lt;span id=&quot;docs-internal-guid-c9d95567-7fff-65c0-3d32-e3342411f6ec&quot;&gt;&lt;/span&gt;" style="text;strokeColor=none;fillColor=none;align=left;verticalAlign=middle;spacingLeft=4;spacingRight=4;overflow=hidden;points=[[0,0.5],[1,0.5]];portConstraint=eastwest;rotatable=0;whiteSpace=wrap;html=1;fontStyle=1;fontColor=#3333FF;" parent="p9Uy8gffJhNtWBo6-khr-6" vertex="1">
          <mxGeometry y="90" width="193" height="30" as="geometry" />
        </mxCell>
        <mxCell id="p9Uy8gffJhNtWBo6-khr-10" value="Supply air temperature setpoint" style="text;strokeColor=none;fillColor=none;align=left;verticalAlign=middle;spacingLeft=4;spacingRight=4;overflow=hidden;points=[[0,0.5],[1,0.5]];portConstraint=eastwest;rotatable=0;whiteSpace=wrap;html=1;" parent="p9Uy8gffJhNtWBo6-khr-6" vertex="1">
          <mxGeometry y="120" width="193" height="30" as="geometry" />
        </mxCell>
        <mxCell id="p9Uy8gffJhNtWBo6-khr-11" value="Supply air temperature" style="text;strokeColor=none;fillColor=none;align=left;verticalAlign=middle;spacingLeft=4;spacingRight=4;overflow=hidden;points=[[0,0.5],[1,0.5]];portConstraint=eastwest;rotatable=0;whiteSpace=wrap;html=1;" parent="p9Uy8gffJhNtWBo6-khr-6" vertex="1">
          <mxGeometry y="150" width="193" height="30" as="geometry" />
        </mxCell>
        <mxCell id="p9Uy8gffJhNtWBo6-khr-12" value="Return air temperature" style="text;strokeColor=none;fillColor=none;align=left;verticalAlign=middle;spacingLeft=4;spacingRight=4;overflow=hidden;points=[[0,0.5],[1,0.5]];portConstraint=eastwest;rotatable=0;whiteSpace=wrap;html=1;" parent="p9Uy8gffJhNtWBo6-khr-6" vertex="1">
          <mxGeometry y="180" width="193" height="30" as="geometry" />
        </mxCell>
        <mxCell id="p9Uy8gffJhNtWBo6-khr-13" value="Outdoor air temperature" style="text;strokeColor=none;fillColor=none;align=left;verticalAlign=middle;spacingLeft=4;spacingRight=4;overflow=hidden;points=[[0,0.5],[1,0.5]];portConstraint=eastwest;rotatable=0;whiteSpace=wrap;html=1;" parent="p9Uy8gffJhNtWBo6-khr-6" vertex="1">
          <mxGeometry y="210" width="193" height="30" as="geometry" />
        </mxCell>
        <mxCell id="p9Uy8gffJhNtWBo6-khr-14" value="Mixed air temperature" style="text;strokeColor=none;fillColor=none;align=left;verticalAlign=middle;spacingLeft=4;spacingRight=4;overflow=hidden;points=[[0,0.5],[1,0.5]];portConstraint=eastwest;rotatable=0;whiteSpace=wrap;html=1;" parent="p9Uy8gffJhNtWBo6-khr-6" vertex="1">
          <mxGeometry y="240" width="193" height="30" as="geometry" />
        </mxCell>
        <mxCell id="yFQkwnReDN67ldA8QRQD-15" value="Damper check" style="swimlane;fontStyle=0;childLayout=stackLayout;horizontal=1;startSize=30;horizontalStack=0;resizeParent=1;resizeParentMax=0;resizeLast=0;collapsible=1;marginBottom=0;whiteSpace=wrap;html=1;fillColor=#d5e8d4;strokeColor=#82b366;" parent="1" vertex="1" collapsed="1">
          <mxGeometry x="-710" y="3060" width="120" height="30" as="geometry">
            <mxRectangle x="267" y="51.289999999999964" width="193" height="270" as="alternateBounds" />
          </mxGeometry>
        </mxCell>
        <mxCell id="yFQkwnReDN67ldA8QRQD-16" value="Cooling valve command" style="text;strokeColor=none;fillColor=none;align=left;verticalAlign=middle;spacingLeft=4;spacingRight=4;overflow=hidden;points=[[0,0.5],[1,0.5]];portConstraint=eastwest;rotatable=0;whiteSpace=wrap;html=1;" parent="yFQkwnReDN67ldA8QRQD-15" vertex="1">
          <mxGeometry y="30" width="193" height="30" as="geometry" />
        </mxCell>
        <mxCell id="yFQkwnReDN67ldA8QRQD-18" value="Heating Valve command" style="text;strokeColor=none;fillColor=none;align=left;verticalAlign=middle;spacingLeft=4;spacingRight=4;overflow=hidden;points=[[0,0.5],[1,0.5]];portConstraint=eastwest;rotatable=0;whiteSpace=wrap;html=1;" parent="yFQkwnReDN67ldA8QRQD-15" vertex="1">
          <mxGeometry y="60" width="193" height="30" as="geometry" />
        </mxCell>
        <mxCell id="yFQkwnReDN67ldA8QRQD-17" value="Damper position command&lt;span id=&quot;docs-internal-guid-c9d95567-7fff-65c0-3d32-e3342411f6ec&quot;&gt;&lt;/span&gt;" style="text;strokeColor=none;fillColor=none;align=left;verticalAlign=middle;spacingLeft=4;spacingRight=4;overflow=hidden;points=[[0,0.5],[1,0.5]];portConstraint=eastwest;rotatable=0;whiteSpace=wrap;html=1;fontStyle=1;fontColor=#3333FF;" parent="yFQkwnReDN67ldA8QRQD-15" vertex="1">
          <mxGeometry y="90" width="193" height="30" as="geometry" />
        </mxCell>
        <mxCell id="yFQkwnReDN67ldA8QRQD-20" value="Supply air temperature setpoint" style="text;strokeColor=none;fillColor=none;align=left;verticalAlign=middle;spacingLeft=4;spacingRight=4;overflow=hidden;points=[[0,0.5],[1,0.5]];portConstraint=eastwest;rotatable=0;whiteSpace=wrap;html=1;" parent="yFQkwnReDN67ldA8QRQD-15" vertex="1">
          <mxGeometry y="120" width="193" height="30" as="geometry" />
        </mxCell>
        <mxCell id="yFQkwnReDN67ldA8QRQD-21" value="Supply air temperature" style="text;strokeColor=none;fillColor=none;align=left;verticalAlign=middle;spacingLeft=4;spacingRight=4;overflow=hidden;points=[[0,0.5],[1,0.5]];portConstraint=eastwest;rotatable=0;whiteSpace=wrap;html=1;" parent="yFQkwnReDN67ldA8QRQD-15" vertex="1">
          <mxGeometry y="150" width="193" height="30" as="geometry" />
        </mxCell>
        <mxCell id="yFQkwnReDN67ldA8QRQD-22" value="Return air temperature" style="text;strokeColor=none;fillColor=none;align=left;verticalAlign=middle;spacingLeft=4;spacingRight=4;overflow=hidden;points=[[0,0.5],[1,0.5]];portConstraint=eastwest;rotatable=0;whiteSpace=wrap;html=1;" parent="yFQkwnReDN67ldA8QRQD-15" vertex="1">
          <mxGeometry y="180" width="193" height="30" as="geometry" />
        </mxCell>
        <mxCell id="yFQkwnReDN67ldA8QRQD-24" value="Outdoor air temperature" style="text;strokeColor=none;fillColor=none;align=left;verticalAlign=middle;spacingLeft=4;spacingRight=4;overflow=hidden;points=[[0,0.5],[1,0.5]];portConstraint=eastwest;rotatable=0;whiteSpace=wrap;html=1;" parent="yFQkwnReDN67ldA8QRQD-15" vertex="1">
          <mxGeometry y="210" width="193" height="30" as="geometry" />
        </mxCell>
        <mxCell id="yFQkwnReDN67ldA8QRQD-23" value="Mixed air temperature" style="text;strokeColor=none;fillColor=none;align=left;verticalAlign=middle;spacingLeft=4;spacingRight=4;overflow=hidden;points=[[0,0.5],[1,0.5]];portConstraint=eastwest;rotatable=0;whiteSpace=wrap;html=1;" parent="yFQkwnReDN67ldA8QRQD-15" vertex="1">
          <mxGeometry y="240" width="193" height="30" as="geometry" />
        </mxCell>
        <mxCell id="yFQkwnReDN67ldA8QRQD-30" value="H/C check" style="swimlane;fontStyle=0;childLayout=stackLayout;horizontal=1;startSize=30;horizontalStack=0;resizeParent=1;resizeParentMax=0;resizeLast=0;collapsible=1;marginBottom=0;whiteSpace=wrap;html=1;fillColor=#d5e8d4;strokeColor=#82b366;" parent="1" vertex="1" collapsed="1">
          <mxGeometry x="-710" y="3010" width="100" height="30" as="geometry">
            <mxRectangle x="490" y="51.289999999999964" width="193" height="270" as="alternateBounds" />
          </mxGeometry>
        </mxCell>
        <mxCell id="yFQkwnReDN67ldA8QRQD-31" value="&lt;b&gt;&lt;font color=&quot;#3333ff&quot;&gt;Cooling valve command&lt;/font&gt;&lt;/b&gt;" style="text;strokeColor=none;fillColor=none;align=left;verticalAlign=middle;spacingLeft=4;spacingRight=4;overflow=hidden;points=[[0,0.5],[1,0.5]];portConstraint=eastwest;rotatable=0;whiteSpace=wrap;html=1;" parent="yFQkwnReDN67ldA8QRQD-30" vertex="1">
          <mxGeometry y="30" width="193" height="30" as="geometry" />
        </mxCell>
        <mxCell id="yFQkwnReDN67ldA8QRQD-32" value="&lt;b&gt;&lt;font color=&quot;#3333ff&quot;&gt;Heating Valve command&lt;/font&gt;&lt;/b&gt;" style="text;strokeColor=none;fillColor=none;align=left;verticalAlign=middle;spacingLeft=4;spacingRight=4;overflow=hidden;points=[[0,0.5],[1,0.5]];portConstraint=eastwest;rotatable=0;whiteSpace=wrap;html=1;" parent="yFQkwnReDN67ldA8QRQD-30" vertex="1">
          <mxGeometry y="60" width="193" height="30" as="geometry" />
        </mxCell>
        <mxCell id="yFQkwnReDN67ldA8QRQD-33" value="Damper position command&lt;span id=&quot;docs-internal-guid-c9d95567-7fff-65c0-3d32-e3342411f6ec&quot;&gt;&lt;/span&gt;" style="text;strokeColor=none;fillColor=none;align=left;verticalAlign=middle;spacingLeft=4;spacingRight=4;overflow=hidden;points=[[0,0.5],[1,0.5]];portConstraint=eastwest;rotatable=0;whiteSpace=wrap;html=1;" parent="yFQkwnReDN67ldA8QRQD-30" vertex="1">
          <mxGeometry y="90" width="193" height="30" as="geometry" />
        </mxCell>
        <mxCell id="yFQkwnReDN67ldA8QRQD-34" value="Supply air temperature setpoint" style="text;strokeColor=none;fillColor=none;align=left;verticalAlign=middle;spacingLeft=4;spacingRight=4;overflow=hidden;points=[[0,0.5],[1,0.5]];portConstraint=eastwest;rotatable=0;whiteSpace=wrap;html=1;" parent="yFQkwnReDN67ldA8QRQD-30" vertex="1">
          <mxGeometry y="120" width="193" height="30" as="geometry" />
        </mxCell>
        <mxCell id="yFQkwnReDN67ldA8QRQD-35" value="Supply air temperature" style="text;strokeColor=none;fillColor=none;align=left;verticalAlign=middle;spacingLeft=4;spacingRight=4;overflow=hidden;points=[[0,0.5],[1,0.5]];portConstraint=eastwest;rotatable=0;whiteSpace=wrap;html=1;" parent="yFQkwnReDN67ldA8QRQD-30" vertex="1">
          <mxGeometry y="150" width="193" height="30" as="geometry" />
        </mxCell>
        <mxCell id="yFQkwnReDN67ldA8QRQD-36" value="Return air temperature" style="text;strokeColor=none;fillColor=none;align=left;verticalAlign=middle;spacingLeft=4;spacingRight=4;overflow=hidden;points=[[0,0.5],[1,0.5]];portConstraint=eastwest;rotatable=0;whiteSpace=wrap;html=1;" parent="yFQkwnReDN67ldA8QRQD-30" vertex="1">
          <mxGeometry y="180" width="193" height="30" as="geometry" />
        </mxCell>
        <mxCell id="yFQkwnReDN67ldA8QRQD-37" value="Outdoor air temperature" style="text;strokeColor=none;fillColor=none;align=left;verticalAlign=middle;spacingLeft=4;spacingRight=4;overflow=hidden;points=[[0,0.5],[1,0.5]];portConstraint=eastwest;rotatable=0;whiteSpace=wrap;html=1;" parent="yFQkwnReDN67ldA8QRQD-30" vertex="1">
          <mxGeometry y="210" width="193" height="30" as="geometry" />
        </mxCell>
        <mxCell id="yFQkwnReDN67ldA8QRQD-38" value="Mixed air temperature" style="text;strokeColor=none;fillColor=none;align=left;verticalAlign=middle;spacingLeft=4;spacingRight=4;overflow=hidden;points=[[0,0.5],[1,0.5]];portConstraint=eastwest;rotatable=0;whiteSpace=wrap;html=1;" parent="yFQkwnReDN67ldA8QRQD-30" vertex="1">
          <mxGeometry y="240" width="193" height="30" as="geometry" />
        </mxCell>
        <mxCell id="yFQkwnReDN67ldA8QRQD-39" value="Valves check" style="swimlane;fontStyle=0;childLayout=stackLayout;horizontal=1;startSize=30;horizontalStack=0;resizeParent=1;resizeParentMax=0;resizeLast=0;collapsible=1;marginBottom=0;whiteSpace=wrap;html=1;fillColor=#d5e8d4;strokeColor=#82b366;" parent="1" vertex="1" collapsed="1">
          <mxGeometry x="-710" y="2960" width="110" height="30" as="geometry">
            <mxRectangle x="712" y="51.289999999999964" width="193" height="270" as="alternateBounds" />
          </mxGeometry>
        </mxCell>
        <mxCell id="yFQkwnReDN67ldA8QRQD-40" value="Cooling valve command" style="text;strokeColor=none;fillColor=none;align=left;verticalAlign=middle;spacingLeft=4;spacingRight=4;overflow=hidden;points=[[0,0.5],[1,0.5]];portConstraint=eastwest;rotatable=0;whiteSpace=wrap;html=1;fontStyle=1;fontColor=#3333FF;" parent="yFQkwnReDN67ldA8QRQD-39" vertex="1">
          <mxGeometry y="30" width="193" height="30" as="geometry" />
        </mxCell>
        <mxCell id="yFQkwnReDN67ldA8QRQD-41" value="Heating Valve command" style="text;strokeColor=none;fillColor=none;align=left;verticalAlign=middle;spacingLeft=4;spacingRight=4;overflow=hidden;points=[[0,0.5],[1,0.5]];portConstraint=eastwest;rotatable=0;whiteSpace=wrap;html=1;fontStyle=1;fontColor=#3333FF;" parent="yFQkwnReDN67ldA8QRQD-39" vertex="1">
          <mxGeometry y="60" width="193" height="30" as="geometry" />
        </mxCell>
        <mxCell id="yFQkwnReDN67ldA8QRQD-42" value="Damper position command&lt;span id=&quot;docs-internal-guid-c9d95567-7fff-65c0-3d32-e3342411f6ec&quot;&gt;&lt;/span&gt;" style="text;strokeColor=none;fillColor=none;align=left;verticalAlign=middle;spacingLeft=4;spacingRight=4;overflow=hidden;points=[[0,0.5],[1,0.5]];portConstraint=eastwest;rotatable=0;whiteSpace=wrap;html=1;" parent="yFQkwnReDN67ldA8QRQD-39" vertex="1">
          <mxGeometry y="90" width="193" height="30" as="geometry" />
        </mxCell>
        <mxCell id="yFQkwnReDN67ldA8QRQD-43" value="Supply air temperature setpoint" style="text;strokeColor=none;fillColor=none;align=left;verticalAlign=middle;spacingLeft=4;spacingRight=4;overflow=hidden;points=[[0,0.5],[1,0.5]];portConstraint=eastwest;rotatable=0;whiteSpace=wrap;html=1;" parent="yFQkwnReDN67ldA8QRQD-39" vertex="1">
          <mxGeometry y="120" width="193" height="30" as="geometry" />
        </mxCell>
        <mxCell id="yFQkwnReDN67ldA8QRQD-44" value="Supply air temperature" style="text;strokeColor=none;fillColor=none;align=left;verticalAlign=middle;spacingLeft=4;spacingRight=4;overflow=hidden;points=[[0,0.5],[1,0.5]];portConstraint=eastwest;rotatable=0;whiteSpace=wrap;html=1;fontStyle=1;fontColor=#3333FF;" parent="yFQkwnReDN67ldA8QRQD-39" vertex="1">
          <mxGeometry y="150" width="193" height="30" as="geometry" />
        </mxCell>
        <mxCell id="yFQkwnReDN67ldA8QRQD-45" value="Return air temperature" style="text;strokeColor=none;fillColor=none;align=left;verticalAlign=middle;spacingLeft=4;spacingRight=4;overflow=hidden;points=[[0,0.5],[1,0.5]];portConstraint=eastwest;rotatable=0;whiteSpace=wrap;html=1;" parent="yFQkwnReDN67ldA8QRQD-39" vertex="1">
          <mxGeometry y="180" width="193" height="30" as="geometry" />
        </mxCell>
        <mxCell id="yFQkwnReDN67ldA8QRQD-46" value="Outdoor air temperature" style="text;strokeColor=none;fillColor=none;align=left;verticalAlign=middle;spacingLeft=4;spacingRight=4;overflow=hidden;points=[[0,0.5],[1,0.5]];portConstraint=eastwest;rotatable=0;whiteSpace=wrap;html=1;" parent="yFQkwnReDN67ldA8QRQD-39" vertex="1">
          <mxGeometry y="210" width="193" height="30" as="geometry" />
        </mxCell>
        <mxCell id="yFQkwnReDN67ldA8QRQD-47" value="Mixed air temperature" style="text;strokeColor=none;fillColor=none;align=left;verticalAlign=middle;spacingLeft=4;spacingRight=4;overflow=hidden;points=[[0,0.5],[1,0.5]];portConstraint=eastwest;rotatable=0;whiteSpace=wrap;html=1;fontStyle=1;fontColor=#3333FF;" parent="yFQkwnReDN67ldA8QRQD-39" vertex="1">
          <mxGeometry y="240" width="193" height="30" as="geometry" />
        </mxCell>
        <mxCell id="p9Uy8gffJhNtWBo6-khr-78" style="edgeStyle=orthogonalEdgeStyle;rounded=0;orthogonalLoop=1;jettySize=auto;html=1;entryX=0.5;entryY=0;entryDx=0;entryDy=0;exitX=0.5;exitY=1;exitDx=0;exitDy=0;exitPerimeter=0;" parent="1" source="p9Uy8gffJhNtWBo6-khr-47" target="p9Uy8gffJhNtWBo6-khr-54" edge="1">
          <mxGeometry relative="1" as="geometry">
            <mxPoint x="-571" y="3050" as="sourcePoint" />
          </mxGeometry>
        </mxCell>
        <mxCell id="p9Uy8gffJhNtWBo6-khr-47" value="" style="shape=mxgraph.bpmn.data;labelPosition=center;verticalLabelPosition=bottom;align=center;verticalAlign=top;size=15;html=1;bpmnTransferType=output;" parent="1" vertex="1">
          <mxGeometry x="-490.87999999999977" y="2995" width="40" height="50" as="geometry" />
        </mxCell>
        <mxCell id="p9Uy8gffJhNtWBo6-khr-59" style="edgeStyle=orthogonalEdgeStyle;rounded=0;orthogonalLoop=1;jettySize=auto;html=1;exitX=1;exitY=0.5;exitDx=0;exitDy=0;" parent="1" source="p9Uy8gffJhNtWBo6-khr-54" target="p9Uy8gffJhNtWBo6-khr-72" edge="1">
          <mxGeometry relative="1" as="geometry" />
        </mxCell>
        <mxCell id="p9Uy8gffJhNtWBo6-khr-74" value="NO" style="edgeLabel;html=1;align=center;verticalAlign=middle;resizable=0;points=[];" parent="p9Uy8gffJhNtWBo6-khr-59" vertex="1" connectable="0">
          <mxGeometry x="-0.6181" y="-1" relative="1" as="geometry">
            <mxPoint x="49" y="-1" as="offset" />
          </mxGeometry>
        </mxCell>
        <mxCell id="p9Uy8gffJhNtWBo6-khr-64" style="edgeStyle=orthogonalEdgeStyle;rounded=0;orthogonalLoop=1;jettySize=auto;html=1;entryX=0.5;entryY=0;entryDx=0;entryDy=0;exitX=0;exitY=0.5;exitDx=0;exitDy=0;" parent="1" source="p9Uy8gffJhNtWBo6-khr-54" target="p9Uy8gffJhNtWBo6-khr-63" edge="1">
          <mxGeometry relative="1" as="geometry">
            <mxPoint x="-650" y="3183" as="sourcePoint" />
            <Array as="points">
              <mxPoint x="-720" y="3182" />
            </Array>
          </mxGeometry>
        </mxCell>
        <mxCell id="p9Uy8gffJhNtWBo6-khr-75" value="YES" style="edgeLabel;html=1;align=center;verticalAlign=middle;resizable=0;points=[];" parent="p9Uy8gffJhNtWBo6-khr-64" vertex="1" connectable="0">
          <mxGeometry x="-0.5284" y="2" relative="1" as="geometry">
            <mxPoint x="-20" y="-2" as="offset" />
          </mxGeometry>
        </mxCell>
        <mxCell id="p9Uy8gffJhNtWBo6-khr-54" value="Passed?" style="rhombus;whiteSpace=wrap;html=1;" parent="1" vertex="1">
          <mxGeometry x="-510" y="3160" width="78.25" height="44.5" as="geometry" />
        </mxCell>
        <mxCell id="vZtjYWwceH9JSBGlt6C5-12" style="edgeStyle=orthogonalEdgeStyle;rounded=0;orthogonalLoop=1;jettySize=auto;html=1;entryX=0.5;entryY=0;entryDx=0;entryDy=0;" parent="1" source="p9Uy8gffJhNtWBo6-khr-63" target="p9Uy8gffJhNtWBo6-khr-65" edge="1">
          <mxGeometry relative="1" as="geometry" />
        </mxCell>
        <mxCell id="vZtjYWwceH9JSBGlt6C5-13" style="edgeStyle=orthogonalEdgeStyle;rounded=0;orthogonalLoop=1;jettySize=auto;html=1;" parent="1" source="p9Uy8gffJhNtWBo6-khr-63" target="p9Uy8gffJhNtWBo6-khr-67" edge="1">
          <mxGeometry relative="1" as="geometry" />
        </mxCell>
        <mxCell id="p9Uy8gffJhNtWBo6-khr-63" value="Parameters choice" style="rhombus;whiteSpace=wrap;html=1;" parent="1" vertex="1">
          <mxGeometry x="-800" y="3230" width="160" height="56.75" as="geometry" />
        </mxCell>
        <mxCell id="vZtjYWwceH9JSBGlt6C5-15" style="edgeStyle=orthogonalEdgeStyle;rounded=0;orthogonalLoop=1;jettySize=auto;html=1;entryX=0.5;entryY=0;entryDx=0;entryDy=0;" parent="1" source="p9Uy8gffJhNtWBo6-khr-65" target="p9Uy8gffJhNtWBo6-khr-33" edge="1">
          <mxGeometry relative="1" as="geometry" />
        </mxCell>
        <mxCell id="p9Uy8gffJhNtWBo6-khr-65" value="&lt;div style=&quot;&quot;&gt;&lt;span style=&quot;background-color: initial;&quot;&gt;default parameters&lt;/span&gt;&lt;/div&gt;" style="rounded=0;whiteSpace=wrap;html=1;align=center;" parent="1" vertex="1">
          <mxGeometry x="-710" y="3329" width="160.87" height="35" as="geometry" />
        </mxCell>
        <mxCell id="vZtjYWwceH9JSBGlt6C5-14" style="edgeStyle=orthogonalEdgeStyle;rounded=0;orthogonalLoop=1;jettySize=auto;html=1;" parent="1" source="p9Uy8gffJhNtWBo6-khr-67" target="p9Uy8gffJhNtWBo6-khr-33" edge="1">
          <mxGeometry relative="1" as="geometry" />
        </mxCell>
        <mxCell id="p9Uy8gffJhNtWBo6-khr-67" value="&lt;div style=&quot;&quot;&gt;&lt;span style=&quot;background-color: initial;&quot;&gt;suggested parameters&lt;/span&gt;&lt;/div&gt;" style="rounded=0;whiteSpace=wrap;html=1;align=center;" parent="1" vertex="1">
          <mxGeometry x="-890" y="3329" width="160" height="35" as="geometry" />
        </mxCell>
        <mxCell id="vZtjYWwceH9JSBGlt6C5-16" style="edgeStyle=orthogonalEdgeStyle;rounded=0;orthogonalLoop=1;jettySize=auto;html=1;" parent="1" source="p9Uy8gffJhNtWBo6-khr-72" target="p9Uy8gffJhNtWBo6-khr-37" edge="1">
          <mxGeometry relative="1" as="geometry" />
        </mxCell>
        <mxCell id="p9Uy8gffJhNtWBo6-khr-72" value="Want to correct?" style="rhombus;whiteSpace=wrap;html=1;" parent="1" vertex="1">
          <mxGeometry x="-486.25" y="3230" width="160" height="56.75" as="geometry" />
        </mxCell>
        <mxCell id="vZtjYWwceH9JSBGlt6C5-8" value="Proceed with APAR application" style="rounded=0;whiteSpace=wrap;html=1;" parent="1" vertex="1">
          <mxGeometry x="-810" y="3476" width="180" height="40" as="geometry" />
        </mxCell>
        <mxCell id="vZtjYWwceH9JSBGlt6C5-19" value="Report generation" style="text;html=1;strokeColor=none;fillColor=none;align=left;verticalAlign=middle;whiteSpace=wrap;rounded=0;" parent="1" vertex="1">
          <mxGeometry x="-441.25" y="2997" width="70" height="50.21" as="geometry" />
        </mxCell>
        <mxCell id="vZtjYWwceH9JSBGlt6C5-20" value="&lt;b style=&quot;text-indent: 0in; background-color: initial;&quot;&gt;Step 1: Preliminary checks&lt;/b&gt;" style="text;html=1;strokeColor=none;fillColor=none;align=left;verticalAlign=middle;whiteSpace=wrap;rounded=0;" parent="1" vertex="1">
          <mxGeometry x="-910" y="2850" width="165" height="30" as="geometry" />
        </mxCell>
        <mxCell id="vZtjYWwceH9JSBGlt6C5-21" value="&lt;b style=&quot;text-indent: 0in; background-color: initial;&quot;&gt;Step 2: Human in the loop&lt;/b&gt;" style="text;html=1;strokeColor=none;fillColor=none;align=left;verticalAlign=middle;whiteSpace=wrap;rounded=0;" parent="1" vertex="1">
          <mxGeometry x="-910" y="3185" width="165" height="30" as="geometry" />
        </mxCell>
        <mxCell id="vZtjYWwceH9JSBGlt6C5-22" value="&lt;b style=&quot;text-indent: 0in; background-color: initial;&quot;&gt;Step 3: Algorithm execution&lt;/b&gt;" style="text;html=1;strokeColor=none;fillColor=none;align=left;verticalAlign=middle;whiteSpace=wrap;rounded=0;" parent="1" vertex="1">
          <mxGeometry x="-905" y="3530" width="165" height="30" as="geometry" />
        </mxCell>
        <mxCell id="9DN8WsAsxLXgmh6vRBHh-1" value="perliminary requirements for deployment" style="swimlane;fontSize=14;align=center;swimlaneFillColor=#f4f4f4;fillColor=#dae8fc;startSize=33;container=1;pointerEvents=0;collapsible=0;recursiveResize=0;strokeColor=#6c8ebf;" parent="1" vertex="1">
          <mxGeometry x="235" y="2225" width="300" height="135" as="geometry" />
        </mxCell>
        <mxCell id="9DN8WsAsxLXgmh6vRBHh-2" value="&lt;ul&gt;&lt;li&gt;operational requirements&lt;/li&gt;&lt;li&gt;control sigmals&lt;/li&gt;&lt;li&gt;equipment&lt;/li&gt;&lt;li&gt;normal operation compliant to control signalsa&lt;/li&gt;&lt;li&gt;data and metadata availability&lt;/li&gt;&lt;/ul&gt;" style="text;html=1;align=left;verticalAlign=middle;resizable=0;points=[];autosize=1;strokeColor=none;fillColor=none;" parent="9DN8WsAsxLXgmh6vRBHh-1" vertex="1">
          <mxGeometry x="-15" y="25" width="310" height="110" as="geometry" />
        </mxCell>
        <mxCell id="9DN8WsAsxLXgmh6vRBHh-3" value="List" style="swimlane;fontStyle=0;childLayout=stackLayout;horizontal=1;startSize=30;horizontalStack=0;resizeParent=1;resizeParentMax=0;resizeLast=0;collapsible=1;marginBottom=0;whiteSpace=wrap;html=1;" parent="1" vertex="1">
          <mxGeometry x="160" y="2021.5" width="140" height="120" as="geometry" />
        </mxCell>
        <mxCell id="9DN8WsAsxLXgmh6vRBHh-4" value="Item 1" style="text;strokeColor=none;fillColor=none;align=left;verticalAlign=middle;spacingLeft=4;spacingRight=4;overflow=hidden;points=[[0,0.5],[1,0.5]];portConstraint=eastwest;rotatable=0;whiteSpace=wrap;html=1;" parent="9DN8WsAsxLXgmh6vRBHh-3" vertex="1">
          <mxGeometry y="30" width="140" height="30" as="geometry" />
        </mxCell>
        <mxCell id="9DN8WsAsxLXgmh6vRBHh-5" value="Item 2" style="text;strokeColor=none;fillColor=none;align=left;verticalAlign=middle;spacingLeft=4;spacingRight=4;overflow=hidden;points=[[0,0.5],[1,0.5]];portConstraint=eastwest;rotatable=0;whiteSpace=wrap;html=1;" parent="9DN8WsAsxLXgmh6vRBHh-3" vertex="1">
          <mxGeometry y="60" width="140" height="30" as="geometry" />
        </mxCell>
        <mxCell id="9DN8WsAsxLXgmh6vRBHh-6" value="Item 3" style="text;strokeColor=none;fillColor=none;align=left;verticalAlign=middle;spacingLeft=4;spacingRight=4;overflow=hidden;points=[[0,0.5],[1,0.5]];portConstraint=eastwest;rotatable=0;whiteSpace=wrap;html=1;" parent="9DN8WsAsxLXgmh6vRBHh-3" vertex="1">
          <mxGeometry y="90" width="140" height="30" as="geometry" />
        </mxCell>
        <mxCell id="9DN8WsAsxLXgmh6vRBHh-7" value="putting in operation" style="swimlane;fontSize=14;align=center;swimlaneFillColor=#f4f4f4;fillColor=#e1d5e7;startSize=33;container=1;pointerEvents=0;collapsible=0;recursiveResize=0;strokeColor=#9673a6;" parent="1" vertex="1">
          <mxGeometry x="235" y="2367.5" width="300" height="93" as="geometry" />
        </mxCell>
        <mxCell id="9DN8WsAsxLXgmh6vRBHh-8" value="&lt;ol&gt;&lt;li&gt;identification of parameters&lt;/li&gt;&lt;li&gt;selection parameters&lt;/li&gt;&lt;li&gt;user interface&lt;/li&gt;&lt;/ol&gt;" style="text;html=1;align=left;verticalAlign=middle;resizable=0;points=[];autosize=1;strokeColor=none;fillColor=none;" parent="9DN8WsAsxLXgmh6vRBHh-7" vertex="1">
          <mxGeometry x="40" y="21" width="210" height="80" as="geometry" />
        </mxCell>
        <mxCell id="9DN8WsAsxLXgmh6vRBHh-9" value="testing and results" style="swimlane;fontSize=14;align=center;swimlaneFillColor=#f4f4f4;fillColor=#fff2cc;startSize=33;container=1;pointerEvents=0;collapsible=0;recursiveResize=0;strokeColor=#d6b656;" parent="1" vertex="1">
          <mxGeometry x="235" y="2472.5" width="300" height="103" as="geometry" />
        </mxCell>
        <mxCell id="9DN8WsAsxLXgmh6vRBHh-10" value="&lt;ol&gt;&lt;li&gt;identification of faults&lt;/li&gt;&lt;li&gt;threshold settings&lt;/li&gt;&lt;li&gt;reiteration of result&amp;nbsp;&lt;/li&gt;&lt;li&gt;knowledge extraction&lt;/li&gt;&lt;/ol&gt;" style="text;html=1;align=left;verticalAlign=middle;resizable=0;points=[];autosize=1;strokeColor=none;fillColor=none;" parent="9DN8WsAsxLXgmh6vRBHh-9" vertex="1">
          <mxGeometry x="60" y="20" width="180" height="100" as="geometry" />
        </mxCell>
        <mxCell id="4QEEzw6aT8S7W2rMDNhq-1" value="Project Zone / Cloud Service Provider" style="sketch=0;points=[[0,0,0],[0.25,0,0],[0.5,0,0],[0.75,0,0],[1,0,0],[1,0.25,0],[1,0.5,0],[1,0.75,0],[1,1,0],[0.75,1,0],[0.5,1,0],[0.25,1,0],[0,1,0],[0,0.75,0],[0,0.5,0],[0,0.25,0]];rounded=1;absoluteArcSize=1;arcSize=2;html=1;strokeColor=none;gradientColor=none;shadow=0;dashed=0;fontSize=12;fontColor=#9E9E9E;align=left;verticalAlign=top;spacing=10;spacingTop=-4;whiteSpace=wrap;fillColor=#F6F6F6;container=0;" vertex="1" parent="1">
          <mxGeometry x="5" y="960" width="530" height="490" as="geometry" />
        </mxCell>
        <mxCell id="4QEEzw6aT8S7W2rMDNhq-18" value="" style="strokeColor=#dddddd;shadow=1;strokeWidth=1;rounded=1;absoluteArcSize=1;arcSize=2;" vertex="1" parent="1">
          <mxGeometry x="-510" y="1640" width="160" height="60" as="geometry" />
        </mxCell>
        <mxCell id="4QEEzw6aT8S7W2rMDNhq-19" value="&lt;font color=&quot;#000000&quot;&gt;config.yaml&lt;br&gt;&lt;/font&gt;App details" style="editableCssRules=.*;html=1;fontColor=#999999;shape=image;verticalLabelPosition=middle;verticalAlign=middle;labelPosition=right;align=left;spacingLeft=20;part=1;points=[];imageAspect=0;image=data:image/svg+xml,PHN2ZyB4bWxucz0iaHR0cDovL3d3dy53My5vcmcvMjAwMC9zdmciIHhtbG5zOnY9Imh0dHBzOi8vdmVjdGEuaW8vbmFubyIgd2lkdGg9IjIwIiBoZWlnaHQ9IjE5Ljk4OTk5OTc3MTExODE2NCIgdmlld0JveD0iMCAwIDIwIDE5Ljk4OTk5OTc3MTExODE2NCI+JiN4YTsJPHN0eWxlIHR5cGU9InRleHQvY3NzIj4mI3hhOwkuc3Qwe2ZpbGw6IzQyODVmNDt9JiN4YTsJLnN0MXtmaWxsOiM2NjlkZjY7fSYjeGE7CS5zdDJ7ZmlsbDojYWVjYmZhO30mI3hhOwk8L3N0eWxlPiYjeGE7CTxwYXRoIGNsYXNzPSJzdDEiIGQ9Ik0zIDMuOTlMMCA2LjQydjcuMTNsMyAyLjQ0eiIvPiYjeGE7CTxwYXRoIGNsYXNzPSJzdDAiIGQ9Ik0zIDMuOTlsLTMgNCAzLTJ6bS0zIDhsMyA0di0yeiIvPiYjeGE7CTxwYXRoIGNsYXNzPSJzdDIiIGQ9Ik0wIDE1Ljk5bDQgNCAyLTItNi02em0uMDEtOEw1Ljk5IDJsLTItMkwwIDMuOTl6Ii8+JiN4YTsJPHBhdGggY2xhc3M9InN0MSIgZD0iTTE3IDE2bDMtMi40MlY2LjQ0TDE3IDR6Ii8+JiN4YTsJPHBhdGggY2xhc3M9InN0MCIgZD0iTTE3IDE2bDMtNC0zIDJ6bTMtOGwtMy00djJ6Ii8+JiN4YTsJPGcgY2xhc3M9InN0MiI+JiN4YTsJCTxwYXRoIGQ9Ik0yMCA0bC00LTQtMiAyIDYgNnptLS4wMSA4bC01Ljk4IDUuOTkgMiAyTDIwIDE2eiIvPiYjeGE7CQk8Y2lyY2xlIGN4PSI2IiBjeT0iOS45OSIgcj0iMSIvPiYjeGE7CQk8Y2lyY2xlIGN4PSIxMCIgY3k9IjkuOTkiIHI9IjEiLz4mI3hhOwkJPGNpcmNsZSBjeD0iMTMuOTkiIGN5PSI5Ljk5IiByPSIxIi8+JiN4YTsJPC9nPiYjeGE7PC9zdmc+;" vertex="1" parent="4QEEzw6aT8S7W2rMDNhq-18">
          <mxGeometry width="30" height="24" relative="1" as="geometry">
            <mxPoint x="15" y="18" as="offset" />
          </mxGeometry>
        </mxCell>
        <mxCell id="4QEEzw6aT8S7W2rMDNhq-2" value="Logical Grouping of Services / Instances" style="sketch=0;points=[[0,0,0],[0.25,0,0],[0.5,0,0],[0.75,0,0],[1,0,0],[1,0.25,0],[1,0.5,0],[1,0.75,0],[1,1,0],[0.75,1,0],[0.5,1,0],[0.25,1,0],[0,1,0],[0,0.75,0],[0,0.5,0],[0,0.25,0]];rounded=1;absoluteArcSize=1;arcSize=2;html=1;strokeColor=none;gradientColor=none;shadow=0;dashed=0;fontSize=12;fontColor=#9E9E9E;align=left;verticalAlign=top;spacing=10;spacingTop=-4;whiteSpace=wrap;fillColor=#E3F2FD;" vertex="1" parent="1">
          <mxGeometry x="15" y="1010" width="250" height="180" as="geometry">
            <mxPoint x="10" y="50" as="offset" />
          </mxGeometry>
        </mxCell>
        <mxCell id="4QEEzw6aT8S7W2rMDNhq-3" value="Zone" style="sketch=0;points=[[0,0,0],[0.25,0,0],[0.5,0,0],[0.75,0,0],[1,0,0],[1,0.25,0],[1,0.5,0],[1,0.75,0],[1,1,0],[0.75,1,0],[0.5,1,0],[0.25,1,0],[0,1,0],[0,0.75,0],[0,0.5,0],[0,0.25,0]];rounded=1;absoluteArcSize=1;arcSize=2;html=1;strokeColor=none;gradientColor=none;shadow=0;dashed=0;fontSize=12;fontColor=#9E9E9E;align=left;verticalAlign=top;spacing=10;spacingTop=-4;whiteSpace=wrap;fillColor=#FFF3E0;" vertex="1" parent="4QEEzw6aT8S7W2rMDNhq-2">
          <mxGeometry width="230" height="120" relative="1" as="geometry">
            <mxPoint x="10" y="50" as="offset" />
          </mxGeometry>
        </mxCell>
        <mxCell id="4QEEzw6aT8S7W2rMDNhq-4" value="SubNetwork" style="sketch=0;points=[[0,0,0],[0.25,0,0],[0.5,0,0],[0.75,0,0],[1,0,0],[1,0.25,0],[1,0.5,0],[1,0.75,0],[1,1,0],[0.75,1,0],[0.5,1,0],[0.25,1,0],[0,1,0],[0,0.75,0],[0,0.5,0],[0,0.25,0]];rounded=1;absoluteArcSize=1;arcSize=2;html=1;strokeColor=none;gradientColor=none;shadow=0;dashed=0;fontSize=12;fontColor=#9E9E9E;align=left;verticalAlign=top;spacing=10;spacingTop=-4;whiteSpace=wrap;fillColor=#EDE7F6;" vertex="1" parent="4QEEzw6aT8S7W2rMDNhq-3">
          <mxGeometry width="210" height="60" relative="1" as="geometry">
            <mxPoint x="10" y="50" as="offset" />
          </mxGeometry>
        </mxCell>
        <mxCell id="4QEEzw6aT8S7W2rMDNhq-5" value="Kubernetes cluster" style="sketch=0;points=[[0,0,0],[0.25,0,0],[0.5,0,0],[0.75,0,0],[1,0,0],[1,0.25,0],[1,0.5,0],[1,0.75,0],[1,1,0],[0.75,1,0],[0.5,1,0],[0.25,1,0],[0,1,0],[0,0.75,0],[0,0.5,0],[0,0.25,0]];rounded=1;absoluteArcSize=1;arcSize=2;html=1;strokeColor=none;gradientColor=none;shadow=0;dashed=0;fontSize=12;fontColor=#9E9E9E;align=left;verticalAlign=top;spacing=10;spacingTop=-4;whiteSpace=wrap;fillColor=#FCE4EC;" vertex="1" parent="1">
          <mxGeometry x="15" y="1200" width="250" height="120" as="geometry">
            <mxPoint x="10" y="240" as="offset" />
          </mxGeometry>
        </mxCell>
        <mxCell id="4QEEzw6aT8S7W2rMDNhq-6" value="pod" style="sketch=0;points=[[0,0,0],[0.25,0,0],[0.5,0,0],[0.75,0,0],[1,0,0],[1,0.25,0],[1,0.5,0],[1,0.75,0],[1,1,0],[0.75,1,0],[0.5,1,0],[0.25,1,0],[0,1,0],[0,0.75,0],[0,0.5,0],[0,0.25,0]];rounded=1;absoluteArcSize=1;arcSize=2;html=1;strokeColor=none;gradientColor=none;shadow=0;dashed=0;fontSize=12;fontColor=#9E9E9E;align=left;verticalAlign=top;spacing=10;spacingTop=-4;whiteSpace=wrap;fillColor=#E8F5E9;" vertex="1" parent="4QEEzw6aT8S7W2rMDNhq-5">
          <mxGeometry width="210" height="60" relative="1" as="geometry">
            <mxPoint x="10" y="50" as="offset" />
          </mxGeometry>
        </mxCell>
        <mxCell id="4QEEzw6aT8S7W2rMDNhq-8" value="Region" style="sketch=0;points=[[0,0,0],[0.25,0,0],[0.5,0,0],[0.75,0,0],[1,0,0],[1,0.25,0],[1,0.5,0],[1,0.75,0],[1,1,0],[0.75,1,0],[0.5,1,0],[0.25,1,0],[0,1,0],[0,0.75,0],[0,0.5,0],[0,0.25,0]];rounded=1;absoluteArcSize=1;arcSize=2;html=1;strokeColor=none;gradientColor=none;shadow=0;dashed=0;fontSize=12;fontColor=#9E9E9E;align=left;verticalAlign=top;spacing=10;spacingTop=-4;whiteSpace=wrap;fillColor=#ECEFF1;" vertex="1" parent="1">
          <mxGeometry x="275" y="1010" width="250" height="310" as="geometry">
            <mxPoint x="270" y="50" as="offset" />
          </mxGeometry>
        </mxCell>
        <mxCell id="4QEEzw6aT8S7W2rMDNhq-9" value="Zone" style="sketch=0;points=[[0,0,0],[0.25,0,0],[0.5,0,0],[0.75,0,0],[1,0,0],[1,0.25,0],[1,0.5,0],[1,0.75,0],[1,1,0],[0.75,1,0],[0.5,1,0],[0.25,1,0],[0,1,0],[0,0.75,0],[0,0.5,0],[0,0.25,0]];rounded=1;absoluteArcSize=1;arcSize=2;html=1;strokeColor=none;gradientColor=none;shadow=0;dashed=0;fontSize=12;fontColor=#9E9E9E;align=left;verticalAlign=top;spacing=10;spacingTop=-4;whiteSpace=wrap;fillColor=#FFF3E0;" vertex="1" parent="4QEEzw6aT8S7W2rMDNhq-8">
          <mxGeometry width="230" height="250" relative="1" as="geometry">
            <mxPoint x="10" y="50" as="offset" />
          </mxGeometry>
        </mxCell>
        <mxCell id="4QEEzw6aT8S7W2rMDNhq-10" value="Firewall" style="sketch=0;points=[[0,0,0],[0.25,0,0],[0.5,0,0],[0.75,0,0],[1,0,0],[1,0.25,0],[1,0.5,0],[1,0.75,0],[1,1,0],[0.75,1,0],[0.5,1,0],[0.25,1,0],[0,1,0],[0,0.75,0],[0,0.5,0],[0,0.25,0]];rounded=1;absoluteArcSize=1;arcSize=2;html=1;strokeColor=none;gradientColor=none;shadow=0;dashed=0;fontSize=12;fontColor=#9E9E9E;align=left;verticalAlign=top;spacing=10;spacingTop=-4;whiteSpace=wrap;fillColor=#FBE9E7;" vertex="1" parent="4QEEzw6aT8S7W2rMDNhq-9">
          <mxGeometry width="210" height="190" relative="1" as="geometry">
            <mxPoint x="10" y="50" as="offset" />
          </mxGeometry>
        </mxCell>
        <mxCell id="4QEEzw6aT8S7W2rMDNhq-11" value="Instance Group" style="sketch=0;points=[[0,0,0],[0.25,0,0],[0.5,0,0],[0.75,0,0],[1,0,0],[1,0.25,0],[1,0.5,0],[1,0.75,0],[1,1,0],[0.75,1,0],[0.5,1,0],[0.25,1,0],[0,1,0],[0,0.75,0],[0,0.5,0],[0,0.25,0]];rounded=1;absoluteArcSize=1;arcSize=2;html=1;strokeColor=none;gradientColor=none;shadow=0;dashed=0;fontSize=12;fontColor=#9E9E9E;align=left;verticalAlign=top;spacing=10;spacingTop=-4;whiteSpace=wrap;fillColor=#F9FBE7;" vertex="1" parent="4QEEzw6aT8S7W2rMDNhq-10">
          <mxGeometry width="190" height="60" relative="1" as="geometry">
            <mxPoint x="10" y="50" as="offset" />
          </mxGeometry>
        </mxCell>
        <mxCell id="4QEEzw6aT8S7W2rMDNhq-12" value="Replica Pool" style="sketch=0;points=[[0,0,0],[0.25,0,0],[0.5,0,0],[0.75,0,0],[1,0,0],[1,0.25,0],[1,0.5,0],[1,0.75,0],[1,1,0],[0.75,1,0],[0.5,1,0],[0.25,1,0],[0,1,0],[0,0.75,0],[0,0.5,0],[0,0.25,0]];rounded=1;absoluteArcSize=1;arcSize=2;html=1;strokeColor=none;gradientColor=none;shadow=0;dashed=0;fontSize=12;fontColor=#9E9E9E;align=left;verticalAlign=top;spacing=10;spacingTop=-4;whiteSpace=wrap;fillColor=#E0F7FA;" vertex="1" parent="4QEEzw6aT8S7W2rMDNhq-10">
          <mxGeometry width="190" height="60" relative="1" as="geometry">
            <mxPoint x="10" y="120" as="offset" />
          </mxGeometry>
        </mxCell>
        <mxCell id="4QEEzw6aT8S7W2rMDNhq-13" value="Optional Component" style="rounded=1;absoluteArcSize=1;arcSize=2;html=1;strokeColor=none;gradientColor=none;shadow=0;dashed=1;strokeColor=#4284F3;fontSize=12;fontColor=#9E9E9E;align=left;verticalAlign=top;spacing=10;spacingTop=-4;fillColor=none;dashPattern=1 2;strokeWidth=2;" vertex="1" parent="1">
          <mxGeometry x="275" y="1330" width="250" height="60" as="geometry">
            <mxPoint x="270" y="370" as="offset" />
          </mxGeometry>
        </mxCell>
        <mxCell id="4QEEzw6aT8S7W2rMDNhq-92" style="edgeStyle=orthogonalEdgeStyle;rounded=0;orthogonalLoop=1;jettySize=auto;html=1;entryX=0.5;entryY=0;entryDx=0;entryDy=0;entryPerimeter=0;exitX=1;exitY=0.25;exitDx=0;exitDy=0;exitPerimeter=0;" edge="1" parent="1" source="4QEEzw6aT8S7W2rMDNhq-31" target="4QEEzw6aT8S7W2rMDNhq-22">
          <mxGeometry relative="1" as="geometry" />
        </mxCell>
        <mxCell id="4QEEzw6aT8S7W2rMDNhq-31" value="External Data Sources" style="sketch=0;points=[[0,0,0],[0.25,0,0],[0.5,0,0],[0.75,0,0],[1,0,0],[1,0.25,0],[1,0.5,0],[1,0.75,0],[1,1,0],[0.75,1,0],[0.5,1,0],[0.25,1,0],[0,1,0],[0,0.75,0],[0,0.5,0],[0,0.25,0]];rounded=1;absoluteArcSize=1;arcSize=2;html=1;strokeColor=none;gradientColor=none;shadow=1;dashed=0;fontSize=12;fontColor=#9E9E9E;align=left;verticalAlign=top;spacing=10;spacingTop=-4;whiteSpace=wrap;fillColor=#FFF8E1;" vertex="1" parent="1">
          <mxGeometry x="-1660" y="1895" width="274.25" height="170" as="geometry" />
        </mxCell>
        <mxCell id="4QEEzw6aT8S7W2rMDNhq-33" value="" style="strokeColor=#dddddd;shadow=1;strokeWidth=1;rounded=1;absoluteArcSize=1;arcSize=2;" vertex="1" parent="1">
          <mxGeometry x="-1645.75" y="1939" width="160" height="60" as="geometry" />
        </mxCell>
        <mxCell id="4QEEzw6aT8S7W2rMDNhq-34" value="&lt;font color=&quot;#000000&quot;&gt;metadata.ttl&lt;br&gt;&lt;/font&gt;Brick schema" style="editableCssRules=.*;html=1;fontColor=#999999;shape=image;verticalLabelPosition=middle;verticalAlign=middle;labelPosition=right;align=left;spacingLeft=20;part=1;points=[];imageAspect=0;image=data:image/svg+xml,PHN2ZyB4bWxucz0iaHR0cDovL3d3dy53My5vcmcvMjAwMC9zdmciIHhtbG5zOnY9Imh0dHBzOi8vdmVjdGEuaW8vbmFubyIgd2lkdGg9IjIwIiBoZWlnaHQ9IjE5Ljk4OTk5OTc3MTExODE2NCIgdmlld0JveD0iMCAwIDIwIDE5Ljk4OTk5OTc3MTExODE2NCI+JiN4YTsJPHN0eWxlIHR5cGU9InRleHQvY3NzIj4mI3hhOwkuc3Qwe2ZpbGw6IzQyODVmNDt9JiN4YTsJLnN0MXtmaWxsOiM2NjlkZjY7fSYjeGE7CS5zdDJ7ZmlsbDojYWVjYmZhO30mI3hhOwk8L3N0eWxlPiYjeGE7CTxwYXRoIGNsYXNzPSJzdDEiIGQ9Ik0zIDMuOTlMMCA2LjQydjcuMTNsMyAyLjQ0eiIvPiYjeGE7CTxwYXRoIGNsYXNzPSJzdDAiIGQ9Ik0zIDMuOTlsLTMgNCAzLTJ6bS0zIDhsMyA0di0yeiIvPiYjeGE7CTxwYXRoIGNsYXNzPSJzdDIiIGQ9Ik0wIDE1Ljk5bDQgNCAyLTItNi02em0uMDEtOEw1Ljk5IDJsLTItMkwwIDMuOTl6Ii8+JiN4YTsJPHBhdGggY2xhc3M9InN0MSIgZD0iTTE3IDE2bDMtMi40MlY2LjQ0TDE3IDR6Ii8+JiN4YTsJPHBhdGggY2xhc3M9InN0MCIgZD0iTTE3IDE2bDMtNC0zIDJ6bTMtOGwtMy00djJ6Ii8+JiN4YTsJPGcgY2xhc3M9InN0MiI+JiN4YTsJCTxwYXRoIGQ9Ik0yMCA0bC00LTQtMiAyIDYgNnptLS4wMSA4bC01Ljk4IDUuOTkgMiAyTDIwIDE2eiIvPiYjeGE7CQk8Y2lyY2xlIGN4PSI2IiBjeT0iOS45OSIgcj0iMSIvPiYjeGE7CQk8Y2lyY2xlIGN4PSIxMCIgY3k9IjkuOTkiIHI9IjEiLz4mI3hhOwkJPGNpcmNsZSBjeD0iMTMuOTkiIGN5PSI5Ljk5IiByPSIxIi8+JiN4YTsJPC9nPiYjeGE7PC9zdmc+;" vertex="1" parent="4QEEzw6aT8S7W2rMDNhq-33">
          <mxGeometry width="30" height="24" relative="1" as="geometry">
            <mxPoint x="15" y="18" as="offset" />
          </mxGeometry>
        </mxCell>
        <mxCell id="4QEEzw6aT8S7W2rMDNhq-52" value="" style="strokeColor=#dddddd;shadow=1;strokeWidth=1;rounded=1;absoluteArcSize=1;arcSize=2;" vertex="1" parent="1">
          <mxGeometry x="-1575.75" y="1990" width="160" height="60" as="geometry" />
        </mxCell>
        <mxCell id="4QEEzw6aT8S7W2rMDNhq-53" value="&lt;font color=&quot;#000000&quot;&gt;data&lt;br&gt;&lt;/font&gt;Tabular data" style="editableCssRules=.*;html=1;fontColor=#999999;shape=image;verticalLabelPosition=middle;verticalAlign=middle;labelPosition=right;align=left;spacingLeft=20;part=1;points=[];imageAspect=0;image=data:image/svg+xml,PHN2ZyB4bWxucz0iaHR0cDovL3d3dy53My5vcmcvMjAwMC9zdmciIHhtbG5zOnY9Imh0dHBzOi8vdmVjdGEuaW8vbmFubyIgd2lkdGg9IjIwIiBoZWlnaHQ9IjE5Ljk4OTk5OTc3MTExODE2NCIgdmlld0JveD0iMCAwIDIwIDE5Ljk4OTk5OTc3MTExODE2NCI+JiN4YTsJPHN0eWxlIHR5cGU9InRleHQvY3NzIj4mI3hhOwkuc3Qwe2ZpbGw6IzQyODVmNDt9JiN4YTsJLnN0MXtmaWxsOiM2NjlkZjY7fSYjeGE7CS5zdDJ7ZmlsbDojYWVjYmZhO30mI3hhOwk8L3N0eWxlPiYjeGE7CTxwYXRoIGNsYXNzPSJzdDEiIGQ9Ik0zIDMuOTlMMCA2LjQydjcuMTNsMyAyLjQ0eiIvPiYjeGE7CTxwYXRoIGNsYXNzPSJzdDAiIGQ9Ik0zIDMuOTlsLTMgNCAzLTJ6bS0zIDhsMyA0di0yeiIvPiYjeGE7CTxwYXRoIGNsYXNzPSJzdDIiIGQ9Ik0wIDE1Ljk5bDQgNCAyLTItNi02em0uMDEtOEw1Ljk5IDJsLTItMkwwIDMuOTl6Ii8+JiN4YTsJPHBhdGggY2xhc3M9InN0MSIgZD0iTTE3IDE2bDMtMi40MlY2LjQ0TDE3IDR6Ii8+JiN4YTsJPHBhdGggY2xhc3M9InN0MCIgZD0iTTE3IDE2bDMtNC0zIDJ6bTMtOGwtMy00djJ6Ii8+JiN4YTsJPGcgY2xhc3M9InN0MiI+JiN4YTsJCTxwYXRoIGQ9Ik0yMCA0bC00LTQtMiAyIDYgNnptLS4wMSA4bC01Ljk4IDUuOTkgMiAyTDIwIDE2eiIvPiYjeGE7CQk8Y2lyY2xlIGN4PSI2IiBjeT0iOS45OSIgcj0iMSIvPiYjeGE7CQk8Y2lyY2xlIGN4PSIxMCIgY3k9IjkuOTkiIHI9IjEiLz4mI3hhOwkJPGNpcmNsZSBjeD0iMTMuOTkiIGN5PSI5Ljk5IiByPSIxIi8+JiN4YTsJPC9nPiYjeGE7PC9zdmc+;" vertex="1" parent="4QEEzw6aT8S7W2rMDNhq-52">
          <mxGeometry width="30" height="24" relative="1" as="geometry">
            <mxPoint x="15" y="18" as="offset" />
          </mxGeometry>
        </mxCell>
        <mxCell id="4QEEzw6aT8S7W2rMDNhq-63" style="edgeStyle=orthogonalEdgeStyle;rounded=0;orthogonalLoop=1;jettySize=auto;html=1;" edge="1" parent="1" target="4QEEzw6aT8S7W2rMDNhq-62">
          <mxGeometry relative="1" as="geometry">
            <mxPoint x="-166.25" y="1835" as="sourcePoint" />
          </mxGeometry>
        </mxCell>
        <mxCell id="4QEEzw6aT8S7W2rMDNhq-62" value="Clean analyze" style="sketch=0;points=[[0,0,0],[0.25,0,0],[0.5,0,0],[0.75,0,0],[1,0,0],[1,0.25,0],[1,0.5,0],[1,0.75,0],[1,1,0],[0.75,1,0],[0.5,1,0],[0.25,1,0],[0,1,0],[0,0.75,0],[0,0.5,0],[0,0.25,0]];rounded=1;absoluteArcSize=1;arcSize=2;html=1;strokeColor=none;gradientColor=none;shadow=0;dashed=0;fontSize=12;fontColor=#9E9E9E;align=left;verticalAlign=top;spacing=10;spacingTop=-4;whiteSpace=wrap;fillColor=#F1F8E9;" vertex="1" parent="1">
          <mxGeometry x="-125" y="1755" width="140" height="160" as="geometry" />
        </mxCell>
        <mxCell id="4QEEzw6aT8S7W2rMDNhq-84" value="" style="group;flipV=1;" vertex="1" connectable="0" parent="1">
          <mxGeometry x="-1295.75" y="2050" width="225.75" height="120" as="geometry" />
        </mxCell>
        <mxCell id="4QEEzw6aT8S7W2rMDNhq-32" value="Qualify" style="sketch=0;points=[[0,0,0],[0.25,0,0],[0.5,0,0],[0.75,0,0],[1,0,0],[1,0.25,0],[1,0.5,0],[1,0.75,0],[1,1,0],[0.75,1,0],[0.5,1,0],[0.25,1,0],[0,1,0],[0,0.75,0],[0,0.5,0],[0,0.25,0]];rounded=1;absoluteArcSize=1;arcSize=2;html=1;strokeColor=none;gradientColor=none;shadow=0;dashed=0;fontSize=12;fontColor=#9E9E9E;align=left;verticalAlign=top;spacing=10;spacingTop=-4;whiteSpace=wrap;fillColor=#F1F8E9;" vertex="1" parent="4QEEzw6aT8S7W2rMDNhq-84">
          <mxGeometry width="200" height="120" as="geometry" />
        </mxCell>
        <mxCell id="4QEEzw6aT8S7W2rMDNhq-16" value="" style="strokeColor=#dddddd;shadow=1;strokeWidth=1;rounded=1;absoluteArcSize=1;arcSize=2;" vertex="1" parent="4QEEzw6aT8S7W2rMDNhq-84">
          <mxGeometry x="20" y="30" width="160" height="60" as="geometry" />
        </mxCell>
        <mxCell id="4QEEzw6aT8S7W2rMDNhq-17" value="&lt;font color=&quot;#000000&quot;&gt;manifest.ttl&lt;br&gt;&lt;/font&gt;SHACK shape" style="editableCssRules=.*;html=1;fontColor=#999999;shape=image;verticalLabelPosition=middle;verticalAlign=middle;labelPosition=right;align=left;spacingLeft=20;part=1;points=[];imageAspect=0;image=data:image/svg+xml,PHN2ZyB4bWxucz0iaHR0cDovL3d3dy53My5vcmcvMjAwMC9zdmciIHhtbG5zOnY9Imh0dHBzOi8vdmVjdGEuaW8vbmFubyIgd2lkdGg9IjIwIiBoZWlnaHQ9IjE5Ljk4OTk5OTc3MTExODE2NCIgdmlld0JveD0iMCAwIDIwIDE5Ljk4OTk5OTc3MTExODE2NCI+JiN4YTsJPHN0eWxlIHR5cGU9InRleHQvY3NzIj4mI3hhOwkuc3Qwe2ZpbGw6IzQyODVmNDt9JiN4YTsJLnN0MXtmaWxsOiM2NjlkZjY7fSYjeGE7CS5zdDJ7ZmlsbDojYWVjYmZhO30mI3hhOwk8L3N0eWxlPiYjeGE7CTxwYXRoIGNsYXNzPSJzdDEiIGQ9Ik0zIDMuOTlMMCA2LjQydjcuMTNsMyAyLjQ0eiIvPiYjeGE7CTxwYXRoIGNsYXNzPSJzdDAiIGQ9Ik0zIDMuOTlsLTMgNCAzLTJ6bS0zIDhsMyA0di0yeiIvPiYjeGE7CTxwYXRoIGNsYXNzPSJzdDIiIGQ9Ik0wIDE1Ljk5bDQgNCAyLTItNi02em0uMDEtOEw1Ljk5IDJsLTItMkwwIDMuOTl6Ii8+JiN4YTsJPHBhdGggY2xhc3M9InN0MSIgZD0iTTE3IDE2bDMtMi40MlY2LjQ0TDE3IDR6Ii8+JiN4YTsJPHBhdGggY2xhc3M9InN0MCIgZD0iTTE3IDE2bDMtNC0zIDJ6bTMtOGwtMy00djJ6Ii8+JiN4YTsJPGcgY2xhc3M9InN0MiI+JiN4YTsJCTxwYXRoIGQ9Ik0yMCA0bC00LTQtMiAyIDYgNnptLS4wMSA4bC01Ljk4IDUuOTkgMiAyTDIwIDE2eiIvPiYjeGE7CQk8Y2lyY2xlIGN4PSI2IiBjeT0iOS45OSIgcj0iMSIvPiYjeGE7CQk8Y2lyY2xlIGN4PSIxMCIgY3k9IjkuOTkiIHI9IjEiLz4mI3hhOwkJPGNpcmNsZSBjeD0iMTMuOTkiIGN5PSI5Ljk5IiByPSIxIi8+JiN4YTsJPC9nPiYjeGE7PC9zdmc+;" vertex="1" parent="4QEEzw6aT8S7W2rMDNhq-16">
          <mxGeometry width="30" height="24" relative="1" as="geometry">
            <mxPoint x="15" y="18" as="offset" />
          </mxGeometry>
        </mxCell>
        <mxCell id="4QEEzw6aT8S7W2rMDNhq-116" value="1" style="rounded=1;whiteSpace=wrap;html=1;fillColor=#007CBD;strokeColor=none;fontColor=#FFFFFF;fontStyle=1;fontSize=22;labelBackgroundColor=none;flipV=1;" vertex="1" parent="4QEEzw6aT8S7W2rMDNhq-84">
          <mxGeometry x="185.75" y="-10" width="40" height="38" as="geometry" />
        </mxCell>
        <mxCell id="4QEEzw6aT8S7W2rMDNhq-86" value="" style="group;flipV=1;" vertex="1" connectable="0" parent="1">
          <mxGeometry x="-1295.75" y="2191" width="200" height="120" as="geometry" />
        </mxCell>
        <mxCell id="4QEEzw6aT8S7W2rMDNhq-54" value="Fetch" style="sketch=0;points=[[0,0,0],[0.25,0,0],[0.5,0,0],[0.75,0,0],[1,0,0],[1,0.25,0],[1,0.5,0],[1,0.75,0],[1,1,0],[0.75,1,0],[0.5,1,0],[0.25,1,0],[0,1,0],[0,0.75,0],[0,0.5,0],[0,0.25,0]];rounded=1;absoluteArcSize=1;arcSize=2;html=1;strokeColor=none;gradientColor=none;shadow=0;dashed=0;fontSize=12;fontColor=#9E9E9E;align=left;verticalAlign=top;spacing=10;spacingTop=-4;whiteSpace=wrap;fillColor=#F1F8E9;" vertex="1" parent="4QEEzw6aT8S7W2rMDNhq-86">
          <mxGeometry width="200" height="120" as="geometry" />
        </mxCell>
        <mxCell id="4QEEzw6aT8S7W2rMDNhq-14" value="" style="strokeColor=#dddddd;shadow=1;strokeWidth=1;rounded=1;absoluteArcSize=1;arcSize=2;" vertex="1" parent="4QEEzw6aT8S7W2rMDNhq-86">
          <mxGeometry x="20" y="30" width="160" height="60" as="geometry" />
        </mxCell>
        <mxCell id="4QEEzw6aT8S7W2rMDNhq-15" value="&lt;font color=&quot;#000000&quot;&gt;query.rq&lt;br&gt;&lt;/font&gt;SPARQL query" style="editableCssRules=.*;html=1;fontColor=#999999;shape=image;verticalLabelPosition=middle;verticalAlign=middle;labelPosition=right;align=left;spacingLeft=20;part=1;points=[];imageAspect=0;image=data:image/svg+xml,PHN2ZyB4bWxucz0iaHR0cDovL3d3dy53My5vcmcvMjAwMC9zdmciIHhtbG5zOnY9Imh0dHBzOi8vdmVjdGEuaW8vbmFubyIgd2lkdGg9IjIwIiBoZWlnaHQ9IjE5Ljk4OTk5OTc3MTExODE2NCIgdmlld0JveD0iMCAwIDIwIDE5Ljk4OTk5OTc3MTExODE2NCI+JiN4YTsJPHN0eWxlIHR5cGU9InRleHQvY3NzIj4mI3hhOwkuc3Qwe2ZpbGw6IzQyODVmNDt9JiN4YTsJLnN0MXtmaWxsOiM2NjlkZjY7fSYjeGE7CS5zdDJ7ZmlsbDojYWVjYmZhO30mI3hhOwk8L3N0eWxlPiYjeGE7CTxwYXRoIGNsYXNzPSJzdDEiIGQ9Ik0zIDMuOTlMMCA2LjQydjcuMTNsMyAyLjQ0eiIvPiYjeGE7CTxwYXRoIGNsYXNzPSJzdDAiIGQ9Ik0zIDMuOTlsLTMgNCAzLTJ6bS0zIDhsMyA0di0yeiIvPiYjeGE7CTxwYXRoIGNsYXNzPSJzdDIiIGQ9Ik0wIDE1Ljk5bDQgNCAyLTItNi02em0uMDEtOEw1Ljk5IDJsLTItMkwwIDMuOTl6Ii8+JiN4YTsJPHBhdGggY2xhc3M9InN0MSIgZD0iTTE3IDE2bDMtMi40MlY2LjQ0TDE3IDR6Ii8+JiN4YTsJPHBhdGggY2xhc3M9InN0MCIgZD0iTTE3IDE2bDMtNC0zIDJ6bTMtOGwtMy00djJ6Ii8+JiN4YTsJPGcgY2xhc3M9InN0MiI+JiN4YTsJCTxwYXRoIGQ9Ik0yMCA0bC00LTQtMiAyIDYgNnptLS4wMSA4bC01Ljk4IDUuOTkgMiAyTDIwIDE2eiIvPiYjeGE7CQk8Y2lyY2xlIGN4PSI2IiBjeT0iOS45OSIgcj0iMSIvPiYjeGE7CQk8Y2lyY2xlIGN4PSIxMCIgY3k9IjkuOTkiIHI9IjEiLz4mI3hhOwkJPGNpcmNsZSBjeD0iMTMuOTkiIGN5PSI5Ljk5IiByPSIxIi8+JiN4YTsJPC9nPiYjeGE7PC9zdmc+;" vertex="1" parent="4QEEzw6aT8S7W2rMDNhq-14">
          <mxGeometry width="30" height="24" relative="1" as="geometry">
            <mxPoint x="15" y="18" as="offset" />
          </mxGeometry>
        </mxCell>
        <mxCell id="4QEEzw6aT8S7W2rMDNhq-87" value="" style="group;flipV=1;" vertex="1" connectable="0" parent="1">
          <mxGeometry x="-1295.75" y="2332" width="200" height="120" as="geometry" />
        </mxCell>
        <mxCell id="4QEEzw6aT8S7W2rMDNhq-72" value="Clean" style="sketch=0;points=[[0,0,0],[0.25,0,0],[0.5,0,0],[0.75,0,0],[1,0,0],[1,0.25,0],[1,0.5,0],[1,0.75,0],[1,1,0],[0.75,1,0],[0.5,1,0],[0.25,1,0],[0,1,0],[0,0.75,0],[0,0.5,0],[0,0.25,0]];rounded=1;absoluteArcSize=1;arcSize=2;html=1;strokeColor=none;gradientColor=none;shadow=0;dashed=0;fontSize=12;fontColor=#9E9E9E;align=left;verticalAlign=top;spacing=10;spacingTop=-4;whiteSpace=wrap;fillColor=#F1F8E9;" vertex="1" parent="4QEEzw6aT8S7W2rMDNhq-87">
          <mxGeometry width="200" height="120" as="geometry" />
        </mxCell>
        <mxCell id="4QEEzw6aT8S7W2rMDNhq-75" value="" style="strokeColor=#dddddd;shadow=1;strokeWidth=1;rounded=1;absoluteArcSize=1;arcSize=2;" vertex="1" parent="4QEEzw6aT8S7W2rMDNhq-87">
          <mxGeometry x="20" y="30" width="160" height="60" as="geometry" />
        </mxCell>
        <mxCell id="4QEEzw6aT8S7W2rMDNhq-76" value="&lt;font color=&quot;#000000&quot;&gt;res&lt;br&gt;&lt;/font&gt;ApplicationData" style="editableCssRules=.*;html=1;fontColor=#999999;shape=image;verticalLabelPosition=middle;verticalAlign=middle;labelPosition=right;align=left;spacingLeft=20;part=1;points=[];imageAspect=0;image=data:image/svg+xml,PHN2ZyB4bWxucz0iaHR0cDovL3d3dy53My5vcmcvMjAwMC9zdmciIHhtbG5zOnY9Imh0dHBzOi8vdmVjdGEuaW8vbmFubyIgd2lkdGg9IjIwIiBoZWlnaHQ9IjE5Ljk4OTk5OTc3MTExODE2NCIgdmlld0JveD0iMCAwIDIwIDE5Ljk4OTk5OTc3MTExODE2NCI+JiN4YTsJPHN0eWxlIHR5cGU9InRleHQvY3NzIj4mI3hhOwkuc3Qwe2ZpbGw6IzQyODVmNDt9JiN4YTsJLnN0MXtmaWxsOiM2NjlkZjY7fSYjeGE7CS5zdDJ7ZmlsbDojYWVjYmZhO30mI3hhOwk8L3N0eWxlPiYjeGE7CTxwYXRoIGNsYXNzPSJzdDEiIGQ9Ik0zIDMuOTlMMCA2LjQydjcuMTNsMyAyLjQ0eiIvPiYjeGE7CTxwYXRoIGNsYXNzPSJzdDAiIGQ9Ik0zIDMuOTlsLTMgNCAzLTJ6bS0zIDhsMyA0di0yeiIvPiYjeGE7CTxwYXRoIGNsYXNzPSJzdDIiIGQ9Ik0wIDE1Ljk5bDQgNCAyLTItNi02em0uMDEtOEw1Ljk5IDJsLTItMkwwIDMuOTl6Ii8+JiN4YTsJPHBhdGggY2xhc3M9InN0MSIgZD0iTTE3IDE2bDMtMi40MlY2LjQ0TDE3IDR6Ii8+JiN4YTsJPHBhdGggY2xhc3M9InN0MCIgZD0iTTE3IDE2bDMtNC0zIDJ6bTMtOGwtMy00djJ6Ii8+JiN4YTsJPGcgY2xhc3M9InN0MiI+JiN4YTsJCTxwYXRoIGQ9Ik0yMCA0bC00LTQtMiAyIDYgNnptLS4wMSA4bC01Ljk4IDUuOTkgMiAyTDIwIDE2eiIvPiYjeGE7CQk8Y2lyY2xlIGN4PSI2IiBjeT0iOS45OSIgcj0iMSIvPiYjeGE7CQk8Y2lyY2xlIGN4PSIxMCIgY3k9IjkuOTkiIHI9IjEiLz4mI3hhOwkJPGNpcmNsZSBjeD0iMTMuOTkiIGN5PSI5Ljk5IiByPSIxIi8+JiN4YTsJPC9nPiYjeGE7PC9zdmc+;" vertex="1" parent="4QEEzw6aT8S7W2rMDNhq-75">
          <mxGeometry width="30" height="24" relative="1" as="geometry">
            <mxPoint x="15" y="18" as="offset" />
          </mxGeometry>
        </mxCell>
        <mxCell id="4QEEzw6aT8S7W2rMDNhq-88" value="" style="group;flipV=1;" vertex="1" connectable="0" parent="1">
          <mxGeometry x="-1295.75" y="2472.5" width="200" height="120" as="geometry" />
        </mxCell>
        <mxCell id="4QEEzw6aT8S7W2rMDNhq-81" value="Analyze" style="sketch=0;points=[[0,0,0],[0.25,0,0],[0.5,0,0],[0.75,0,0],[1,0,0],[1,0.25,0],[1,0.5,0],[1,0.75,0],[1,1,0],[0.75,1,0],[0.5,1,0],[0.25,1,0],[0,1,0],[0,0.75,0],[0,0.5,0],[0,0.25,0]];rounded=1;absoluteArcSize=1;arcSize=2;html=1;strokeColor=none;gradientColor=none;shadow=0;dashed=0;fontSize=12;fontColor=#9E9E9E;align=left;verticalAlign=top;spacing=10;spacingTop=-4;whiteSpace=wrap;fillColor=#F1F8E9;" vertex="1" parent="4QEEzw6aT8S7W2rMDNhq-88">
          <mxGeometry width="200" height="120" as="geometry" />
        </mxCell>
        <mxCell id="4QEEzw6aT8S7W2rMDNhq-82" value="" style="strokeColor=#dddddd;shadow=1;strokeWidth=1;rounded=1;absoluteArcSize=1;arcSize=2;" vertex="1" parent="4QEEzw6aT8S7W2rMDNhq-88">
          <mxGeometry x="20" y="30" width="160" height="60" as="geometry" />
        </mxCell>
        <mxCell id="4QEEzw6aT8S7W2rMDNhq-83" value="&lt;font color=&quot;#000000&quot;&gt;res&lt;br&gt;&lt;/font&gt;ApplicationData" style="editableCssRules=.*;html=1;fontColor=#999999;shape=image;verticalLabelPosition=middle;verticalAlign=middle;labelPosition=right;align=left;spacingLeft=20;part=1;points=[];imageAspect=0;image=data:image/svg+xml,PHN2ZyB4bWxucz0iaHR0cDovL3d3dy53My5vcmcvMjAwMC9zdmciIHhtbG5zOnY9Imh0dHBzOi8vdmVjdGEuaW8vbmFubyIgd2lkdGg9IjIwIiBoZWlnaHQ9IjE5Ljk4OTk5OTc3MTExODE2NCIgdmlld0JveD0iMCAwIDIwIDE5Ljk4OTk5OTc3MTExODE2NCI+JiN4YTsJPHN0eWxlIHR5cGU9InRleHQvY3NzIj4mI3hhOwkuc3Qwe2ZpbGw6IzQyODVmNDt9JiN4YTsJLnN0MXtmaWxsOiM2NjlkZjY7fSYjeGE7CS5zdDJ7ZmlsbDojYWVjYmZhO30mI3hhOwk8L3N0eWxlPiYjeGE7CTxwYXRoIGNsYXNzPSJzdDEiIGQ9Ik0zIDMuOTlMMCA2LjQydjcuMTNsMyAyLjQ0eiIvPiYjeGE7CTxwYXRoIGNsYXNzPSJzdDAiIGQ9Ik0zIDMuOTlsLTMgNCAzLTJ6bS0zIDhsMyA0di0yeiIvPiYjeGE7CTxwYXRoIGNsYXNzPSJzdDIiIGQ9Ik0wIDE1Ljk5bDQgNCAyLTItNi02em0uMDEtOEw1Ljk5IDJsLTItMkwwIDMuOTl6Ii8+JiN4YTsJPHBhdGggY2xhc3M9InN0MSIgZD0iTTE3IDE2bDMtMi40MlY2LjQ0TDE3IDR6Ii8+JiN4YTsJPHBhdGggY2xhc3M9InN0MCIgZD0iTTE3IDE2bDMtNC0zIDJ6bTMtOGwtMy00djJ6Ii8+JiN4YTsJPGcgY2xhc3M9InN0MiI+JiN4YTsJCTxwYXRoIGQ9Ik0yMCA0bC00LTQtMiAyIDYgNnptLS4wMSA4bC01Ljk4IDUuOTkgMiAyTDIwIDE2eiIvPiYjeGE7CQk8Y2lyY2xlIGN4PSI2IiBjeT0iOS45OSIgcj0iMSIvPiYjeGE7CQk8Y2lyY2xlIGN4PSIxMCIgY3k9IjkuOTkiIHI9IjEiLz4mI3hhOwkJPGNpcmNsZSBjeD0iMTMuOTkiIGN5PSI5Ljk5IiByPSIxIi8+JiN4YTsJPC9nPiYjeGE7PC9zdmc+;" vertex="1" parent="4QEEzw6aT8S7W2rMDNhq-82">
          <mxGeometry width="30" height="24" relative="1" as="geometry">
            <mxPoint x="15" y="18" as="offset" />
          </mxGeometry>
        </mxCell>
        <mxCell id="4QEEzw6aT8S7W2rMDNhq-77" value="2" style="rounded=1;whiteSpace=wrap;html=1;fillColor=#007CBD;strokeColor=none;fontColor=#FFFFFF;fontStyle=1;fontSize=22;labelBackgroundColor=none;flipV=1;" vertex="1" parent="1">
          <mxGeometry x="-1109.75" y="2187" width="40" height="38" as="geometry" />
        </mxCell>
        <mxCell id="4QEEzw6aT8S7W2rMDNhq-78" value="3" style="rounded=1;whiteSpace=wrap;html=1;fillColor=#007CBD;strokeColor=none;fontColor=#FFFFFF;fontStyle=1;fontSize=22;labelBackgroundColor=none;flipV=1;" vertex="1" parent="1">
          <mxGeometry x="-1109.75" y="2330" width="40" height="38" as="geometry" />
        </mxCell>
        <mxCell id="4QEEzw6aT8S7W2rMDNhq-79" value="4" style="rounded=1;whiteSpace=wrap;html=1;fillColor=#007CBD;strokeColor=none;fontColor=#FFFFFF;fontStyle=1;fontSize=22;labelBackgroundColor=none;flipV=1;" vertex="1" parent="1">
          <mxGeometry x="-1109.75" y="2466" width="40" height="38" as="geometry" />
        </mxCell>
        <mxCell id="4QEEzw6aT8S7W2rMDNhq-93" value="App folser" style="sketch=0;points=[[0,0,0],[0.25,0,0],[0.5,0,0],[0.75,0,0],[1,0,0],[1,0.25,0],[1,0.5,0],[1,0.75,0],[1,1,0],[0.75,1,0],[0.5,1,0],[0.25,1,0],[0,1,0],[0,0.75,0],[0,0.5,0],[0,0.25,0]];rounded=1;absoluteArcSize=1;arcSize=2;html=1;strokeColor=none;gradientColor=none;shadow=1;dashed=0;fontSize=12;fontColor=#9E9E9E;align=left;verticalAlign=top;spacing=10;spacingTop=-4;whiteSpace=wrap;fillColor=#E6E6E6;" vertex="1" parent="1">
          <mxGeometry x="-1660" y="2107" width="240" height="290" as="geometry" />
        </mxCell>
        <mxCell id="4QEEzw6aT8S7W2rMDNhq-94" value="" style="strokeColor=#dddddd;shadow=1;strokeWidth=1;rounded=1;absoluteArcSize=1;arcSize=2;" vertex="1" parent="1">
          <mxGeometry x="-1620" y="2147" width="160" height="60" as="geometry" />
        </mxCell>
        <mxCell id="4QEEzw6aT8S7W2rMDNhq-95" value="&lt;font color=&quot;#000000&quot;&gt;config.yaml&lt;br&gt;&lt;/font&gt;Configuration" style="editableCssRules=.*;html=1;fontColor=#999999;shape=image;verticalLabelPosition=middle;verticalAlign=middle;labelPosition=right;align=left;spacingLeft=20;part=1;points=[];imageAspect=0;image=data:image/svg+xml,PHN2ZyB4bWxucz0iaHR0cDovL3d3dy53My5vcmcvMjAwMC9zdmciIHhtbG5zOnY9Imh0dHBzOi8vdmVjdGEuaW8vbmFubyIgd2lkdGg9IjIwIiBoZWlnaHQ9IjE5Ljk4OTk5OTc3MTExODE2NCIgdmlld0JveD0iMCAwIDIwIDE5Ljk4OTk5OTc3MTExODE2NCI+JiN4YTsJPHN0eWxlIHR5cGU9InRleHQvY3NzIj4mI3hhOwkuc3Qwe2ZpbGw6IzQyODVmNDt9JiN4YTsJLnN0MXtmaWxsOiM2NjlkZjY7fSYjeGE7CS5zdDJ7ZmlsbDojYWVjYmZhO30mI3hhOwk8L3N0eWxlPiYjeGE7CTxwYXRoIGNsYXNzPSJzdDEiIGQ9Ik0zIDMuOTlMMCA2LjQydjcuMTNsMyAyLjQ0eiIvPiYjeGE7CTxwYXRoIGNsYXNzPSJzdDAiIGQ9Ik0zIDMuOTlsLTMgNCAzLTJ6bS0zIDhsMyA0di0yeiIvPiYjeGE7CTxwYXRoIGNsYXNzPSJzdDIiIGQ9Ik0wIDE1Ljk5bDQgNCAyLTItNi02em0uMDEtOEw1Ljk5IDJsLTItMkwwIDMuOTl6Ii8+JiN4YTsJPHBhdGggY2xhc3M9InN0MSIgZD0iTTE3IDE2bDMtMi40MlY2LjQ0TDE3IDR6Ii8+JiN4YTsJPHBhdGggY2xhc3M9InN0MCIgZD0iTTE3IDE2bDMtNC0zIDJ6bTMtOGwtMy00djJ6Ii8+JiN4YTsJPGcgY2xhc3M9InN0MiI+JiN4YTsJCTxwYXRoIGQ9Ik0yMCA0bC00LTQtMiAyIDYgNnptLS4wMSA4bC01Ljk4IDUuOTkgMiAyTDIwIDE2eiIvPiYjeGE7CQk8Y2lyY2xlIGN4PSI2IiBjeT0iOS45OSIgcj0iMSIvPiYjeGE7CQk8Y2lyY2xlIGN4PSIxMCIgY3k9IjkuOTkiIHI9IjEiLz4mI3hhOwkJPGNpcmNsZSBjeD0iMTMuOTkiIGN5PSI5Ljk5IiByPSIxIi8+JiN4YTsJPC9nPiYjeGE7PC9zdmc+;" vertex="1" parent="4QEEzw6aT8S7W2rMDNhq-94">
          <mxGeometry width="30" height="24" relative="1" as="geometry">
            <mxPoint x="15" y="18" as="offset" />
          </mxGeometry>
        </mxCell>
        <mxCell id="4QEEzw6aT8S7W2rMDNhq-97" value="" style="strokeColor=#dddddd;shadow=1;strokeWidth=1;rounded=1;absoluteArcSize=1;arcSize=2;" vertex="1" parent="1">
          <mxGeometry x="-1620" y="2229" width="160" height="60" as="geometry" />
        </mxCell>
        <mxCell id="4QEEzw6aT8S7W2rMDNhq-98" value="&lt;font color=&quot;#000000&quot;&gt;manifest.ttl&lt;br&gt;&lt;/font&gt;SHACK shape" style="editableCssRules=.*;html=1;fontColor=#999999;shape=image;verticalLabelPosition=middle;verticalAlign=middle;labelPosition=right;align=left;spacingLeft=20;part=1;points=[];imageAspect=0;image=data:image/svg+xml,PHN2ZyB4bWxucz0iaHR0cDovL3d3dy53My5vcmcvMjAwMC9zdmciIHhtbG5zOnY9Imh0dHBzOi8vdmVjdGEuaW8vbmFubyIgd2lkdGg9IjIwIiBoZWlnaHQ9IjE5Ljk4OTk5OTc3MTExODE2NCIgdmlld0JveD0iMCAwIDIwIDE5Ljk4OTk5OTc3MTExODE2NCI+JiN4YTsJPHN0eWxlIHR5cGU9InRleHQvY3NzIj4mI3hhOwkuc3Qwe2ZpbGw6IzQyODVmNDt9JiN4YTsJLnN0MXtmaWxsOiM2NjlkZjY7fSYjeGE7CS5zdDJ7ZmlsbDojYWVjYmZhO30mI3hhOwk8L3N0eWxlPiYjeGE7CTxwYXRoIGNsYXNzPSJzdDEiIGQ9Ik0zIDMuOTlMMCA2LjQydjcuMTNsMyAyLjQ0eiIvPiYjeGE7CTxwYXRoIGNsYXNzPSJzdDAiIGQ9Ik0zIDMuOTlsLTMgNCAzLTJ6bS0zIDhsMyA0di0yeiIvPiYjeGE7CTxwYXRoIGNsYXNzPSJzdDIiIGQ9Ik0wIDE1Ljk5bDQgNCAyLTItNi02em0uMDEtOEw1Ljk5IDJsLTItMkwwIDMuOTl6Ii8+JiN4YTsJPHBhdGggY2xhc3M9InN0MSIgZD0iTTE3IDE2bDMtMi40MlY2LjQ0TDE3IDR6Ii8+JiN4YTsJPHBhdGggY2xhc3M9InN0MCIgZD0iTTE3IDE2bDMtNC0zIDJ6bTMtOGwtMy00djJ6Ii8+JiN4YTsJPGcgY2xhc3M9InN0MiI+JiN4YTsJCTxwYXRoIGQ9Ik0yMCA0bC00LTQtMiAyIDYgNnptLS4wMSA4bC01Ljk4IDUuOTkgMiAyTDIwIDE2eiIvPiYjeGE7CQk8Y2lyY2xlIGN4PSI2IiBjeT0iOS45OSIgcj0iMSIvPiYjeGE7CQk8Y2lyY2xlIGN4PSIxMCIgY3k9IjkuOTkiIHI9IjEiLz4mI3hhOwkJPGNpcmNsZSBjeD0iMTMuOTkiIGN5PSI5Ljk5IiByPSIxIi8+JiN4YTsJPC9nPiYjeGE7PC9zdmc+;" vertex="1" parent="4QEEzw6aT8S7W2rMDNhq-97">
          <mxGeometry width="30" height="24" relative="1" as="geometry">
            <mxPoint x="15" y="18" as="offset" />
          </mxGeometry>
        </mxCell>
        <mxCell id="4QEEzw6aT8S7W2rMDNhq-99" value="" style="strokeColor=#dddddd;shadow=1;strokeWidth=1;rounded=1;absoluteArcSize=1;arcSize=2;" vertex="1" parent="1">
          <mxGeometry x="-1620" y="2307" width="160" height="60" as="geometry" />
        </mxCell>
        <mxCell id="4QEEzw6aT8S7W2rMDNhq-100" value="&lt;font color=&quot;#000000&quot;&gt;query.rq&lt;br&gt;&lt;/font&gt;SPARQL query" style="editableCssRules=.*;html=1;fontColor=#999999;shape=image;verticalLabelPosition=middle;verticalAlign=middle;labelPosition=right;align=left;spacingLeft=20;part=1;points=[];imageAspect=0;image=data:image/svg+xml,PHN2ZyB4bWxucz0iaHR0cDovL3d3dy53My5vcmcvMjAwMC9zdmciIHhtbG5zOnY9Imh0dHBzOi8vdmVjdGEuaW8vbmFubyIgd2lkdGg9IjIwIiBoZWlnaHQ9IjE5Ljk4OTk5OTc3MTExODE2NCIgdmlld0JveD0iMCAwIDIwIDE5Ljk4OTk5OTc3MTExODE2NCI+JiN4YTsJPHN0eWxlIHR5cGU9InRleHQvY3NzIj4mI3hhOwkuc3Qwe2ZpbGw6IzQyODVmNDt9JiN4YTsJLnN0MXtmaWxsOiM2NjlkZjY7fSYjeGE7CS5zdDJ7ZmlsbDojYWVjYmZhO30mI3hhOwk8L3N0eWxlPiYjeGE7CTxwYXRoIGNsYXNzPSJzdDEiIGQ9Ik0zIDMuOTlMMCA2LjQydjcuMTNsMyAyLjQ0eiIvPiYjeGE7CTxwYXRoIGNsYXNzPSJzdDAiIGQ9Ik0zIDMuOTlsLTMgNCAzLTJ6bS0zIDhsMyA0di0yeiIvPiYjeGE7CTxwYXRoIGNsYXNzPSJzdDIiIGQ9Ik0wIDE1Ljk5bDQgNCAyLTItNi02em0uMDEtOEw1Ljk5IDJsLTItMkwwIDMuOTl6Ii8+JiN4YTsJPHBhdGggY2xhc3M9InN0MSIgZD0iTTE3IDE2bDMtMi40MlY2LjQ0TDE3IDR6Ii8+JiN4YTsJPHBhdGggY2xhc3M9InN0MCIgZD0iTTE3IDE2bDMtNC0zIDJ6bTMtOGwtMy00djJ6Ii8+JiN4YTsJPGcgY2xhc3M9InN0MiI+JiN4YTsJCTxwYXRoIGQ9Ik0yMCA0bC00LTQtMiAyIDYgNnptLS4wMSA4bC01Ljk4IDUuOTkgMiAyTDIwIDE2eiIvPiYjeGE7CQk8Y2lyY2xlIGN4PSI2IiBjeT0iOS45OSIgcj0iMSIvPiYjeGE7CQk8Y2lyY2xlIGN4PSIxMCIgY3k9IjkuOTkiIHI9IjEiLz4mI3hhOwkJPGNpcmNsZSBjeD0iMTMuOTkiIGN5PSI5Ljk5IiByPSIxIi8+JiN4YTsJPC9nPiYjeGE7PC9zdmc+;" vertex="1" parent="4QEEzw6aT8S7W2rMDNhq-99">
          <mxGeometry width="30" height="24" relative="1" as="geometry">
            <mxPoint x="15" y="18" as="offset" />
          </mxGeometry>
        </mxCell>
        <mxCell id="4QEEzw6aT8S7W2rMDNhq-107" value="App folser" style="sketch=0;points=[[0,0,0],[0.25,0,0],[0.5,0,0],[0.75,0,0],[1,0,0],[1,0.25,0],[1,0.5,0],[1,0.75,0],[1,1,0],[0.75,1,0],[0.5,1,0],[0.25,1,0],[0,1,0],[0,0.75,0],[0,0.5,0],[0,0.25,0]];rounded=1;absoluteArcSize=1;arcSize=2;html=1;strokeColor=none;gradientColor=none;shadow=0;dashed=0;fontSize=12;fontColor=#9E9E9E;align=left;verticalAlign=top;spacing=10;spacingTop=-4;whiteSpace=wrap;fillColor=#E6E6E6;" vertex="1" parent="1">
          <mxGeometry x="-560.88" y="2167.5" width="110" height="77" as="geometry" />
        </mxCell>
        <mxCell id="4QEEzw6aT8S7W2rMDNhq-108" value="App folser" style="sketch=0;points=[[0,0,0],[0.25,0,0],[0.5,0,0],[0.75,0,0],[1,0,0],[1,0.25,0],[1,0.5,0],[1,0.75,0],[1,1,0],[0.75,1,0],[0.5,1,0],[0.25,1,0],[0,1,0],[0,0.75,0],[0,0.5,0],[0,0.25,0]];rounded=1;absoluteArcSize=1;arcSize=2;html=1;strokeColor=none;gradientColor=none;shadow=0;dashed=0;fontSize=12;fontColor=#9E9E9E;align=left;verticalAlign=top;spacing=10;spacingTop=-4;whiteSpace=wrap;fillColor=#E6E6E6;" vertex="1" parent="1">
          <mxGeometry x="-431.75" y="2167.5" width="110" height="77" as="geometry" />
        </mxCell>
        <mxCell id="4QEEzw6aT8S7W2rMDNhq-109" value="App folser" style="sketch=0;points=[[0,0,0],[0.25,0,0],[0.5,0,0],[0.75,0,0],[1,0,0],[1,0.25,0],[1,0.5,0],[1,0.75,0],[1,1,0],[0.75,1,0],[0.5,1,0],[0.25,1,0],[0,1,0],[0,0.75,0],[0,0.5,0],[0,0.25,0]];rounded=1;absoluteArcSize=1;arcSize=2;html=1;strokeColor=none;gradientColor=none;shadow=0;dashed=0;fontSize=12;fontColor=#9E9E9E;align=left;verticalAlign=top;spacing=10;spacingTop=-4;whiteSpace=wrap;fillColor=#E6E6E6;" vertex="1" parent="1">
          <mxGeometry x="-300" y="2170" width="110" height="77" as="geometry" />
        </mxCell>
        <mxCell id="4QEEzw6aT8S7W2rMDNhq-110" value="External Data Sources" style="sketch=0;points=[[0,0,0],[0.25,0,0],[0.5,0,0],[0.75,0,0],[1,0,0],[1,0.25,0],[1,0.5,0],[1,0.75,0],[1,1,0],[0.75,1,0],[0.5,1,0],[0.25,1,0],[0,1,0],[0,0.75,0],[0,0.5,0],[0,0.25,0]];rounded=1;absoluteArcSize=1;arcSize=2;html=1;strokeColor=none;gradientColor=none;shadow=0;dashed=0;fontSize=12;fontColor=#9E9E9E;align=left;verticalAlign=top;spacing=10;spacingTop=-4;whiteSpace=wrap;fillColor=#FFF8E1;" vertex="1" parent="1">
          <mxGeometry x="-510" y="1950.7" width="274.25" height="170" as="geometry" />
        </mxCell>
        <mxCell id="4QEEzw6aT8S7W2rMDNhq-111" value="" style="strokeColor=#dddddd;shadow=1;strokeWidth=1;rounded=1;absoluteArcSize=1;arcSize=2;" vertex="1" parent="1">
          <mxGeometry x="-495.75" y="1994.7" width="160" height="60" as="geometry" />
        </mxCell>
        <mxCell id="4QEEzw6aT8S7W2rMDNhq-112" value="&lt;font color=&quot;#000000&quot;&gt;metadata.ttl&lt;br&gt;&lt;/font&gt;Brick schema" style="editableCssRules=.*;html=1;fontColor=#999999;shape=image;verticalLabelPosition=middle;verticalAlign=middle;labelPosition=right;align=left;spacingLeft=20;part=1;points=[];imageAspect=0;image=data:image/svg+xml,PHN2ZyB4bWxucz0iaHR0cDovL3d3dy53My5vcmcvMjAwMC9zdmciIHhtbG5zOnY9Imh0dHBzOi8vdmVjdGEuaW8vbmFubyIgd2lkdGg9IjIwIiBoZWlnaHQ9IjE5Ljk4OTk5OTc3MTExODE2NCIgdmlld0JveD0iMCAwIDIwIDE5Ljk4OTk5OTc3MTExODE2NCI+JiN4YTsJPHN0eWxlIHR5cGU9InRleHQvY3NzIj4mI3hhOwkuc3Qwe2ZpbGw6IzQyODVmNDt9JiN4YTsJLnN0MXtmaWxsOiM2NjlkZjY7fSYjeGE7CS5zdDJ7ZmlsbDojYWVjYmZhO30mI3hhOwk8L3N0eWxlPiYjeGE7CTxwYXRoIGNsYXNzPSJzdDEiIGQ9Ik0zIDMuOTlMMCA2LjQydjcuMTNsMyAyLjQ0eiIvPiYjeGE7CTxwYXRoIGNsYXNzPSJzdDAiIGQ9Ik0zIDMuOTlsLTMgNCAzLTJ6bS0zIDhsMyA0di0yeiIvPiYjeGE7CTxwYXRoIGNsYXNzPSJzdDIiIGQ9Ik0wIDE1Ljk5bDQgNCAyLTItNi02em0uMDEtOEw1Ljk5IDJsLTItMkwwIDMuOTl6Ii8+JiN4YTsJPHBhdGggY2xhc3M9InN0MSIgZD0iTTE3IDE2bDMtMi40MlY2LjQ0TDE3IDR6Ii8+JiN4YTsJPHBhdGggY2xhc3M9InN0MCIgZD0iTTE3IDE2bDMtNC0zIDJ6bTMtOGwtMy00djJ6Ii8+JiN4YTsJPGcgY2xhc3M9InN0MiI+JiN4YTsJCTxwYXRoIGQ9Ik0yMCA0bC00LTQtMiAyIDYgNnptLS4wMSA4bC01Ljk4IDUuOTkgMiAyTDIwIDE2eiIvPiYjeGE7CQk8Y2lyY2xlIGN4PSI2IiBjeT0iOS45OSIgcj0iMSIvPiYjeGE7CQk8Y2lyY2xlIGN4PSIxMCIgY3k9IjkuOTkiIHI9IjEiLz4mI3hhOwkJPGNpcmNsZSBjeD0iMTMuOTkiIGN5PSI5Ljk5IiByPSIxIi8+JiN4YTsJPC9nPiYjeGE7PC9zdmc+;" vertex="1" parent="4QEEzw6aT8S7W2rMDNhq-111">
          <mxGeometry width="30" height="24" relative="1" as="geometry">
            <mxPoint x="15" y="18" as="offset" />
          </mxGeometry>
        </mxCell>
        <mxCell id="4QEEzw6aT8S7W2rMDNhq-113" value="" style="strokeColor=#dddddd;shadow=1;strokeWidth=1;rounded=1;absoluteArcSize=1;arcSize=2;" vertex="1" parent="1">
          <mxGeometry x="-425.75" y="2045.7" width="160" height="60" as="geometry" />
        </mxCell>
        <mxCell id="4QEEzw6aT8S7W2rMDNhq-114" value="&lt;font color=&quot;#000000&quot;&gt;data&lt;br&gt;&lt;/font&gt;Tabular data" style="editableCssRules=.*;html=1;fontColor=#999999;shape=image;verticalLabelPosition=middle;verticalAlign=middle;labelPosition=right;align=left;spacingLeft=20;part=1;points=[];imageAspect=0;image=data:image/svg+xml,PHN2ZyB4bWxucz0iaHR0cDovL3d3dy53My5vcmcvMjAwMC9zdmciIHhtbG5zOnY9Imh0dHBzOi8vdmVjdGEuaW8vbmFubyIgd2lkdGg9IjIwIiBoZWlnaHQ9IjE5Ljk4OTk5OTc3MTExODE2NCIgdmlld0JveD0iMCAwIDIwIDE5Ljk4OTk5OTc3MTExODE2NCI+JiN4YTsJPHN0eWxlIHR5cGU9InRleHQvY3NzIj4mI3hhOwkuc3Qwe2ZpbGw6IzQyODVmNDt9JiN4YTsJLnN0MXtmaWxsOiM2NjlkZjY7fSYjeGE7CS5zdDJ7ZmlsbDojYWVjYmZhO30mI3hhOwk8L3N0eWxlPiYjeGE7CTxwYXRoIGNsYXNzPSJzdDEiIGQ9Ik0zIDMuOTlMMCA2LjQydjcuMTNsMyAyLjQ0eiIvPiYjeGE7CTxwYXRoIGNsYXNzPSJzdDAiIGQ9Ik0zIDMuOTlsLTMgNCAzLTJ6bS0zIDhsMyA0di0yeiIvPiYjeGE7CTxwYXRoIGNsYXNzPSJzdDIiIGQ9Ik0wIDE1Ljk5bDQgNCAyLTItNi02em0uMDEtOEw1Ljk5IDJsLTItMkwwIDMuOTl6Ii8+JiN4YTsJPHBhdGggY2xhc3M9InN0MSIgZD0iTTE3IDE2bDMtMi40MlY2LjQ0TDE3IDR6Ii8+JiN4YTsJPHBhdGggY2xhc3M9InN0MCIgZD0iTTE3IDE2bDMtNC0zIDJ6bTMtOGwtMy00djJ6Ii8+JiN4YTsJPGcgY2xhc3M9InN0MiI+JiN4YTsJCTxwYXRoIGQ9Ik0yMCA0bC00LTQtMiAyIDYgNnptLS4wMSA4bC01Ljk4IDUuOTkgMiAyTDIwIDE2eiIvPiYjeGE7CQk8Y2lyY2xlIGN4PSI2IiBjeT0iOS45OSIgcj0iMSIvPiYjeGE7CQk8Y2lyY2xlIGN4PSIxMCIgY3k9IjkuOTkiIHI9IjEiLz4mI3hhOwkJPGNpcmNsZSBjeD0iMTMuOTkiIGN5PSI5Ljk5IiByPSIxIi8+JiN4YTsJPC9nPiYjeGE7PC9zdmc+;" vertex="1" parent="4QEEzw6aT8S7W2rMDNhq-113">
          <mxGeometry width="30" height="24" relative="1" as="geometry">
            <mxPoint x="15" y="18" as="offset" />
          </mxGeometry>
        </mxCell>
        <mxCell id="4QEEzw6aT8S7W2rMDNhq-120" style="edgeStyle=orthogonalEdgeStyle;rounded=0;orthogonalLoop=1;jettySize=auto;html=1;" edge="1" parent="1" source="4QEEzw6aT8S7W2rMDNhq-119" target="4QEEzw6aT8S7W2rMDNhq-93">
          <mxGeometry relative="1" as="geometry" />
        </mxCell>
        <mxCell id="4QEEzw6aT8S7W2rMDNhq-119" value="Guided creation of new application" style="sketch=0;points=[[0,0,0],[0.25,0,0],[0.5,0,0],[0.75,0,0],[1,0,0],[1,0.25,0],[1,0.5,0],[1,0.75,0],[1,1,0],[0.75,1,0],[0.5,1,0],[0.25,1,0],[0,1,0],[0,0.75,0],[0,0.5,0],[0,0.25,0]];rounded=1;absoluteArcSize=1;arcSize=2;html=1;strokeColor=none;gradientColor=none;shadow=1;dashed=0;fontSize=12;fontColor=#9E9E9E;align=left;verticalAlign=top;spacing=10;spacingTop=-4;whiteSpace=wrap;fillColor=#FFF8E1;" vertex="1" parent="1">
          <mxGeometry x="-1660" y="2434.5" width="240" height="51.5" as="geometry" />
        </mxCell>
        <mxCell id="4QEEzw6aT8S7W2rMDNhq-128" value="" style="sketch=0;outlineConnect=0;fontColor=#232F3E;gradientColor=none;fillColor=#232F3D;strokeColor=none;dashed=0;verticalLabelPosition=bottom;verticalAlign=top;align=center;html=1;fontSize=12;fontStyle=0;aspect=fixed;pointerEvents=1;shape=mxgraph.aws4.authenticated_user;" vertex="1" parent="1">
          <mxGeometry x="-1579" y="2560" width="78" height="78" as="geometry" />
        </mxCell>
        <mxCell id="4QEEzw6aT8S7W2rMDNhq-129" style="edgeStyle=orthogonalEdgeStyle;rounded=0;orthogonalLoop=1;jettySize=auto;html=1;entryX=0.5;entryY=1;entryDx=0;entryDy=0;entryPerimeter=0;" edge="1" parent="1" source="4QEEzw6aT8S7W2rMDNhq-128" target="4QEEzw6aT8S7W2rMDNhq-119">
          <mxGeometry relative="1" as="geometry" />
        </mxCell>
        <mxCell id="4QEEzw6aT8S7W2rMDNhq-133" style="edgeStyle=orthogonalEdgeStyle;rounded=0;orthogonalLoop=1;jettySize=auto;html=1;entryX=-0.001;entryY=0.407;entryDx=0;entryDy=0;entryPerimeter=0;" edge="1" parent="1" source="4QEEzw6aT8S7W2rMDNhq-93" target="4QEEzw6aT8S7W2rMDNhq-22">
          <mxGeometry relative="1" as="geometry" />
        </mxCell>
      </root>
    </mxGraphModel>
  </diagram>
</mxfile>
